<svg width="377" height="325" viewBox="0 0 377 325" fill="none" xmlns="http://www.w3.org/2000/svg">
<g filter="url(#filter0_d_2416_2986)">
<rect x="20" y="18" width="335" height="284.069" rx="22.955" fill="white"/>
</g>
<path d="M177.985 162.861V155.78H178.859L181.48 160.671L184.091 155.78H184.945V162.861H184.011V157.669L181.791 161.776H181.159L178.929 157.689V162.861H177.985ZM188.855 162.861L185.732 155.78H186.846L189.327 161.545L191.807 155.78H192.872L189.749 162.861H188.855ZM193.647 162.861V155.78H196.58C197.343 155.78 197.932 155.971 198.347 156.353C198.762 156.728 198.97 157.257 198.97 157.94C198.97 158.629 198.762 159.165 198.347 159.547C197.932 159.921 197.343 160.109 196.58 160.109H194.692V162.861H193.647ZM194.692 159.275H196.429C197.447 159.275 197.956 158.83 197.956 157.94C197.956 157.056 197.447 156.614 196.429 156.614H194.692V159.275Z" fill="#AAAED6"/>
<path d="M161.887 179.285C161.331 179.285 160.822 179.215 160.36 179.074C159.899 178.927 159.507 178.723 159.185 178.462L159.517 177.638C159.852 177.893 160.21 178.084 160.591 178.211C160.973 178.338 161.405 178.402 161.887 178.402C162.456 178.402 162.875 178.301 163.142 178.1C163.417 177.893 163.554 177.625 163.554 177.297C163.554 177.029 163.457 176.818 163.263 176.664C163.069 176.504 162.744 176.376 162.289 176.283L161.214 176.062C160.578 175.928 160.103 175.707 159.788 175.399C159.48 175.091 159.326 174.676 159.326 174.154C159.326 173.732 159.437 173.36 159.657 173.039C159.885 172.717 160.2 172.47 160.602 172.296C161.003 172.115 161.465 172.024 161.987 172.024C162.469 172.024 162.915 172.098 163.323 172.245C163.738 172.386 164.09 172.594 164.378 172.868L164.036 173.661C163.467 173.159 162.781 172.908 161.977 172.908C161.482 172.908 161.087 173.019 160.792 173.24C160.504 173.461 160.36 173.755 160.36 174.123C160.36 174.405 160.451 174.629 160.632 174.796C160.812 174.964 161.114 175.091 161.535 175.178L162.6 175.399C163.27 175.539 163.768 175.757 164.096 176.052C164.424 176.339 164.589 176.731 164.589 177.227C164.589 177.642 164.478 178.003 164.257 178.311C164.036 178.619 163.725 178.86 163.323 179.034C162.921 179.202 162.443 179.285 161.887 179.285ZM168.847 179.285C168.171 179.285 167.585 179.138 167.09 178.844C166.594 178.542 166.209 178.12 165.935 177.578C165.667 177.029 165.533 176.386 165.533 175.65C165.533 174.907 165.667 174.264 165.935 173.722C166.209 173.179 166.594 172.761 167.09 172.466C167.585 172.172 168.171 172.024 168.847 172.024C169.517 172.024 170.099 172.172 170.595 172.466C171.097 172.761 171.482 173.179 171.75 173.722C172.024 174.264 172.162 174.903 172.162 175.64C172.162 176.383 172.024 177.029 171.75 177.578C171.482 178.12 171.097 178.542 170.595 178.844C170.099 179.138 169.517 179.285 168.847 179.285ZM168.847 178.382C169.55 178.382 170.096 178.144 170.484 177.668C170.879 177.186 171.077 176.514 171.077 175.65C171.077 174.786 170.883 174.117 170.494 173.641C170.106 173.166 169.557 172.928 168.847 172.928C168.144 172.928 167.595 173.166 167.2 173.641C166.812 174.117 166.618 174.786 166.618 175.65C166.618 176.514 166.812 177.186 167.2 177.668C167.595 178.144 168.144 178.382 168.847 178.382ZM173.561 179.195V172.115H174.606V178.301H178.111V179.195H173.561ZM179.103 179.195V172.115H180.147V179.195H179.103ZM181.78 179.195V172.115H184.281C185.446 172.115 186.343 172.419 186.972 173.029C187.608 173.638 187.926 174.512 187.926 175.65C187.926 176.788 187.608 177.665 186.972 178.281C186.343 178.89 185.446 179.195 184.281 179.195H181.78ZM182.824 178.321H184.22C185.968 178.321 186.842 177.431 186.842 175.65C186.842 173.876 185.968 172.989 184.22 172.989H182.824V178.321ZM191.96 179.195V172.115H194.461C195.626 172.115 196.523 172.419 197.152 173.029C197.788 173.638 198.106 174.512 198.106 175.65C198.106 176.788 197.788 177.665 197.152 178.281C196.523 178.89 195.626 179.195 194.461 179.195H191.96ZM193.005 178.321H194.401C196.148 178.321 197.022 177.431 197.022 175.65C197.022 173.876 196.148 172.989 194.401 172.989H193.005V178.321ZM199.502 179.195V172.115H204.082V172.958H200.506V175.178H203.871V176.021H200.506V178.351H204.082V179.195H199.502ZM207.606 179.195L204.483 172.115H205.598L208.079 177.879L210.559 172.115H211.624L208.5 179.195H207.606ZM214.641 179.285C214.086 179.285 213.577 179.215 213.115 179.074C212.653 178.927 212.261 178.723 211.94 178.462L212.271 177.638C212.606 177.893 212.964 178.084 213.346 178.211C213.727 178.338 214.159 178.402 214.641 178.402C215.21 178.402 215.629 178.301 215.897 178.1C216.171 177.893 216.308 177.625 216.308 177.297C216.308 177.029 216.211 176.818 216.017 176.664C215.823 176.504 215.498 176.376 215.043 176.283L213.968 176.062C213.332 175.928 212.857 175.707 212.542 175.399C212.234 175.091 212.08 174.676 212.08 174.154C212.08 173.732 212.191 173.36 212.412 173.039C212.639 172.717 212.954 172.47 213.356 172.296C213.757 172.115 214.219 172.024 214.742 172.024C215.224 172.024 215.669 172.098 216.077 172.245C216.492 172.386 216.844 172.594 217.132 172.868L216.79 173.661C216.221 173.159 215.535 172.908 214.732 172.908C214.236 172.908 213.841 173.019 213.547 173.24C213.259 173.461 213.115 173.755 213.115 174.123C213.115 174.405 213.205 174.629 213.386 174.796C213.567 174.964 213.868 175.091 214.29 175.178L215.354 175.399C216.024 175.539 216.523 175.757 216.851 176.052C217.179 176.339 217.343 176.731 217.343 177.227C217.343 177.642 217.232 178.003 217.011 178.311C216.79 178.619 216.479 178.86 216.077 179.034C215.676 179.202 215.197 179.285 214.641 179.285Z" fill="#AAAED6"/>
<path d="M146.452 203.991V202.649C145.915 202.609 145.407 202.511 144.927 202.357C144.456 202.194 144.045 201.97 143.695 201.686L144.171 200.454C144.553 200.739 144.972 200.958 145.427 201.113C145.882 201.267 146.382 201.344 146.927 201.344C147.521 201.344 147.956 201.239 148.232 201.027C148.508 200.816 148.647 200.552 148.647 200.235C148.647 199.95 148.553 199.722 148.366 199.552C148.179 199.381 147.846 199.243 147.366 199.137L146.073 198.857C145.342 198.694 144.789 198.426 144.415 198.052C144.049 197.67 143.866 197.166 143.866 196.54C143.866 195.857 144.098 195.284 144.561 194.82C145.033 194.349 145.663 194.064 146.452 193.966V192.588H147.671V193.954C148.094 193.995 148.504 194.097 148.903 194.259C149.301 194.422 149.638 194.641 149.915 194.918L149.451 196.088C148.834 195.519 148.045 195.235 147.086 195.235C146.582 195.235 146.175 195.353 145.866 195.588C145.565 195.816 145.415 196.117 145.415 196.491C145.415 196.767 145.508 196.991 145.695 197.162C145.882 197.332 146.183 197.462 146.598 197.552L147.891 197.832C148.671 198.003 149.248 198.275 149.622 198.649C150.004 199.015 150.195 199.503 150.195 200.113C150.195 200.796 149.96 201.357 149.488 201.796C149.025 202.226 148.419 202.499 147.671 202.613V203.991H146.452ZM151.569 202.588V201.43L154.349 198.466C154.723 198.06 154.991 197.702 155.154 197.393C155.316 197.076 155.398 196.755 155.398 196.43C155.398 195.601 154.898 195.186 153.898 195.186C153.117 195.186 152.398 195.479 151.739 196.064L151.215 194.893C151.556 194.584 151.983 194.336 152.495 194.149C153.008 193.962 153.54 193.869 154.093 193.869C155.012 193.869 155.715 194.076 156.203 194.491C156.699 194.905 156.947 195.499 156.947 196.271C156.947 196.792 156.821 197.292 156.568 197.771C156.325 198.251 155.938 198.767 155.41 199.32L153.52 201.296H157.276V202.588H151.569ZM161.564 202.71C160.547 202.71 159.771 202.328 159.234 201.564C158.698 200.792 158.43 199.694 158.43 198.271C158.43 196.832 158.698 195.739 159.234 194.991C159.771 194.243 160.547 193.869 161.564 193.869C162.588 193.869 163.364 194.243 163.893 194.991C164.429 195.739 164.698 196.828 164.698 198.259C164.698 199.69 164.429 200.792 163.893 201.564C163.356 202.328 162.58 202.71 161.564 202.71ZM161.564 201.43C162.116 201.43 162.523 201.178 162.783 200.674C163.051 200.161 163.186 199.357 163.186 198.259C163.186 197.17 163.051 196.381 162.783 195.893C162.523 195.397 162.116 195.149 161.564 195.149C161.019 195.149 160.612 195.397 160.344 195.893C160.076 196.381 159.942 197.17 159.942 198.259C159.942 199.357 160.076 200.161 160.344 200.674C160.612 201.178 161.019 201.43 161.564 201.43ZM166.62 204.21L165.998 203.722C166.201 203.519 166.351 203.324 166.449 203.137C166.555 202.958 166.628 202.775 166.668 202.588H165.876V200.893H167.583V202.015C167.583 202.43 167.51 202.808 167.364 203.149C167.225 203.499 166.977 203.852 166.62 204.21ZM169.218 202.588V201.43L171.998 198.466C172.372 198.06 172.64 197.702 172.803 197.393C172.966 197.076 173.047 196.755 173.047 196.43C173.047 195.601 172.547 195.186 171.547 195.186C170.767 195.186 170.047 195.479 169.389 196.064L168.864 194.893C169.206 194.584 169.632 194.336 170.145 194.149C170.657 193.962 171.189 193.869 171.742 193.869C172.661 193.869 173.364 194.076 173.852 194.491C174.348 194.905 174.596 195.499 174.596 196.271C174.596 196.792 174.47 197.292 174.218 197.771C173.974 198.251 173.588 198.767 173.059 199.32L171.169 201.296H174.925V202.588H169.218ZM176.884 202.588V201.296H178.823V195.771L177.323 196.674L176.713 195.527L179.274 193.991H180.384V201.296H182.201V202.588H176.884ZM186.525 202.71C185.509 202.71 184.732 202.328 184.196 201.564C183.659 200.792 183.391 199.694 183.391 198.271C183.391 196.832 183.659 195.739 184.196 194.991C184.732 194.243 185.509 193.869 186.525 193.869C187.549 193.869 188.326 194.243 188.854 194.991C189.391 195.739 189.659 196.828 189.659 198.259C189.659 199.69 189.391 200.792 188.854 201.564C188.318 202.328 187.541 202.71 186.525 202.71ZM186.525 201.43C187.078 201.43 187.484 201.178 187.744 200.674C188.013 200.161 188.147 199.357 188.147 198.259C188.147 197.17 188.013 196.381 187.744 195.893C187.484 195.397 187.078 195.149 186.525 195.149C185.98 195.149 185.574 195.397 185.305 195.893C185.037 196.381 184.903 197.17 184.903 198.259C184.903 199.357 185.037 200.161 185.305 200.674C185.574 201.178 185.98 201.43 186.525 201.43ZM191.581 204.21L190.959 203.722C191.162 203.519 191.313 203.324 191.41 203.137C191.516 202.958 191.589 202.775 191.63 202.588H190.837V200.893H192.544V202.015C192.544 202.43 192.471 202.808 192.325 203.149C192.187 203.499 191.939 203.852 191.581 204.21ZM194.179 202.588V201.43L196.96 198.466C197.334 198.06 197.602 197.702 197.764 197.393C197.927 197.076 198.008 196.755 198.008 196.43C198.008 195.601 197.508 195.186 196.508 195.186C195.728 195.186 195.008 195.479 194.35 196.064L193.825 194.893C194.167 194.584 194.594 194.336 195.106 194.149C195.618 193.962 196.151 193.869 196.703 193.869C197.622 193.869 198.325 194.076 198.813 194.491C199.309 194.905 199.557 195.499 199.557 196.271C199.557 196.792 199.431 197.292 199.179 197.771C198.935 198.251 198.549 198.767 198.021 199.32L196.13 201.296H199.886V202.588H194.179ZM204.003 202.71C203.418 202.71 202.857 202.625 202.321 202.454C201.792 202.275 201.353 202.035 201.004 201.735L201.516 200.54C202.247 201.109 203.06 201.393 203.955 201.393C205.052 201.393 205.601 200.962 205.601 200.101C205.601 199.694 205.463 199.393 205.186 199.198C204.918 198.995 204.524 198.893 204.003 198.893H202.625V197.601H203.857C204.312 197.601 204.674 197.491 204.942 197.271C205.211 197.044 205.345 196.731 205.345 196.332C205.345 195.958 205.219 195.674 204.967 195.479C204.723 195.284 204.365 195.186 203.894 195.186C203.048 195.186 202.304 195.479 201.662 196.064L201.15 194.893C201.491 194.568 201.918 194.316 202.43 194.137C202.942 193.958 203.475 193.869 204.028 193.869C204.922 193.869 205.617 194.072 206.113 194.479C206.609 194.877 206.857 195.434 206.857 196.149C206.857 196.613 206.739 197.019 206.503 197.369C206.268 197.718 205.946 197.97 205.54 198.125C206.036 198.263 206.422 198.519 206.699 198.893C206.975 199.259 207.113 199.706 207.113 200.235C207.113 200.999 206.837 201.605 206.284 202.052C205.731 202.491 204.971 202.71 204.003 202.71ZM211.486 202.71C210.47 202.71 209.694 202.328 209.157 201.564C208.621 200.792 208.352 199.694 208.352 198.271C208.352 196.832 208.621 195.739 209.157 194.991C209.694 194.243 210.47 193.869 211.486 193.869C212.511 193.869 213.287 194.243 213.816 194.991C214.352 195.739 214.62 196.828 214.62 198.259C214.62 199.69 214.352 200.792 213.816 201.564C213.279 202.328 212.503 202.71 211.486 202.71ZM211.486 201.43C212.039 201.43 212.446 201.178 212.706 200.674C212.974 200.161 213.108 199.357 213.108 198.259C213.108 197.17 212.974 196.381 212.706 195.893C212.446 195.397 212.039 195.149 211.486 195.149C210.942 195.149 210.535 195.397 210.267 195.893C209.999 196.381 209.864 197.17 209.864 198.259C209.864 199.357 209.999 200.161 210.267 200.674C210.535 201.178 210.942 201.43 211.486 201.43ZM215.799 202.588V200.893H217.506V202.588H215.799ZM221.653 202.71C221.067 202.71 220.506 202.625 219.97 202.454C219.441 202.275 219.002 202.035 218.653 201.735L219.165 200.54C219.897 201.109 220.71 201.393 221.604 201.393C222.701 201.393 223.25 200.962 223.25 200.101C223.25 199.694 223.112 199.393 222.836 199.198C222.567 198.995 222.173 198.893 221.653 198.893H220.275V197.601H221.506C221.962 197.601 222.323 197.491 222.592 197.271C222.86 197.044 222.994 196.731 222.994 196.332C222.994 195.958 222.868 195.674 222.616 195.479C222.372 195.284 222.014 195.186 221.543 195.186C220.697 195.186 219.953 195.479 219.311 196.064L218.799 194.893C219.141 194.568 219.567 194.316 220.08 194.137C220.592 193.958 221.124 193.869 221.677 193.869C222.571 193.869 223.266 194.072 223.762 194.479C224.258 194.877 224.506 195.434 224.506 196.149C224.506 196.613 224.388 197.019 224.153 197.369C223.917 197.718 223.596 197.97 223.189 198.125C223.685 198.263 224.071 198.519 224.348 198.893C224.624 199.259 224.762 199.706 224.762 200.235C224.762 200.999 224.486 201.605 223.933 202.052C223.38 202.491 222.62 202.71 221.653 202.71ZM226.453 202.588V201.43L229.233 198.466C229.607 198.06 229.875 197.702 230.038 197.393C230.201 197.076 230.282 196.755 230.282 196.43C230.282 195.601 229.782 195.186 228.782 195.186C228.001 195.186 227.282 195.479 226.623 196.064L226.099 194.893C226.44 194.584 226.867 194.336 227.379 194.149C227.892 193.962 228.424 193.869 228.977 193.869C229.896 193.869 230.599 194.076 231.087 194.491C231.583 194.905 231.831 195.499 231.831 196.271C231.831 196.792 231.705 197.292 231.453 197.771C231.209 198.251 230.822 198.767 230.294 199.32L228.404 201.296H232.16V202.588H226.453Z" fill="#373B47"/>
<path d="M275.989 179C276.892 197.687 271.857 216.18 261.604 231.829L241.776 218.839C249.285 207.377 252.973 193.832 252.311 180.145L275.989 179Z" fill="#4BD7FF"/>
<path d="M203.573 96.1577C221.971 99.5519 238.822 108.683 251.712 122.244C264.602 135.804 272.867 153.097 275.325 171.643L251.825 174.757C250.025 161.173 243.971 148.507 234.531 138.575C225.09 128.643 212.747 121.955 199.272 119.469L203.573 96.1577Z" fill="#5F6FFF"/>
<path d="M101.067 202.719C97.9994 189.079 98.2034 174.907 101.662 161.361C105.122 147.814 111.737 135.279 120.969 124.78C130.201 114.281 141.787 106.115 154.779 100.952C167.771 95.788 181.801 93.7724 195.721 95.0698L193.522 118.672C183.326 117.722 173.05 119.198 163.534 122.981C154.018 126.763 145.533 132.743 138.771 140.433C132.01 148.123 127.164 157.304 124.63 167.225C122.097 177.147 121.947 187.527 124.194 197.518L101.067 202.719Z" fill="#F367FF"/>
<path d="M114.659 233.706C109.368 226.063 105.313 217.634 102.642 208.729L125.348 201.92C127.304 208.442 130.274 214.615 134.15 220.213L114.659 233.706Z" fill="#9579FF"/>
<path d="M191.732 271.771C177.767 272.439 163.843 269.792 151.097 264.047C138.351 258.302 127.146 249.622 118.397 238.717L136.887 223.884C143.295 231.871 151.502 238.228 160.838 242.436C170.173 246.644 180.372 248.582 190.6 248.093L191.732 271.771Z" fill="#84FF90"/>
<path d="M258.308 236.522C251.035 246.196 241.856 254.276 231.34 260.265C220.823 266.254 209.19 270.024 197.16 271.344L194.575 247.78C203.386 246.814 211.906 244.052 219.609 239.666C227.312 235.279 234.035 229.361 239.362 222.276L258.308 236.522Z" fill="#FF6242"/>
<g filter="url(#filter1_d_2416_2986)">
<rect x="93.1691" y="40.2376" width="187.944" height="35.7989" rx="17.8995" fill="#F4F7FF"/>
</g>
<path d="M113.925 61.0226V60.1102H115.294V56.2107L114.235 56.8477L113.804 56.0385L115.612 54.9539H116.396V60.1102H117.678V61.0226H113.925ZM119.431 61.0226V54.9539H120.352L122.504 58.9223L124.647 54.9539H125.551V61.0226H124.553V56.9338L122.814 60.1016H122.168L120.429 56.951V61.0226H119.431Z" fill="black"/>
<path d="M148.395 61.1087C147.644 61.1087 147.061 60.8447 146.648 60.3168C146.241 59.7888 146.037 59.0485 146.037 58.0959C146.037 57.0686 146.266 56.2738 146.726 55.7114C147.19 55.149 147.83 54.8678 148.645 54.8678C148.966 54.8678 149.285 54.9281 149.601 55.0486C149.916 55.1634 150.186 55.3298 150.41 55.5479L150.048 56.3743C149.836 56.1791 149.609 56.0357 149.368 55.9438C149.127 55.8463 148.88 55.7975 148.628 55.7975C148.129 55.7975 147.747 55.9725 147.483 56.3226C147.219 56.6727 147.087 57.1949 147.087 57.8893V58.1389C147.208 57.8233 147.403 57.5765 147.672 57.3986C147.942 57.2207 148.252 57.1318 148.602 57.1318C148.952 57.1318 149.262 57.215 149.532 57.3814C149.801 57.5478 150.014 57.7774 150.169 58.0701C150.324 58.3627 150.401 58.6984 150.401 59.0772C150.401 59.4674 150.315 59.8175 150.143 60.1274C149.977 60.4316 149.741 60.6726 149.437 60.8505C149.139 61.0226 148.791 61.1087 148.395 61.1087ZM148.335 60.2307C148.645 60.2307 148.895 60.1303 149.084 59.9294C149.279 59.7228 149.377 59.4531 149.377 59.1202C149.377 58.7874 149.279 58.5177 149.084 58.3111C148.895 58.1045 148.645 58.0012 148.335 58.0012C148.025 58.0012 147.773 58.1045 147.578 58.3111C147.388 58.5177 147.294 58.7874 147.294 59.1202C147.294 59.4531 147.388 59.7228 147.578 59.9294C147.773 60.1303 148.025 60.2307 148.335 60.2307ZM152.033 61.0226V54.9539H152.954L155.106 58.9223L157.25 54.9539H158.154V61.0226H157.155V56.9338L155.416 60.1016H154.771L153.032 56.951V61.0226H152.033Z" fill="black"/>
<path d="M179.13 61.0226V60.1102H180.499V56.2107L179.44 56.8477L179.01 56.0385L180.817 54.9539H181.601V60.1102H182.883V61.0226H179.13ZM186.065 61.0226V58.2336L183.732 54.9539H185.015L186.633 57.2523L188.26 54.9539H189.491L187.167 58.2422V61.0226H186.065Z" fill="black"/>
<rect x="208.876" y="47.9086" width="52.4198" height="20.4565" rx="10.2283" fill="white"/>
<path d="M215.916 61.0228L218.363 55.6146H219.169L221.616 61.0228H220.619L220.082 59.7724H217.443L216.914 61.0228H215.916ZM218.755 56.6809L217.78 58.99H219.744L218.77 56.6809H218.755ZM222.745 61.0228V55.6146H223.727V60.1867H226.32V61.0228H222.745ZM227.589 61.0228V55.6146H228.571V60.1867H231.164V61.0228H227.589ZM236.343 61.0228V56.4355H234.486V55.6146H239.181V56.4355H237.325V61.0228H236.343ZM240.34 61.0228V55.6146H241.322V61.0228H240.34ZM243.05 61.0228V55.6146H243.871L245.788 59.1511L247.699 55.6146H248.504V61.0228H247.614V57.379L246.065 60.202H245.489L243.94 57.3944V61.0228H243.05ZM250.231 61.0228V55.6146H253.829V56.3971H251.175V57.8853H253.66V58.6678H251.175V60.2404H253.829V61.0228H250.231Z" fill="#0E61FE"/>
<rect x="2" y="18" width="375" height="286" fill="url(#paint0_linear_2416_2986)"/>
<defs>
<filter id="filter0_d_2416_2986" x="0" y="0" width="375" height="324.068" filterUnits="userSpaceOnUse" color-interpolation-filters="sRGB">
<feFlood flood-opacity="0" result="BackgroundImageFix"/>
<feColorMatrix in="SourceAlpha" type="matrix" values="0 0 0 0 0 0 0 0 0 0 0 0 0 0 0 0 0 0 127 0" result="hardAlpha"/>
<feOffset dy="2"/>
<feGaussianBlur stdDeviation="10"/>
<feComposite in2="hardAlpha" operator="out"/>
<feColorMatrix type="matrix" values="0 0 0 0 0 0 0 0 0 0 0 0 0 0 0 0 0 0 0.1 0"/>
<feBlend mode="normal" in2="BackgroundImageFix" result="effect1_dropShadow_2416_2986"/>
<feBlend mode="normal" in="SourceGraphic" in2="effect1_dropShadow_2416_2986" result="shape"/>
</filter>
<filter id="filter1_d_2416_2986" x="78.8222" y="28.7601" width="216.638" height="64.4927" filterUnits="userSpaceOnUse" color-interpolation-filters="sRGB">
<feFlood flood-opacity="0" result="BackgroundImageFix"/>
<feColorMatrix in="SourceAlpha" type="matrix" values="0 0 0 0 0 0 0 0 0 0 0 0 0 0 0 0 0 0 127 0" result="hardAlpha"/>
<feOffset dy="2.86938"/>
<feGaussianBlur stdDeviation="7.17345"/>
<feComposite in2="hardAlpha" operator="out"/>
<feColorMatrix type="matrix" values="0 0 0 0 0 0 0 0 0 0 0 0 0 0 0 0 0 0 0.15 0"/>
<feBlend mode="normal" in2="BackgroundImageFix" result="effect1_dropShadow_2416_2986"/>
<feBlend mode="normal" in="SourceGraphic" in2="effect1_dropShadow_2416_2986" result="shape"/>
</filter>
<linearGradient id="paint0_linear_2416_2986" x1="189.5" y1="18" x2="189.5" y2="304" gradientUnits="userSpaceOnUse">
<stop stop-color="#494949" stop-opacity="0"/>
<stop offset="1" stop-color="#494949"/>
</linearGradient>
</defs>
</svg>
