<svg width="375" height="400" viewBox="0 0 375 400" fill="none" xmlns="http://www.w3.org/2000/svg">
<g filter="url(#filter0_d_1988_3578)">
<rect x="20" y="40" width="335" height="284.069" rx="22.955" fill="white"/>
</g>
<path d="M177.985 184.861V177.781H178.859L181.48 182.672L184.091 177.781H184.945V184.861H184.011V179.669L181.791 183.776H181.159L178.929 179.689V184.861H177.985ZM188.855 184.861L185.731 177.781H186.846L189.327 183.545L191.807 177.781H192.872L189.749 184.861H188.855ZM193.647 184.861V177.781H196.58C197.343 177.781 197.932 177.971 198.347 178.353C198.762 178.728 198.97 179.257 198.97 179.94C198.97 180.629 198.762 181.165 198.347 181.547C197.932 181.922 197.343 182.109 196.58 182.109H194.692V184.861H193.647ZM194.692 181.276H196.429C197.447 181.276 197.955 180.83 197.955 179.94C197.955 179.056 197.447 178.614 196.429 178.614H194.692V181.276Z" fill="#AAAED6"/>
<path d="M161.887 201.285C161.331 201.285 160.822 201.215 160.36 201.075C159.898 200.927 159.507 200.723 159.185 200.462L159.517 199.638C159.852 199.893 160.21 200.084 160.591 200.211C160.973 200.338 161.405 200.402 161.887 200.402C162.456 200.402 162.874 200.301 163.142 200.1C163.417 199.893 163.554 199.625 163.554 199.297C163.554 199.029 163.457 198.818 163.263 198.664C163.069 198.504 162.744 198.376 162.289 198.283L161.214 198.062C160.578 197.928 160.103 197.707 159.788 197.399C159.48 197.091 159.326 196.676 159.326 196.154C159.326 195.732 159.436 195.36 159.657 195.039C159.885 194.717 160.2 194.47 160.601 194.296C161.003 194.115 161.465 194.024 161.987 194.024C162.469 194.024 162.915 194.098 163.323 194.245C163.738 194.386 164.09 194.594 164.377 194.868L164.036 195.661C163.467 195.159 162.781 194.908 161.977 194.908C161.482 194.908 161.087 195.019 160.792 195.24C160.504 195.461 160.36 195.755 160.36 196.123C160.36 196.405 160.451 196.629 160.632 196.796C160.812 196.964 161.114 197.091 161.535 197.178L162.6 197.399C163.269 197.539 163.768 197.757 164.096 198.052C164.424 198.34 164.588 198.731 164.588 199.227C164.588 199.642 164.478 200.003 164.257 200.311C164.036 200.619 163.725 200.86 163.323 201.034C162.921 201.202 162.443 201.285 161.887 201.285ZM168.847 201.285C168.171 201.285 167.585 201.138 167.09 200.844C166.594 200.542 166.209 200.12 165.935 199.578C165.667 199.029 165.533 198.386 165.533 197.65C165.533 196.907 165.667 196.264 165.935 195.722C166.209 195.179 166.594 194.761 167.09 194.466C167.585 194.172 168.171 194.024 168.847 194.024C169.517 194.024 170.099 194.172 170.595 194.466C171.097 194.761 171.482 195.179 171.75 195.722C172.024 196.264 172.161 196.903 172.161 197.64C172.161 198.383 172.024 199.029 171.75 199.578C171.482 200.12 171.097 200.542 170.595 200.844C170.099 201.138 169.517 201.285 168.847 201.285ZM168.847 200.382C169.55 200.382 170.096 200.144 170.484 199.669C170.879 199.187 171.077 198.514 171.077 197.65C171.077 196.786 170.883 196.117 170.494 195.641C170.106 195.166 169.557 194.928 168.847 194.928C168.144 194.928 167.595 195.166 167.2 195.641C166.812 196.117 166.618 196.786 166.618 197.65C166.618 198.514 166.812 199.187 167.2 199.669C167.595 200.144 168.144 200.382 168.847 200.382ZM173.561 201.195V194.115H174.606V200.301H178.111V201.195H173.561ZM179.102 201.195V194.115H180.147V201.195H179.102ZM181.78 201.195V194.115H184.281C185.446 194.115 186.343 194.42 186.972 195.029C187.608 195.638 187.926 196.512 187.926 197.65C187.926 198.788 187.608 199.665 186.972 200.281C186.343 200.89 185.446 201.195 184.281 201.195H181.78ZM182.824 200.321H184.22C185.968 200.321 186.841 199.431 186.841 197.65C186.841 195.876 185.968 194.989 184.22 194.989H182.824V200.321ZM191.96 201.195V194.115H194.461C195.626 194.115 196.523 194.42 197.152 195.029C197.788 195.638 198.106 196.512 198.106 197.65C198.106 198.788 197.788 199.665 197.152 200.281C196.523 200.89 195.626 201.195 194.461 201.195H191.96ZM193.004 200.321H194.4C196.148 200.321 197.022 199.431 197.022 197.65C197.022 195.876 196.148 194.989 194.4 194.989H193.004V200.321ZM199.502 201.195V194.115H204.081V194.958H200.506V197.178H203.871V198.022H200.506V200.351H204.081V201.195H199.502ZM207.606 201.195L204.483 194.115H205.598L208.078 199.879L210.559 194.115H211.624L208.5 201.195H207.606ZM214.641 201.285C214.085 201.285 213.577 201.215 213.115 201.075C212.653 200.927 212.261 200.723 211.94 200.462L212.271 199.638C212.606 199.893 212.964 200.084 213.346 200.211C213.727 200.338 214.159 200.402 214.641 200.402C215.21 200.402 215.629 200.301 215.896 200.1C216.171 199.893 216.308 199.625 216.308 199.297C216.308 199.029 216.211 198.818 216.017 198.664C215.823 198.504 215.498 198.376 215.043 198.283L213.968 198.062C213.332 197.928 212.857 197.707 212.542 197.399C212.234 197.091 212.08 196.676 212.08 196.154C212.08 195.732 212.191 195.36 212.412 195.039C212.639 194.717 212.954 194.47 213.356 194.296C213.757 194.115 214.219 194.024 214.742 194.024C215.224 194.024 215.669 194.098 216.077 194.245C216.492 194.386 216.844 194.594 217.132 194.868L216.79 195.661C216.221 195.159 215.535 194.908 214.732 194.908C214.236 194.908 213.841 195.019 213.546 195.24C213.259 195.461 213.115 195.755 213.115 196.123C213.115 196.405 213.205 196.629 213.386 196.796C213.567 196.964 213.868 197.091 214.29 197.178L215.354 197.399C216.024 197.539 216.522 197.757 216.851 198.052C217.179 198.34 217.343 198.731 217.343 199.227C217.343 199.642 217.232 200.003 217.011 200.311C216.79 200.619 216.479 200.86 216.077 201.034C215.676 201.202 215.197 201.285 214.641 201.285Z" fill="#AAAED6"/>
<path d="M146.451 225.991V224.649C145.915 224.609 145.407 224.511 144.927 224.357C144.455 224.194 144.045 223.971 143.695 223.686L144.171 222.454C144.553 222.739 144.972 222.958 145.427 223.113C145.882 223.267 146.382 223.345 146.927 223.345C147.52 223.345 147.955 223.239 148.232 223.027C148.508 222.816 148.646 222.552 148.646 222.235C148.646 221.95 148.553 221.723 148.366 221.552C148.179 221.381 147.846 221.243 147.366 221.137L146.073 220.857C145.342 220.694 144.789 220.426 144.415 220.052C144.049 219.67 143.866 219.166 143.866 218.54C143.866 217.857 144.098 217.284 144.561 216.82C145.033 216.349 145.663 216.064 146.451 215.967V214.589H147.671V215.954C148.094 215.995 148.504 216.097 148.902 216.259C149.301 216.422 149.638 216.641 149.915 216.918L149.451 218.089C148.833 217.519 148.045 217.235 147.085 217.235C146.581 217.235 146.175 217.353 145.866 217.589C145.565 217.816 145.415 218.117 145.415 218.491C145.415 218.767 145.508 218.991 145.695 219.162C145.882 219.332 146.183 219.462 146.598 219.552L147.89 219.832C148.671 220.003 149.248 220.275 149.622 220.649C150.004 221.015 150.195 221.503 150.195 222.113C150.195 222.796 149.959 223.357 149.488 223.796C149.024 224.227 148.419 224.499 147.671 224.613V225.991H146.451ZM151.568 224.588V223.43L154.349 220.467C154.723 220.06 154.991 219.702 155.154 219.393C155.316 219.076 155.398 218.755 155.398 218.43C155.398 217.601 154.898 217.186 153.898 217.186C153.117 217.186 152.398 217.479 151.739 218.064L151.215 216.893C151.556 216.584 151.983 216.337 152.495 216.15C153.007 215.963 153.54 215.869 154.093 215.869C155.011 215.869 155.715 216.076 156.202 216.491C156.698 216.906 156.946 217.499 156.946 218.271C156.946 218.792 156.82 219.292 156.568 219.771C156.324 220.251 155.938 220.767 155.41 221.32L153.52 223.296H157.276V224.588H151.568ZM161.563 224.71C160.547 224.71 159.771 224.328 159.234 223.564C158.698 222.792 158.429 221.694 158.429 220.271C158.429 218.832 158.698 217.739 159.234 216.991C159.771 216.243 160.547 215.869 161.563 215.869C162.588 215.869 163.364 216.243 163.893 216.991C164.429 217.739 164.698 218.828 164.698 220.259C164.698 221.69 164.429 222.792 163.893 223.564C163.356 224.328 162.58 224.71 161.563 224.71ZM161.563 223.43C162.116 223.43 162.523 223.178 162.783 222.674C163.051 222.162 163.185 221.357 163.185 220.259C163.185 219.17 163.051 218.381 162.783 217.893C162.523 217.397 162.116 217.15 161.563 217.15C161.019 217.15 160.612 217.397 160.344 217.893C160.076 218.381 159.942 219.17 159.942 220.259C159.942 221.357 160.076 222.162 160.344 222.674C160.612 223.178 161.019 223.43 161.563 223.43ZM166.62 226.21L165.998 225.723C166.201 225.519 166.351 225.324 166.449 225.137C166.554 224.958 166.628 224.775 166.668 224.588H165.876V222.893H167.583V224.015C167.583 224.43 167.51 224.808 167.363 225.149C167.225 225.499 166.977 225.853 166.62 226.21ZM169.218 224.588V223.43L171.998 220.467C172.372 220.06 172.64 219.702 172.803 219.393C172.965 219.076 173.047 218.755 173.047 218.43C173.047 217.601 172.547 217.186 171.547 217.186C170.766 217.186 170.047 217.479 169.388 218.064L168.864 216.893C169.205 216.584 169.632 216.337 170.144 216.15C170.657 215.963 171.189 215.869 171.742 215.869C172.661 215.869 173.364 216.076 173.852 216.491C174.348 216.906 174.596 217.499 174.596 218.271C174.596 218.792 174.47 219.292 174.218 219.771C173.974 220.251 173.587 220.767 173.059 221.32L171.169 223.296H174.925V224.588H169.218ZM176.883 224.588V223.296H178.822V217.771L177.322 218.674L176.713 217.528L179.274 215.991H180.383V223.296H182.2V224.588H176.883ZM186.525 224.71C185.509 224.71 184.732 224.328 184.196 223.564C183.659 222.792 183.391 221.694 183.391 220.271C183.391 218.832 183.659 217.739 184.196 216.991C184.732 216.243 185.509 215.869 186.525 215.869C187.549 215.869 188.326 216.243 188.854 216.991C189.391 217.739 189.659 218.828 189.659 220.259C189.659 221.69 189.391 222.792 188.854 223.564C188.317 224.328 187.541 224.71 186.525 224.71ZM186.525 223.43C187.078 223.43 187.484 223.178 187.744 222.674C188.013 222.162 188.147 221.357 188.147 220.259C188.147 219.17 188.013 218.381 187.744 217.893C187.484 217.397 187.078 217.15 186.525 217.15C185.98 217.15 185.574 217.397 185.305 217.893C185.037 218.381 184.903 219.17 184.903 220.259C184.903 221.357 185.037 222.162 185.305 222.674C185.574 223.178 185.98 223.43 186.525 223.43ZM191.581 226.21L190.959 225.723C191.162 225.519 191.313 225.324 191.41 225.137C191.516 224.958 191.589 224.775 191.63 224.588H190.837V222.893H192.544V224.015C192.544 224.43 192.471 224.808 192.325 225.149C192.187 225.499 191.939 225.853 191.581 226.21ZM194.179 224.588V223.43L196.959 220.467C197.333 220.06 197.602 219.702 197.764 219.393C197.927 219.076 198.008 218.755 198.008 218.43C198.008 217.601 197.508 217.186 196.508 217.186C195.728 217.186 195.008 217.479 194.35 218.064L193.825 216.893C194.167 216.584 194.594 216.337 195.106 216.15C195.618 215.963 196.15 215.869 196.703 215.869C197.622 215.869 198.325 216.076 198.813 216.491C199.309 216.906 199.557 217.499 199.557 218.271C199.557 218.792 199.431 219.292 199.179 219.771C198.935 220.251 198.549 220.767 198.02 221.32L196.13 223.296H199.886V224.588H194.179ZM204.003 224.71C203.418 224.71 202.857 224.625 202.32 224.454C201.792 224.275 201.353 224.036 201.003 223.735L201.516 222.54C202.247 223.109 203.06 223.393 203.954 223.393C205.052 223.393 205.601 222.962 205.601 222.101C205.601 221.694 205.463 221.393 205.186 221.198C204.918 220.995 204.524 220.893 204.003 220.893H202.625V219.601H203.857C204.312 219.601 204.674 219.491 204.942 219.271C205.211 219.044 205.345 218.731 205.345 218.332C205.345 217.958 205.219 217.674 204.967 217.479C204.723 217.284 204.365 217.186 203.894 217.186C203.048 217.186 202.304 217.479 201.662 218.064L201.15 216.893C201.491 216.568 201.918 216.316 202.43 216.137C202.942 215.958 203.475 215.869 204.028 215.869C204.922 215.869 205.617 216.072 206.113 216.479C206.609 216.877 206.857 217.434 206.857 218.149C206.857 218.613 206.739 219.019 206.503 219.369C206.267 219.719 205.946 219.971 205.54 220.125C206.036 220.263 206.422 220.519 206.698 220.893C206.975 221.259 207.113 221.706 207.113 222.235C207.113 222.999 206.837 223.605 206.284 224.052C205.731 224.491 204.971 224.71 204.003 224.71ZM211.486 224.71C210.47 224.71 209.693 224.328 209.157 223.564C208.62 222.792 208.352 221.694 208.352 220.271C208.352 218.832 208.62 217.739 209.157 216.991C209.693 216.243 210.47 215.869 211.486 215.869C212.511 215.869 213.287 216.243 213.815 216.991C214.352 217.739 214.62 218.828 214.62 220.259C214.62 221.69 214.352 222.792 213.815 223.564C213.279 224.328 212.502 224.71 211.486 224.71ZM211.486 223.43C212.039 223.43 212.445 223.178 212.706 222.674C212.974 222.162 213.108 221.357 213.108 220.259C213.108 219.17 212.974 218.381 212.706 217.893C212.445 217.397 212.039 217.15 211.486 217.15C210.941 217.15 210.535 217.397 210.267 217.893C209.998 218.381 209.864 219.17 209.864 220.259C209.864 221.357 209.998 222.162 210.267 222.674C210.535 223.178 210.941 223.43 211.486 223.43ZM215.798 224.588V222.893H217.506V224.588H215.798ZM221.652 224.71C221.067 224.71 220.506 224.625 219.97 224.454C219.441 224.275 219.002 224.036 218.653 223.735L219.165 222.54C219.896 223.109 220.709 223.393 221.604 223.393C222.701 223.393 223.25 222.962 223.25 222.101C223.25 221.694 223.112 221.393 222.835 221.198C222.567 220.995 222.173 220.893 221.652 220.893H220.274V219.601H221.506C221.961 219.601 222.323 219.491 222.591 219.271C222.86 219.044 222.994 218.731 222.994 218.332C222.994 217.958 222.868 217.674 222.616 217.479C222.372 217.284 222.014 217.186 221.543 217.186C220.697 217.186 219.953 217.479 219.311 218.064L218.799 216.893C219.14 216.568 219.567 216.316 220.079 216.137C220.592 215.958 221.124 215.869 221.677 215.869C222.571 215.869 223.266 216.072 223.762 216.479C224.258 216.877 224.506 217.434 224.506 218.149C224.506 218.613 224.388 219.019 224.152 219.369C223.917 219.719 223.596 219.971 223.189 220.125C223.685 220.263 224.071 220.519 224.348 220.893C224.624 221.259 224.762 221.706 224.762 222.235C224.762 222.999 224.486 223.605 223.933 224.052C223.38 224.491 222.62 224.71 221.652 224.71ZM226.452 224.588V223.43L229.233 220.467C229.607 220.06 229.875 219.702 230.038 219.393C230.2 219.076 230.282 218.755 230.282 218.43C230.282 217.601 229.782 217.186 228.782 217.186C228.001 217.186 227.282 217.479 226.623 218.064L226.099 216.893C226.44 216.584 226.867 216.337 227.379 216.15C227.891 215.963 228.424 215.869 228.977 215.869C229.895 215.869 230.599 216.076 231.087 216.491C231.582 216.906 231.83 217.499 231.83 218.271C231.83 218.792 231.704 219.292 231.452 219.771C231.208 220.251 230.822 220.767 230.294 221.32L228.404 223.296H232.16V224.588H226.452Z" fill="#373B47"/>
<path d="M275.989 201C276.892 219.687 271.857 238.18 261.604 253.829L241.776 240.839C249.285 229.377 252.973 215.832 252.311 202.145L275.989 201Z" fill="#4BD7FF"/>
<path d="M203.572 118.158C221.971 121.552 238.822 130.683 251.712 144.244C264.601 157.804 272.867 175.097 275.325 193.643L251.825 196.757C250.025 183.173 243.971 170.507 234.53 160.575C225.09 150.643 212.747 143.955 199.272 141.469L203.572 118.158Z" fill="#5F6FFF"/>
<path d="M101.067 224.719C97.9993 211.079 98.2033 196.907 101.662 183.361C105.121 169.814 111.737 157.279 120.969 146.78C130.201 136.281 141.787 128.115 154.779 122.952C167.771 117.788 181.801 115.772 195.721 117.07L193.522 140.672C183.326 139.722 173.05 141.198 163.534 144.981C154.018 148.763 145.533 154.743 138.771 162.433C132.01 170.123 127.164 179.304 124.63 189.225C122.097 199.147 121.947 209.527 124.194 219.518L101.067 224.719Z" fill="#F367FF"/>
<path d="M114.659 255.706C109.368 248.062 105.313 239.634 102.642 230.729L125.348 223.919C127.304 230.441 130.274 236.615 134.15 242.213L114.659 255.706Z" fill="#9579FF"/>
<path d="M191.732 293.771C177.767 294.439 163.843 291.792 151.097 286.047C138.351 280.302 127.146 271.622 118.397 260.717L136.887 245.884C143.295 253.871 151.502 260.228 160.837 264.436C170.173 268.644 180.372 270.582 190.6 270.093L191.732 293.771Z" fill="#84FF90"/>
<path d="M258.308 258.522C251.035 268.196 241.856 276.276 231.34 282.265C220.823 288.254 209.19 292.024 197.16 293.344L194.575 269.78C203.386 268.814 211.906 266.052 219.609 261.666C227.312 257.279 234.035 251.361 239.362 244.276L258.308 258.522Z" fill="#FF6242"/>
<g filter="url(#filter1_d_1988_3578)">
<rect x="93.169" y="62.2375" width="187.944" height="35.7989" rx="17.8995" fill="#F4F7FF"/>
</g>
<path d="M113.925 83.0227V82.1102H115.293V78.2108L114.235 78.8478L113.804 78.0386L115.612 76.954H116.395V82.1102H117.678V83.0227H113.925ZM119.431 83.0227V76.954H120.352L122.504 80.9223L124.647 76.954H125.551V83.0227H124.552V78.9338L122.814 82.1016H122.168L120.429 78.9511V83.0227H119.431Z" fill="black"/>
<path d="M148.395 83.1088C147.644 83.1088 147.061 82.8448 146.648 82.3168C146.241 81.7889 146.037 81.0486 146.037 80.0959C146.037 79.0687 146.266 78.2739 146.725 77.7115C147.19 77.1491 147.83 76.8679 148.645 76.8679C148.966 76.8679 149.285 76.9281 149.601 77.0487C149.916 77.1634 150.186 77.3299 150.41 77.5479L150.048 78.3743C149.836 78.1792 149.609 78.0357 149.368 77.9439C149.127 77.8463 148.88 77.7976 148.628 77.7976C148.129 77.7976 147.747 77.9726 147.483 78.3227C147.219 78.6727 147.087 79.195 147.087 79.8893V80.139C147.208 79.8233 147.403 79.5766 147.672 79.3987C147.942 79.2208 148.252 79.1318 148.602 79.1318C148.952 79.1318 149.262 79.215 149.532 79.3815C149.801 79.5479 150.014 79.7774 150.169 80.0701C150.324 80.3628 150.401 80.6985 150.401 81.0773C150.401 81.4675 150.315 81.8176 150.143 82.1275C149.976 82.4316 149.741 82.6726 149.437 82.8505C149.139 83.0227 148.791 83.1088 148.395 83.1088ZM148.335 82.2308C148.645 82.2308 148.895 82.1303 149.084 81.9295C149.279 81.7229 149.377 81.4532 149.377 81.1203C149.377 80.7875 149.279 80.5177 149.084 80.3111C148.895 80.1045 148.645 80.0012 148.335 80.0012C148.025 80.0012 147.773 80.1045 147.578 80.3111C147.388 80.5177 147.294 80.7875 147.294 81.1203C147.294 81.4532 147.388 81.7229 147.578 81.9295C147.773 82.1303 148.025 82.2308 148.335 82.2308ZM152.033 83.0227V76.954H152.954L155.106 80.9223L157.25 76.954H158.154V83.0227H157.155V78.9338L155.416 82.1016H154.771L153.032 78.9511V83.0227H152.033Z" fill="black"/>
<path d="M179.13 83.0227V82.1102H180.499V78.2108L179.44 78.8478L179.01 78.0386L180.817 76.954H181.601V82.1102H182.883V83.0227H179.13ZM186.065 83.0227V80.2337L183.732 76.954H185.015L186.633 79.2523L188.26 76.954H189.491L187.167 80.2423V83.0227H186.065Z" fill="black"/>
<rect x="208.876" y="69.9087" width="52.4198" height="20.4565" rx="10.2283" fill="white"/>
<path d="M215.916 83.0229L218.363 77.6148H219.169L221.616 83.0229H220.619L220.082 81.7725H217.443L216.913 83.0229H215.916ZM218.755 78.6811L217.78 80.9901H219.744L218.77 78.6811H218.755ZM222.745 83.0229V77.6148H223.727V82.1868H226.319V83.0229H222.745ZM227.589 83.0229V77.6148H228.571V82.1868H231.164V83.0229H227.589ZM236.342 83.0229V78.4356H234.486V77.6148H239.181V78.4356H237.324V83.0229H236.342ZM240.34 83.0229V77.6148H241.322V83.0229H240.34ZM243.05 83.0229V77.6148H243.871L245.788 81.1512L247.698 77.6148H248.504V83.0229H247.614V79.3791L246.065 82.2021H245.489L243.94 79.3945V83.0229H243.05ZM250.231 83.0229V77.6148H253.829V78.3972H251.175V79.8854H253.66V80.6679H251.175V82.2405H253.829V83.0229H250.231Z" fill="#0E61FE"/>
<rect width="375" height="400" fill="url(#paint0_linear_1988_3578)"/>
<defs>
<filter id="filter0_d_1988_3578" x="0" y="22" width="375" height="324.069" filterUnits="userSpaceOnUse" color-interpolation-filters="sRGB">
<feFlood flood-opacity="0" result="BackgroundImageFix"/>
<feColorMatrix in="SourceAlpha" type="matrix" values="0 0 0 0 0 0 0 0 0 0 0 0 0 0 0 0 0 0 127 0" result="hardAlpha"/>
<feOffset dy="2"/>
<feGaussianBlur stdDeviation="10"/>
<feComposite in2="hardAlpha" operator="out"/>
<feColorMatrix type="matrix" values="0 0 0 0 0 0 0 0 0 0 0 0 0 0 0 0 0 0 0.1 0"/>
<feBlend mode="normal" in2="BackgroundImageFix" result="effect1_dropShadow_1988_3578"/>
<feBlend mode="normal" in="SourceGraphic" in2="effect1_dropShadow_1988_3578" result="shape"/>
</filter>
<filter id="filter1_d_1988_3578" x="78.8221" y="50.76" width="216.638" height="64.4926" filterUnits="userSpaceOnUse" color-interpolation-filters="sRGB">
<feFlood flood-opacity="0" result="BackgroundImageFix"/>
<feColorMatrix in="SourceAlpha" type="matrix" values="0 0 0 0 0 0 0 0 0 0 0 0 0 0 0 0 0 0 127 0" result="hardAlpha"/>
<feOffset dy="2.86938"/>
<feGaussianBlur stdDeviation="7.17345"/>
<feComposite in2="hardAlpha" operator="out"/>
<feColorMatrix type="matrix" values="0 0 0 0 0 0 0 0 0 0 0 0 0 0 0 0 0 0 0.15 0"/>
<feBlend mode="normal" in2="BackgroundImageFix" result="effect1_dropShadow_1988_3578"/>
<feBlend mode="normal" in="SourceGraphic" in2="effect1_dropShadow_1988_3578" result="shape"/>
</filter>
<linearGradient id="paint0_linear_1988_3578" x1="187.5" y1="0" x2="187.5" y2="400" gradientUnits="userSpaceOnUse">
<stop stop-color="#494949" stop-opacity="0"/>
<stop offset="1" stop-color="#494949"/>
</linearGradient>
</defs>
</svg>
