<svg width="54" height="54" viewBox="0 0 54 54" fill="none" xmlns="http://www.w3.org/2000/svg">
<circle cx="26.9265" cy="26.9265" r="26.9265" fill="white"/>
<path d="M33.6473 15.254C32.5155 15.134 31.3781 15.0755 30.24 15.079C26.4669 15.079 24.122 17.4822 24.122 21.3506V23.9771H20.9526C20.8038 23.9771 20.6611 24.0362 20.5559 24.1414C20.4507 24.2466 20.3916 24.3893 20.3916 24.538V28.8575C20.3916 29.0063 20.4507 29.149 20.5559 29.2542C20.6611 29.3594 20.8038 29.4185 20.9526 29.4185H24.122V38.0798C24.122 38.2286 24.1811 38.3713 24.2863 38.4765C24.3915 38.5817 24.5342 38.6408 24.683 38.6408H29.1461C29.2948 38.6408 29.4375 38.5817 29.5427 38.4765C29.6479 38.3713 29.707 38.2286 29.707 38.0798V29.4185H32.8664C33.0026 29.4185 33.1342 29.369 33.2366 29.2792C33.339 29.1894 33.4052 29.0655 33.4229 28.9304L33.9805 24.611C33.9909 24.5318 33.9842 24.4513 33.961 24.3749C33.9378 24.2985 33.8985 24.228 33.8458 24.168C33.7932 24.1079 33.7283 24.0599 33.6555 24.027C33.5828 23.994 33.5039 23.977 33.424 23.9771H29.707V21.7792C29.707 20.6909 29.9258 20.2365 31.2867 20.2365H33.5743C33.7231 20.2365 33.8658 20.1774 33.971 20.0722C34.0762 19.967 34.1353 19.8244 34.1353 19.6756V15.8105C34.1354 15.6743 34.0859 15.5427 33.9961 15.4404C33.9063 15.338 33.7823 15.2717 33.6473 15.254ZM33.0134 19.1135L31.2856 19.1146C28.8656 19.1146 28.5851 20.636 28.5851 21.7792V24.5392C28.5851 24.6877 28.644 24.8303 28.749 24.9354C28.854 25.0406 28.9964 25.0998 29.1449 25.1001H32.7867L32.3728 28.2976H29.1461C28.9973 28.2976 28.8546 28.3567 28.7494 28.462C28.6442 28.5672 28.5851 28.7098 28.5851 28.8586V37.5177H25.244V28.8586C25.244 28.7098 25.1849 28.5672 25.0797 28.462C24.9745 28.3567 24.8318 28.2976 24.683 28.2976H21.5147V25.1001H24.683C24.8318 25.1001 24.9745 25.041 25.0797 24.9358C25.1849 24.8306 25.244 24.6879 25.244 24.5392V21.3506C25.244 18.1262 27.112 16.2009 30.24 16.2009C31.372 16.2009 32.3941 16.2626 33.0134 16.3165V19.1135Z" fill="#6298FF"/>
</svg>
