<svg width="55" height="54" viewBox="0 0 55 54" fill="none" xmlns="http://www.w3.org/2000/svg">
<circle cx="27.6325" cy="26.9265" r="26.9265" fill="white"/>
<path d="M22.5837 23.5612H18.0959C17.9471 23.5612 17.8045 23.6203 17.6993 23.7255C17.5941 23.8307 17.535 23.9734 17.535 24.1222V37.5854C17.535 37.7342 17.5941 37.8769 17.6993 37.9821C17.8045 38.0873 17.9471 38.1464 18.0959 38.1464H22.5837C22.7324 38.1464 22.8751 38.0873 22.9803 37.9821C23.0855 37.8769 23.1446 37.7342 23.1446 37.5854V24.1222C23.1446 23.9734 23.0855 23.8307 22.9803 23.7255C22.8751 23.6203 22.7324 23.5612 22.5837 23.5612ZM22.0227 37.0244H18.6569V24.6831H22.0227V37.0244ZM34.364 23.5612C33.1467 23.5612 31.963 23.9629 30.9982 24.7045V24.1222C30.9982 23.9734 30.9391 23.8307 30.8339 23.7255C30.7287 23.6203 30.586 23.5612 30.4372 23.5612H25.9495C25.8007 23.5612 25.658 23.6203 25.5528 23.7255C25.4476 23.8307 25.3885 23.9734 25.3885 24.1222V37.5854C25.3885 37.7342 25.4476 37.8769 25.5528 37.9821C25.658 38.0873 25.8007 38.1464 25.9495 38.1464H30.4372C30.586 38.1464 30.7287 38.0873 30.8339 37.9821C30.9391 37.8769 30.9982 37.7342 30.9982 37.5854V31.4148C30.9982 30.9684 31.1755 30.5404 31.4911 30.2248C31.8067 29.9092 32.2347 29.7318 32.6811 29.7318C33.1274 29.7318 33.5555 29.9092 33.8711 30.2248C34.1867 30.5404 34.364 30.9684 34.364 31.4148V37.5854C34.364 37.7342 34.4231 37.8769 34.5283 37.9821C34.6335 38.0873 34.7762 38.1464 34.925 38.1464H39.4127C39.5615 38.1464 39.7042 38.0873 39.8094 37.9821C39.9146 37.8769 39.9737 37.7342 39.9737 37.5854V29.1709C39.9719 27.6836 39.3803 26.2578 38.3287 25.2062C37.277 24.1546 35.8512 23.563 34.364 23.5612ZM38.8517 37.0244H35.4859V31.4148C35.4859 30.6709 35.1904 29.9574 34.6644 29.4314C34.1384 28.9054 33.425 28.6099 32.6811 28.6099C31.9372 28.6099 31.2238 28.9054 30.6978 29.4314C30.1718 29.9574 29.8762 30.6709 29.8762 31.4148V37.0244H26.5104V24.6831H29.8762V26.0328C29.8762 26.149 29.9123 26.2623 29.9794 26.3572C30.0466 26.452 30.1415 26.5236 30.2511 26.5621C30.3607 26.6007 30.4796 26.6043 30.5913 26.5723C30.703 26.5404 30.8021 26.4746 30.8748 26.384C31.4509 25.6537 32.2406 25.1214 33.1337 24.8613C34.0268 24.6012 34.9788 24.6264 35.8569 24.9331C36.7351 25.2399 37.4956 25.8131 38.0325 26.5728C38.5693 27.3324 38.8557 28.2407 38.8517 29.1709V37.0244ZM20.7527 15.7099C20.6208 15.7006 20.4885 15.6999 20.3566 15.7077C19.9368 15.6791 19.5155 15.737 19.1189 15.8779C18.7224 16.0188 18.359 16.2396 18.0512 16.5266C17.7435 16.8136 17.4979 17.1608 17.3298 17.5466C17.1617 17.9324 17.0746 18.3486 17.0738 18.7694C17.0704 19.1859 17.1525 19.5986 17.3151 19.982C17.4777 20.3654 17.7173 20.7113 18.0191 20.9982C18.3209 21.2852 18.6784 21.5071 19.0695 21.6502C19.4606 21.7933 19.8769 21.8545 20.2927 21.8301H20.3241C20.7259 21.8582 21.1294 21.8069 21.5114 21.6791C21.8935 21.5513 22.2466 21.3496 22.5507 21.0853C22.8547 20.821 23.1037 20.4995 23.2835 20.139C23.4633 19.7785 23.5703 19.3861 23.5985 18.9843C23.6266 18.5824 23.5753 18.1789 23.4475 17.7969C23.3197 17.4149 23.118 17.0618 22.8537 16.7577C22.5894 16.4536 22.2679 16.2046 21.9074 16.0248C21.5469 15.8451 21.1545 15.738 20.7527 15.7099ZM20.7134 20.7115C20.5838 20.7233 20.4534 20.7221 20.3241 20.7081H20.2927C20.0227 20.7284 19.7514 20.6922 19.4961 20.6017C19.2409 20.5113 19.0073 20.3686 18.8103 20.1829C18.6134 19.9971 18.4573 19.7723 18.352 19.5228C18.2468 19.2733 18.1948 19.0046 18.1993 18.7338C18.2037 18.4631 18.2646 18.1962 18.378 17.9503C18.4914 17.7044 18.6548 17.4849 18.8578 17.3057C19.0608 17.1265 19.2989 16.9916 19.557 16.9096C19.8151 16.8277 20.0874 16.8004 20.3566 16.8296C20.8714 16.7823 21.3839 16.9414 21.7813 17.2719C22.1788 17.6025 22.4286 18.0774 22.476 18.5921C22.5233 19.1069 22.3641 19.6194 22.0336 20.0169C21.7031 20.4143 21.2282 20.6642 20.7134 20.7115Z" fill="#6298FF"/>
</svg>
