<svg width="55" height="54" viewBox="0 0 55 54" fill="none" xmlns="http://www.w3.org/2000/svg">
<circle cx="27.7795" cy="26.9265" r="26.9265" fill="white"/>
<path d="M32.2666 21.3169C32.2666 21.0193 32.3848 20.734 32.5952 20.5236C32.8056 20.3132 33.0909 20.1949 33.3885 20.1949C33.686 20.1949 33.9714 20.3132 34.1818 20.5236C34.3922 20.734 34.5104 21.0193 34.5104 21.3169C34.5104 21.6144 34.3922 21.8998 34.1818 22.1102C33.9714 22.3206 33.686 22.4388 33.3885 22.4388C33.0909 22.4388 32.8056 22.3206 32.5952 22.1102C32.3848 21.8998 32.2666 21.6144 32.2666 21.3169Z" fill="#6298FF"/>
<path fill-rule="evenodd" clip-rule="evenodd" d="M27.7788 21.5974C26.3654 21.5974 25.0099 22.1588 24.0105 23.1583C23.0111 24.1577 22.4496 25.5132 22.4496 26.9266C22.4496 28.34 23.0111 29.6955 24.0105 30.6949C25.0099 31.6943 26.3654 32.2558 27.7788 32.2558C29.1922 32.2558 30.5477 31.6943 31.5471 30.6949C32.5465 29.6955 33.108 28.34 33.108 26.9266C33.108 25.5132 32.5465 24.1577 31.5471 23.1583C30.5477 22.1588 29.1922 21.5974 27.7788 21.5974ZM24.1325 26.9266C24.1325 25.9595 24.5167 25.0321 25.2005 24.3482C25.8843 23.6644 26.8118 23.2803 27.7788 23.2803C28.7459 23.2803 29.6733 23.6644 30.3571 24.3482C31.0409 25.0321 31.4251 25.9595 31.4251 26.9266C31.4251 27.8936 31.0409 28.8211 30.3571 29.5049C29.6733 30.1887 28.7459 30.5729 27.7788 30.5729C26.8118 30.5729 25.8843 30.1887 25.2005 29.5049C24.5167 28.8211 24.1325 27.8936 24.1325 26.9266Z" fill="#6298FF"/>
<path fill-rule="evenodd" clip-rule="evenodd" d="M33.6779 16.6418C29.7572 16.2071 25.8004 16.2071 21.8797 16.6418C19.6223 16.8942 17.7992 18.6725 17.5344 20.941C17.0693 24.9178 17.0693 28.9353 17.5344 32.9121C17.7992 35.1806 19.6212 36.9589 21.8797 37.2113C25.8004 37.6455 29.7572 37.6455 33.6779 37.2113C35.9353 36.9589 37.7584 35.1806 38.0232 32.9121C38.4884 28.9353 38.4884 24.9178 38.0232 20.941C37.7584 18.6725 35.9364 16.8942 33.6779 16.6418ZM22.0659 18.3135C25.8629 17.8926 29.6947 17.8926 33.4917 18.3135C34.9839 18.4818 36.1787 19.6587 36.3526 21.1374C36.8025 24.9837 36.8025 28.8694 36.3526 32.7157C36.2627 33.4394 35.9314 34.1117 35.4123 34.6239C34.8932 35.1361 34.2165 35.4583 33.4917 35.5385C29.6947 35.9594 25.8629 35.9594 22.0659 35.5385C21.3411 35.4583 20.6644 35.1361 20.1453 34.6239C19.6262 34.1117 19.2949 33.4394 19.205 32.7157C18.7551 28.8694 18.7551 24.9837 19.205 21.1374C19.2949 20.4137 19.6262 19.7414 20.1453 19.2292C20.6644 18.717 21.3411 18.3937 22.0659 18.3135Z" fill="#6298FF"/>
</svg>
