<svg width="26" height="29" viewBox="0 0 26 29" fill="none" xmlns="http://www.w3.org/2000/svg">
<path d="M4.43612 12.2141C4.48601 12.1696 4.54107 12.1313 4.60012 12.1001C4.53928 12.1283 4.4838 12.1669 4.43612 12.2141ZM7.41212 16.2531C7.47212 16.6741 7.65212 20.4171 10.1781 22.5031C10.6914 22.583 11.2084 22.6371 11.7271 22.6651C12.0071 22.0651 13.0391 22.1111 13.7121 22.2651C12.8684 21.8342 12.1265 21.228 11.5361 20.4871C10.7503 19.8008 10.2295 18.8611 10.0641 17.8311C11.4121 19.7011 12.5261 21.3311 14.9771 22.1571C16.8321 22.7791 18.9981 21.8721 20.4231 20.8711C20.9723 20.3946 21.4342 19.8261 21.7881 19.1911C23.404 16.6196 24.1556 13.5989 23.9331 10.5701C23.9787 9.40047 23.8092 8.23246 23.4331 7.12405C22.9801 6.21605 21.4491 5.40405 20.5531 6.22405C20.5383 6.14294 20.533 6.06039 20.5371 5.97805C20.3941 6.11205 20.3071 6.21005 20.3071 6.21005C20.2328 6.05804 20.1913 5.89213 20.1851 5.72305C20.1979 5.32927 20.36 4.95511 20.6386 4.67652C20.9172 4.39793 21.2913 4.2358 21.6851 4.22305C21.2589 3.64268 20.7621 3.11764 20.2061 2.66005C18.256 1.99368 16.1528 1.91646 14.1591 2.43805C12.7771 2.73514 11.4976 3.39047 10.4488 4.33829C9.40008 5.2861 8.61906 6.49305 8.18412 7.83805C7.99342 8.58057 7.86365 9.33742 7.79612 10.1011C7.76512 10.9851 8.21212 11.7561 8.24612 12.7181C8.00712 13.1121 7.27712 13.1611 6.77212 13.1341C6.73484 12.9435 6.68947 12.7547 6.63612 12.5681C6.23837 12.3463 5.81301 12.1781 5.37112 12.0681C5.75866 12.2266 6.075 12.5211 6.26078 12.8964C6.44656 13.2716 6.489 13.7017 6.38012 14.1061C6.00712 13.8931 5.91812 12.9561 5.48012 12.9291C4.85412 12.8911 4.96812 14.1451 4.97112 14.8791C4.75439 14.5566 4.62324 14.1842 4.59 13.7971C4.55676 13.41 4.62253 13.0208 4.78112 12.6661C4.49712 12.5271 4.33712 12.7271 4.18112 12.8831C3.95912 13.9191 3.63412 14.7561 4.24312 15.8031C4.41689 16.005 4.63484 16.1641 4.88006 16.2682C5.12528 16.3722 5.39118 16.4184 5.65712 16.4031C6.22412 16.3471 6.36312 15.7791 6.98112 15.7851C7.09514 15.8032 7.19972 15.8592 7.27793 15.9442C7.35615 16.0291 7.40342 16.1379 7.41212 16.2531ZM13.8611 18.2001L13.5611 18.1391C13.5611 18.1391 13.2471 17.0391 13.3981 16.8331C13.4781 16.7261 13.9181 16.5651 14.5341 16.8611C14.5301 16.8621 13.8001 16.9841 13.8611 18.2001ZM19.5671 19.5411C18.4554 19.9181 17.2497 19.9132 16.1411 19.5271C15.6196 19.145 15.1828 18.6591 14.8581 18.1001C14.7031 17.9001 13.9311 17.3921 14.8461 17.3911C15.5631 19.1911 18.0261 18.9831 20.1031 18.9341C20.0074 19.197 19.816 19.4131 19.5671 19.5411ZM19.8671 17.9411C19.82 17.5883 19.82 17.2308 19.8671 16.8781C20.9194 16.6724 21.9236 16.2704 22.8271 15.6931C22.6021 16.3127 22.203 16.8542 21.6777 17.2526C21.1525 17.651 20.5235 17.8893 19.8661 17.9391L19.8671 17.9411ZM22.6231 9.86805C22.4401 9.92905 21.2531 10.6301 21.3451 9.74605C21.3916 9.48567 21.5137 9.24473 21.6961 9.05322C21.8786 8.86172 22.1133 8.72811 22.3711 8.66905C22.3623 8.53586 22.3623 8.40224 22.3711 8.26905H22.4501C22.7829 9.06066 23.1747 9.82614 23.6221 10.5591C23.3051 11.2971 21.2221 11.9491 21.2561 10.6251C21.7061 10.4251 22.4831 10.5851 22.8821 10.3341C22.7881 10.0771 22.6821 9.83405 22.5821 9.57805L22.6231 9.86805ZM17.4361 14.6181C17.454 14.6502 17.4694 14.6836 17.4821 14.7181C17.5731 14.2111 17.7411 13.6181 18.0301 13.7051C18.1706 13.7442 18.2949 13.8272 18.3848 13.942C18.4748 14.0568 18.5257 14.1973 18.5301 14.3431C18.1933 14.5611 17.8761 14.808 17.5821 15.0811C17.6471 15.3811 17.7261 15.6811 18.1051 15.7491C19.2111 15.9381 20.4981 15.0721 21.2941 14.7701C21.7871 13.9381 21.2511 13.6321 20.8071 13.0971C19.8971 11.9971 18.6771 10.6411 18.7211 8.99705C19.0891 8.73005 19.1211 9.40405 19.1731 9.52705C19.8484 10.8055 20.7049 11.9796 21.7161 13.0131C21.9301 13.2471 22.2831 13.4721 22.3221 13.6271C22.4351 14.0781 22.0281 14.6181 22.0751 14.9171C20.808 15.9147 19.219 16.4128 17.6091 16.3171C17.383 16.1001 17.2412 15.8099 17.2092 15.4982C17.1771 15.1864 17.2568 14.8735 17.4341 14.6151L17.4361 14.6181ZM19.3941 16.9391C19.4576 17.2889 19.4831 17.6447 19.4701 18.0001C17.6591 18.0901 15.5181 17.6421 15.0431 16.3711C16.4356 16.87 17.9194 17.0627 19.3931 16.9361L19.3941 16.9391ZM15.1381 8.29105C15.3705 8.94612 15.6999 9.56264 16.1151 10.1201C16.3431 10.3421 16.7851 10.6121 16.5661 11.2291C16.4111 11.468 16.1873 11.6542 15.9241 11.7631C15.1341 11.9961 13.2931 11.8111 13.9161 10.8261C14.5691 10.8561 15.4481 11.2501 15.9361 10.7761C15.8229 10.5959 15.7155 10.4121 15.6141 10.2251C15.1141 10.5411 13.7401 10.5551 13.7401 9.74605C13.7401 8.89405 15.0791 8.71205 15.0791 8.71205L15.0891 8.73605C15.0743 8.58501 15.0907 8.43253 15.1371 8.28805L15.1381 8.29105ZM11.9141 5.36305C13.1091 4.54805 13.7141 5.01305 14.0141 5.55105C14.0915 5.58159 14.1612 5.62876 14.2184 5.68922C14.2755 5.74969 14.3187 5.82196 14.3448 5.90095C14.371 5.97993 14.3794 6.06369 14.3696 6.14631C14.3598 6.22892 14.332 6.30838 14.2881 6.37905C12.6301 5.99305 11.8061 7.07305 11.3031 8.19305C11.1741 8.42705 11.1671 8.26105 11.0931 8.05705C11.0643 8.01604 11.0436 7.96987 11.0321 7.92105C11.0072 7.87666 10.9762 7.83594 10.9401 7.80005C10.7001 7.55305 10.5751 6.27605 11.9141 5.36305Z" fill="#F0D6B7"/>
<path d="M3.28312 27.2801H12.0361C11.9961 27.1451 11.9571 27.0121 11.9181 26.8861C11.7061 26.2509 11.5469 25.5994 11.4421 24.9381C10.369 24.473 9.33642 23.9194 8.35512 23.2831C8.26882 23.2035 8.1886 23.1176 8.11512 23.0261L2.84912 25.3791C2.84912 25.3791 3.03812 26.1331 3.28312 27.2801Z" fill="#335061"/>
<path d="M6.43312 5.00005C6.58501 4.95335 6.74165 4.92383 6.90012 4.91205C7.14757 4.94614 7.39777 4.95585 7.64712 4.94105C8.14112 4.81805 8.55912 3.71005 8.93212 3.29705C9.23163 3.02168 9.54575 2.76264 9.87312 2.52105C8.50771 2.9913 7.31119 3.85355 6.43312 5.00005ZM4.17712 10.5861C4.49298 10.4191 4.84551 10.3336 5.20277 10.3373C5.56002 10.341 5.9107 10.4338 6.22302 10.6073C6.53534 10.7808 6.79943 11.0295 6.99136 11.3308C7.18328 11.6322 7.29697 11.9767 7.32212 12.3331C8.01612 12.3151 7.58112 11.4671 7.45612 10.9201C7.08712 9.31205 7.94312 7.58005 7.64812 6.05905C3.78212 6.63705 4.00012 9.60605 4.17712 10.5861Z" fill="#6D6B6D"/>
<path d="M10.2491 1.85105C8.42912 2.36705 6.09712 3.68905 5.34912 5.32405C5.7182 5.24391 6.0806 5.1356 6.43312 5.00005C7.31119 3.85355 8.50771 2.9913 9.87312 2.52105C9.92992 2.46949 9.98305 2.41402 10.0321 2.35505C10.2241 2.26205 10.5081 2.26905 10.5191 1.98005C10.4361 1.89105 10.3481 1.82305 10.2491 1.85105ZM4.50012 6.98505C3.70012 7.87005 3.86412 9.52705 3.96212 10.7061C4.03259 10.6622 4.10536 10.6221 4.18012 10.5861C4.00012 9.60705 3.78612 6.63705 7.65112 6.05905C7.61892 5.89073 7.57139 5.72571 7.50912 5.56605C6.3593 5.62798 5.27934 6.13727 4.50012 6.98505Z" fill="#DCD9D8"/>
<path d="M7.41212 16.2531C7.40397 16.1395 7.35827 16.0319 7.28223 15.9472C7.2062 15.8624 7.10413 15.8054 6.99212 15.7851C7.32712 16.4531 6.47612 16.6631 6.39212 17.1401C6.40316 17.4211 6.44508 17.7001 6.51712 17.9721C6.81348 19.1645 7.3015 20.301 7.96212 21.3371C8.23385 21.6717 8.57075 21.9476 8.95238 22.148C9.334 22.3485 9.75239 22.4693 10.1821 22.5031C7.65212 20.4181 7.47212 16.6741 7.41212 16.2531ZM18.5251 14.3381C18.5207 14.1923 18.4698 14.0518 18.3798 13.937C18.2899 13.8222 18.1656 13.7392 18.0251 13.7001C17.7361 13.6181 17.5681 14.2061 17.4771 14.7131C17.52 14.8312 17.5534 14.9526 17.5771 15.0761C17.8711 14.803 18.1883 14.5561 18.5251 14.3381ZM21.3441 9.74405C21.2521 10.6281 22.4441 9.92705 22.6221 9.86605L22.5791 9.58005C22.4655 9.28747 22.3951 8.97991 22.3701 8.66705C22.1123 8.72611 21.8776 8.85972 21.6951 9.05122C21.5127 9.24273 21.3906 9.48368 21.3441 9.74405ZM13.7391 9.74405C13.7391 10.5531 15.1101 10.5391 15.6131 10.2231C15.3422 9.76593 15.1638 9.26 15.0881 8.73405L15.0781 8.71005C15.0781 8.71005 13.7391 8.89205 13.7391 9.74405ZM4.19212 12.8851C4.15434 12.9256 4.11245 12.9621 4.06712 12.9941C4.09112 12.6973 4.2227 12.4196 4.43712 12.2131C4.48457 12.1663 4.53971 12.1281 4.60012 12.1001C4.72126 12.0412 4.85323 12.008 4.98778 12.0025C5.12234 11.997 5.25658 12.0193 5.38212 12.0681C5.82401 12.1781 6.24938 12.3463 6.64712 12.5681C6.45412 11.9041 6.12312 11.3051 5.43912 11.2301C5.16427 11.2074 4.88768 11.2409 4.62618 11.3285C4.36467 11.4161 4.1237 11.5559 3.91793 11.7395C3.71215 11.9231 3.54586 12.1467 3.42917 12.3965C3.31247 12.6464 3.24782 12.9174 3.23912 13.1931C3.23936 14.1584 3.60153 15.0886 4.25412 15.8001C3.64412 14.7581 3.97012 13.9211 4.19212 12.8851ZM14.1651 2.44305C16.1588 1.92146 18.262 1.99868 20.2121 2.66505C20.0568 2.54383 19.8931 2.43388 19.7221 2.33605C17.8331 1.27005 14.6361 0.469051 12.6221 1.47005C11.0011 2.27805 8.80912 3.61605 8.06212 5.31105C8.36895 6.12099 8.412 7.00718 8.18512 7.84305C8.62049 6.49743 9.40227 5.29005 10.4519 4.34219C11.5016 3.39433 12.7822 2.73935 14.1651 2.44305ZM20.1881 5.72805C20.1943 5.89713 20.2358 6.06304 20.3101 6.21505C20.3101 6.21505 20.3971 6.11505 20.5401 5.98305C20.5711 5.24905 21.4051 4.83105 22.3721 5.11705C22.1501 4.83105 21.9251 4.52805 21.6911 4.22805C21.2968 4.24005 20.9219 4.40185 20.6427 4.68052C20.3635 4.95918 20.2009 5.33377 20.1881 5.72805ZM11.0921 8.05805C11.1661 8.25805 11.1741 8.42805 11.3021 8.19405C11.2177 8.17632 11.1428 8.12785 11.0921 8.05805Z" fill="#F7E4CD"/>
<path d="M11.0321 7.92205C11.0032 7.66376 11.0425 7.4024 11.1461 7.16405C11.3477 6.66651 11.6873 6.23696 12.125 5.92603C12.5626 5.61509 13.0799 5.43572 13.6161 5.40905C13.7572 5.43144 13.8928 5.47994 14.0161 5.55205C13.7161 5.01405 13.1161 4.55205 11.9161 5.36405C10.5781 6.27705 10.6991 7.55405 10.9431 7.79805C10.9784 7.83506 11.0083 7.87679 11.0321 7.92205Z" fill="#F7E4CD"/>
<path d="M2.84912 25.3791L8.11512 23.0261C7.72912 22.5781 7.03612 21.7261 6.91512 21.7691C4.89393 22.6675 3.00618 23.8402 1.30512 25.2541C1.61136 25.9143 1.88175 26.5906 2.11512 27.2801H3.28312C3.14852 26.6441 3.00384 26.0104 2.84912 25.3791Z" fill="#49728B"/>
<path d="M24.0001 27.3071C24.2177 26.6308 24.4007 25.9439 24.5481 25.2491C24.5841 25.0681 24.6541 24.7741 24.7041 24.4931L21.8181 22.3491C22.3742 23.581 22.421 24.9828 21.9481 26.2491C22.0481 26.6211 22.4021 26.7641 22.5481 27.0991C22.5141 27.1591 22.4801 27.2181 22.4481 27.2781H23.9241C23.9517 27.2805 23.978 27.2905 24.0001 27.3071ZM20.6171 21.9461C20.7751 21.8631 20.9532 21.8263 21.1311 21.8401L20.8931 21.6631C20.7887 21.7444 20.6958 21.8396 20.6171 21.9461Z" fill="#335061"/>
<path d="M24.7561 23.8791C24.6821 23.3421 23.9561 22.9441 23.5841 22.6131C22.9001 22.0001 22.4721 21.4601 21.7611 20.8871C21.5072 21.1832 21.216 21.4441 20.8931 21.6631L21.1301 21.8401C21.2769 21.8642 21.4157 21.923 21.535 22.0118C21.6544 22.1005 21.7508 22.2165 21.8161 22.3501L24.7001 24.4931C24.7458 24.2918 24.7646 24.0853 24.7561 23.8791Z" fill="#49728B"/>
<path d="M17.5721 27.2001C17.5729 27.2256 17.5759 27.251 17.5811 27.2761H18.0601C18.0601 27.1877 18.0952 27.103 18.1577 27.0406C18.2201 26.9781 18.3048 26.9431 18.3931 26.9431C18.4814 26.9431 18.5661 26.9781 18.6286 27.0406C18.691 27.103 18.7261 27.1877 18.7261 27.2761H19.5001V27.2461C19.1066 27.0355 18.7064 26.8377 18.3001 26.6531C17.8761 26.4751 17.5721 27.2001 17.5721 27.2001Z" fill="white"/>
<path d="M17.5721 27.2001C17.5721 27.2001 17.8721 26.4701 18.3021 26.6521C18.6241 26.7901 19.2231 27.1011 19.5021 27.2451C19.5121 27.0251 19.5221 26.805 19.5361 26.5851C18.9181 26.6241 18.5751 26.0261 18.1421 25.9801C17.7641 25.9391 17.4421 26.4151 16.9521 26.2091C16.8391 26.3331 16.7371 26.4681 16.6221 26.5901C16.8002 26.8073 16.9635 27.0361 17.1111 27.2751H17.5871C17.5799 27.2505 17.5749 27.2254 17.5721 27.2001Z" fill="#DCD9D8"/>
<path d="M11.5111 23.1691C10.7374 23.167 9.96988 23.0317 9.24212 22.7691C9.21348 22.7967 9.19101 22.8301 9.1762 22.867C9.16138 22.9039 9.15455 22.9436 9.15616 22.9834C9.15776 23.0231 9.16777 23.0621 9.18551 23.0977C9.20326 23.1334 9.22834 23.1648 9.25912 23.1901C9.94064 23.4855 10.6615 23.6802 11.3991 23.7681C11.4712 23.5765 11.5091 23.3737 11.5111 23.1691Z" fill="white"/>
<path d="M11.3571 24.0691C11.3584 23.9677 11.3722 23.867 11.3981 23.7691C10.6605 23.6812 9.93964 23.4865 9.25812 23.1911C9.86465 23.6696 10.5905 23.9732 11.3571 24.0691Z" fill="#DCD9D8"/>
<path d="M21.6131 25.6931C21.6803 25.4082 21.7049 25.1151 21.6861 24.8231C21.665 24.3582 21.5981 23.8967 21.4861 23.4451C21.1494 23.4042 20.8083 23.4208 20.4771 23.4941C20.1771 23.5551 19.8681 23.6161 19.8081 23.9811C19.7481 24.3461 19.9301 24.5291 19.7471 24.8331C19.5641 25.1371 19.2601 24.9551 18.9561 25.1331C18.7491 25.2571 18.8801 25.5781 18.9851 25.7711C19.7924 25.9547 20.6164 26.0552 21.4441 26.0711C21.5243 25.9571 21.5817 25.8288 21.6131 25.6931ZM12.5621 27.2191L12.6091 27.3471C12.6231 27.3871 12.6381 27.4401 12.6511 27.4861L12.6421 27.3691L12.5621 27.2191Z" fill="#D33833"/>
<path d="M16.5631 25.9251L16.5841 25.3981C16.2663 25.4962 15.9231 25.4698 15.6241 25.3241C14.6871 24.8131 15.5741 24.9641 15.2421 24.2861C14.8624 24.0843 14.4463 23.9602 14.0181 23.9211C12.7901 23.9211 12.3181 23.6741 12.4501 25.0901C12.5191 25.8501 12.5811 26.6091 12.6411 27.3701C12.7411 27.5581 12.8311 27.7271 12.9031 27.8701C13.5453 27.8079 14.1685 27.6178 14.7361 27.3111C15.3699 26.8827 15.9798 26.42 16.5631 25.9251ZM17.0271 25.2001C17.0481 25.2891 17.0701 25.3891 17.0911 25.5101C17.1813 25.5585 17.281 25.5865 17.3832 25.5922C17.4854 25.5979 17.5876 25.5812 17.6826 25.5431C17.7776 25.505 17.8631 25.4466 17.9331 25.3718C18.0031 25.2971 18.0558 25.208 18.0876 25.1107C18.1194 25.0134 18.1295 24.9103 18.1171 24.8087C18.1047 24.7071 18.0702 24.6095 18.016 24.5226C17.9618 24.4358 17.8892 24.3619 17.8034 24.3062C17.7175 24.2504 17.6205 24.2142 17.5191 24.2001C17.5524 24.3973 17.5228 24.6 17.4345 24.7795C17.3462 24.9589 17.2037 25.1061 17.0271 25.2001Z" fill="#D33833"/>
<path d="M18.9531 25.1371C19.2531 24.9541 19.5621 25.1371 19.7441 24.8371C19.9261 24.5371 19.7441 24.3501 19.8051 23.9851C19.8661 23.6201 20.1701 23.5591 20.4741 23.4981C20.8053 23.4248 21.1464 23.4082 21.4831 23.4491C21.4439 23.1987 21.3212 22.969 21.1351 22.7971C20.3881 22.3611 19.0791 23.6221 18.4701 23.8901L18.4131 23.9131C18.5034 24.0875 18.5626 24.2763 18.5881 24.4711C18.7228 24.4377 18.8615 24.4236 19.0001 24.4291C19.0928 24.4328 19.1851 24.4438 19.2761 24.4621C19.3211 24.4711 19.3651 24.4821 19.4091 24.4941C19.4927 24.5175 19.574 24.5482 19.6521 24.5861C19.3973 24.5964 19.1439 24.6299 18.8951 24.6861C18.8238 24.7069 18.7563 24.739 18.6951 24.7811C18.6678 25.0802 18.6561 25.3806 18.6601 25.6811C18.7655 25.7111 18.8728 25.7391 18.9821 25.7651C18.8771 25.5821 18.7461 25.2611 18.9531 25.1371ZM12.6511 27.4861C12.7021 27.6691 12.7461 27.8331 12.9041 27.8701C12.8321 27.7261 12.7411 27.5571 12.6421 27.3701L12.6511 27.4861ZM12.4501 25.0901C12.3211 23.6741 12.7901 23.9211 14.0181 23.9211C14.4463 23.9602 14.8624 24.0843 15.2421 24.2861C15.5741 24.9641 14.6871 24.8131 15.6241 25.3241C15.9231 25.4698 16.2663 25.4952 16.5841 25.3971V25.3341C16.2961 25.1894 15.9869 25.0915 15.6681 25.0441C15.5452 25.0255 15.4213 25.0135 15.2971 25.0081C15.3904 24.9631 15.4878 24.9276 15.5881 24.9021C15.9021 24.8527 16.2073 24.7581 16.4941 24.6211C16.4941 24.5421 16.5001 24.4631 16.5031 24.3851C16.436 24.3796 16.3693 24.3706 16.3031 24.3581C16.2433 24.3468 16.1842 24.3321 16.1261 24.3141C16.0241 24.2818 15.9256 24.2392 15.8321 24.1871C15.6541 24.0871 15.5011 23.9711 15.3071 23.8651C14.5502 23.4589 13.7394 23.1623 12.8991 22.9841C11.9781 22.8081 11.9701 24.0891 12.0091 25.0331C12.0091 25.1331 12.0171 25.2251 12.0221 25.3131C12.1068 25.9701 12.2902 26.6107 12.5661 27.2131L12.6451 27.3631C12.5821 26.6091 12.5191 25.8501 12.4501 25.0901ZM17.5201 24.2001C17.31 24.2045 17.1066 24.2744 16.9381 24.4001C16.9237 24.5372 16.9261 24.6755 16.9451 24.8121C16.9561 24.8911 16.9731 24.9671 16.9931 25.0501L17.0241 25.1811V25.1981C17.2011 25.1048 17.3442 24.9582 17.4332 24.7791C17.5222 24.6 17.5526 24.3974 17.5201 24.2001Z" fill="#EF3D3A"/>
<path d="M11.1461 7.16405C11.0425 7.4024 11.0032 7.66376 11.0321 7.92205C11.0436 7.97087 11.0643 8.01604 11.0931 8.05705C11.1438 8.12685 11.2187 8.17632 11.3031 8.19405C11.8031 7.07405 12.6301 5.99405 14.2881 6.38005C14.332 6.30938 14.3598 6.22892 14.3696 6.14631C14.3794 6.06369 14.371 5.97993 14.3448 5.90095C14.3187 5.82196 14.2755 5.74969 14.2184 5.68922C14.1612 5.62876 14.0915 5.58159 14.0141 5.55105C13.8908 5.47894 13.7552 5.43144 13.6141 5.40905C13.0783 5.43609 12.5622 5.61511 12.125 5.92603C11.6873 6.23696 11.3477 6.66651 11.1461 7.16405ZM21.2521 10.6271C21.2201 11.9511 23.3011 11.2991 23.6181 10.5611C23.1707 9.82814 22.7789 9.06266 22.4461 8.27105H22.3671C22.3583 8.40424 22.3583 8.53786 22.3671 8.67105C22.3921 8.98391 22.4625 9.29147 22.5761 9.58405C22.6711 9.84005 22.7811 10.0841 22.8761 10.3401C22.4791 10.5871 21.7001 10.4301 21.2521 10.6271ZM15.9341 10.7731C15.4461 11.2471 14.5671 10.8531 13.9141 10.8231C13.2911 11.8081 15.1321 11.9931 15.9221 11.7601C16.1853 11.6512 16.4091 11.465 16.5641 11.2261C16.7831 10.6091 16.3411 10.3391 16.1131 10.1171C15.6979 9.55964 15.3695 8.94312 15.1371 8.28805C15.0907 8.43152 15.0731 8.58293 15.0871 8.73305C15.1628 9.259 15.3412 9.76493 15.6121 10.2221C15.7261 10.4321 15.8391 10.6211 15.9341 10.7731ZM17.6051 16.3151C19.215 16.4108 20.804 15.9127 22.0711 14.9151C22.0241 14.6151 22.4311 14.0751 22.3181 13.6251C22.2791 13.4701 21.9261 13.2451 21.7121 13.0111C20.7009 11.9776 19.8444 10.8035 19.1691 9.52505C19.1161 9.40205 19.0841 8.72505 18.7171 8.99505C18.6731 10.6371 19.8931 11.9951 20.8031 13.0951C21.2471 13.6301 21.7831 13.9361 21.2901 14.7681C20.4901 15.0681 19.2071 15.937 18.1011 15.7471C17.7221 15.6821 17.6431 15.3821 17.5781 15.0791C17.5544 14.9556 17.521 14.8342 17.4781 14.7161C17.4654 14.6816 17.45 14.6482 17.4321 14.616C17.2554 14.874 17.1758 15.1862 17.2075 15.4972C17.2391 15.8083 17.38 16.098 17.6051 16.3151ZM4.60012 12.1001C4.54297 12.1307 4.48961 12.168 4.44112 12.2111C4.2267 12.4176 4.09512 12.6953 4.07112 12.9921C4.11645 12.9601 4.15834 12.9236 4.19612 12.8831C4.34912 12.7271 4.50912 12.5261 4.79612 12.6661C4.63753 13.0208 4.57176 13.41 4.605 13.7971C4.63824 14.1842 4.76939 14.5566 4.98612 14.8791C4.98612 14.1461 4.86912 12.8921 5.49512 12.9291C5.93312 12.9561 6.02212 13.8931 6.39512 14.1061C6.50295 13.701 6.45909 13.2706 6.2718 12.8956C6.08452 12.5207 5.7667 12.2271 5.37812 12.0701C5.25328 12.0216 5.11983 11.9992 4.98601 12.0044C4.85219 12.0095 4.72085 12.0421 4.60012 12.1001ZM19.8681 16.8751C19.821 17.2278 19.821 17.5853 19.8681 17.9381C20.526 17.8883 21.1555 17.6496 21.681 17.2506C22.2064 16.8516 22.6055 16.3094 22.8301 15.689C21.9261 16.267 20.9212 16.6693 19.8681 16.8751ZM19.4701 18.0001C19.4831 17.643 19.4573 17.2855 19.3931 16.9341C17.9196 17.0617 16.4358 16.869 15.0431 16.3711C15.5181 17.6431 17.6591 18.0921 19.4701 18.0001ZM14.8461 17.3901C13.9311 17.3901 14.7031 17.9011 14.8581 18.1001C15.1828 18.6591 15.6196 19.145 16.1411 19.5271C17.2497 19.9132 18.4564 19.9181 19.5681 19.5411C19.8172 19.4129 20.0086 19.1954 20.1041 18.9321C18.0261 18.982 15.5631 19.1891 14.8461 17.3901Z" fill="#231F20"/>
<path d="M21.9601 27.2801C21.724 26.903 21.3502 26.6329 20.9181 26.5271C20.6073 26.4644 20.2844 26.5066 20.0001 26.6471C19.9921 26.8471 19.9821 27.0621 19.9691 27.2791L21.9601 27.2801Z" fill="#81B0C4"/>
<path d="M18.9711 22.7491C18.2851 22.8101 17.4781 23.1221 16.7191 23.1681C16.6501 23.1681 16.5811 23.1731 16.5131 23.1731C16.4451 23.1731 16.3771 23.1731 16.3131 23.1631C16.1802 23.1513 16.0488 23.1269 15.9211 23.0881C15.8571 23.0685 15.7943 23.0451 15.7331 23.0181C15.7331 23.0701 15.6621 23.0511 15.6511 23.0941C15.8026 23.2159 15.965 23.3237 16.1361 23.4161C16.2866 23.4975 16.446 23.5613 16.6111 23.6061C16.8778 23.6727 17.1523 23.7029 17.4271 23.6961C17.5271 23.6961 17.6391 23.6961 17.7541 23.6871C18.1691 23.3841 18.5371 23.0311 18.9711 22.7491Z" fill="#F0D6B7"/>
<path d="M16.0861 27.0481L15.7351 27.2811H16.2621C16.2048 27.2017 16.1461 27.1241 16.0861 27.0481Z" fill="#81B0C4"/>
<path d="M1.68112 27.7691V27.4341C1.68112 27.3935 1.69724 27.3546 1.72593 27.3259C1.75463 27.2972 1.79354 27.2811 1.83412 27.2811H2.11712C1.88375 26.5916 1.61336 25.9153 1.30712 25.2551C3.00818 23.8412 4.89593 22.6685 6.91712 21.7701C7.03512 21.7231 7.72812 22.5791 8.11712 23.0271C8.1906 23.1186 8.27082 23.2045 8.35712 23.2841C9.33842 23.9204 10.371 24.474 11.4441 24.9391C11.5489 25.6004 11.7081 26.2519 11.9201 26.8871C11.9591 27.0131 11.9981 27.1471 12.0381 27.2811H12.2001C12.2407 27.2811 12.2796 27.2972 12.3083 27.3259C12.337 27.3546 12.3531 27.3935 12.3531 27.4341V27.5921H12.4921C12.5327 27.5921 12.5716 27.6082 12.6003 27.6369C12.629 27.6656 12.6451 27.7045 12.6451 27.7451V28.0001H14.3361V27.7451C14.3361 27.7045 14.3522 27.6656 14.3809 27.6369C14.4096 27.6082 14.4485 27.5921 14.4891 27.5921H15.2691V27.4341C15.2691 27.3935 15.2852 27.3546 15.3139 27.3259C15.3426 27.2972 15.3815 27.2811 15.4221 27.2811H15.7391L16.0901 27.0481C16.1501 27.1241 16.2088 27.2017 16.2661 27.2811H17.1091C16.9615 27.0421 16.7982 26.8133 16.6201 26.5961C16.7351 26.4741 16.8371 26.3401 16.9501 26.2151C17.4421 26.4211 17.7621 25.9451 18.1401 25.9861C18.5731 26.0321 18.9161 26.6301 19.5341 26.5911C19.5201 26.8111 19.5101 27.0311 19.5001 27.2511V27.2811H19.9741C19.9861 27.0641 19.9971 26.8521 20.0051 26.6491C20.2894 26.5086 20.6123 26.4664 20.9231 26.5291C21.3552 26.6349 21.729 26.905 21.9651 27.2821H22.4461C22.4801 27.2221 22.5151 27.1631 22.5461 27.1031C22.4031 26.7681 22.0511 26.6261 21.9461 26.2531C22.419 24.9868 22.3722 23.585 21.8161 22.3531C21.7508 22.2195 21.6544 22.1035 21.535 22.0148C21.4157 21.926 21.2769 21.8672 21.1301 21.8431C20.9522 21.8293 20.7741 21.8661 20.6161 21.9491C20.6945 21.8427 20.787 21.7475 20.8911 21.6661C21.214 21.4471 21.5062 21.1862 21.7601 20.8901C22.4721 21.4631 22.9011 22.0021 23.5841 22.6151C23.9541 22.9471 24.6841 23.3451 24.7561 23.8811C24.7653 24.0872 24.7471 24.2937 24.7021 24.4951C24.6511 24.7761 24.5821 25.0701 24.5461 25.2511C24.3992 25.9452 24.217 26.6315 24.0001 27.3071C24.0219 27.3203 24.04 27.339 24.0526 27.3612C24.0652 27.3834 24.0719 27.4085 24.0721 27.4341V28.0001H24.4401C24.6981 27.1921 24.9511 26.3651 25.2061 25.5111C25.4967 24.817 25.6587 24.076 25.6841 23.3241C25.6061 22.7071 24.6441 22.0591 24.1371 21.5701C23.8561 21.2991 22.5441 20.3031 22.4681 19.9301C22.3921 19.5571 23.0031 18.7521 23.1991 18.3441C23.4542 17.7659 23.6619 17.1679 23.8201 16.5561C24.8521 12.9291 24.9571 7.94505 23.4811 4.96405C22.6691 3.63918 21.6179 2.47678 20.3811 1.53605C18.0811 -0.205949 13.8181 -0.398949 11.0421 0.623051C10.2824 0.870245 9.54618 1.18448 8.84212 1.56205C7.02412 2.62805 5.09412 3.34205 4.55512 5.49005C3.22712 6.09005 2.82612 7.79005 2.89312 9.75805C2.9834 10.1611 3.03331 10.5721 3.04212 10.9851C3.00512 11.1691 2.75612 11.4041 2.70612 11.5231C2.45339 12.2846 2.37689 13.0937 2.48239 13.8891C2.58788 14.6846 2.87262 15.4457 3.31512 16.1151C3.56044 16.4806 3.87803 16.7921 4.24831 17.0303C4.61859 17.2685 5.03372 17.4284 5.46812 17.5001C5.50921 18.0808 5.66094 18.6483 5.91512 19.1721C6.08512 19.5451 6.72012 20.2151 6.48612 20.6911C6.03101 21.0755 5.5286 21.4001 4.99112 21.6571C3.83312 22.3521 2.99112 22.7771 1.92512 23.5471C1.23312 24.0471 0.15212 24.1091 0.32512 25.2571C0.532128 26.1135 0.802198 26.9535 1.13312 27.7701C1.15812 27.8481 1.18612 27.9251 1.21312 28.0021H1.68312L1.68112 27.7691ZM10.0321 2.35505C9.98305 2.41402 9.92992 2.46949 9.87312 2.52105C9.54575 2.76264 9.23163 3.02168 8.93212 3.29705C8.55912 3.71005 8.14212 4.81805 7.64712 4.94105C7.39777 4.95585 7.14757 4.94614 6.90012 4.91205C6.74165 4.92383 6.58501 4.95335 6.43312 5.00005C6.08063 5.13594 5.71823 5.24459 5.34912 5.32505C6.09712 3.69005 8.42912 2.36705 10.2491 1.85105C10.3491 1.82305 10.4371 1.89205 10.5201 1.98105C10.5091 2.26805 10.2241 2.26205 10.0321 2.35505ZM7.64712 6.05505C7.94712 7.57605 7.08612 9.30905 7.45512 10.9161C7.58012 11.4621 8.01512 12.3101 7.32112 12.3291C7.29597 11.9727 7.18228 11.6282 6.99036 11.3268C6.79843 11.0255 6.53434 10.7768 6.22202 10.6033C5.9097 10.4298 5.55902 10.337 5.20177 10.3333C4.84451 10.3296 4.49198 10.4151 4.17612 10.5821C4.10136 10.6181 4.02859 10.6582 3.95812 10.7021C3.85812 9.52305 3.69212 7.86605 4.49612 6.98105C5.27534 6.13327 6.3553 5.62398 7.50512 5.56205C7.56762 5.723 7.61616 5.88937 7.64812 6.05905L7.64712 6.05505ZM4.25412 15.8001C3.60061 15.0915 3.23602 14.164 3.23212 13.2001C3.24082 12.9244 3.30547 12.6534 3.42217 12.4035C3.53886 12.1537 3.70515 11.9301 3.91093 11.7465C4.1167 11.5629 4.35767 11.4231 4.61918 11.3355C4.88068 11.2479 5.15727 11.2144 5.43212 11.2371C6.11612 11.3121 6.44612 11.9111 6.64012 12.5751C6.69412 12.7621 6.74012 12.9541 6.77612 13.1411C7.28112 13.1681 8.01112 13.1191 8.25012 12.7251C8.21612 11.7631 7.76912 10.9921 7.80012 10.1081C7.86765 9.34442 7.99742 8.58757 8.18812 7.84505C8.415 7.00918 8.37195 6.123 8.06512 5.31305C8.81212 3.61805 11.0041 2.28105 12.6251 1.47205C14.6341 0.472051 17.8321 1.27205 19.7251 2.33805C19.8961 2.43588 20.0598 2.54583 20.2151 2.66705C20.7711 3.12464 21.2679 3.64968 21.6941 4.23005C21.9281 4.53005 22.1531 4.83005 22.3751 5.11905C21.4081 4.83205 20.5751 5.25105 20.5431 5.98505C20.539 6.06739 20.5443 6.14994 20.5591 6.23105C21.4591 5.41005 22.9861 6.22205 23.4391 7.13105C23.8152 8.23946 23.9847 9.40747 23.9391 10.5771C24.1616 13.6059 23.41 16.6266 21.7941 19.1981C21.4402 19.8331 20.9783 20.4016 20.4291 20.8781C19.0041 21.8781 16.8381 22.7861 14.9831 22.1641C12.5321 21.3411 11.4181 19.7081 10.0701 17.8381C10.2355 18.8681 10.7563 19.8078 11.5421 20.4941C12.1325 21.235 12.8744 21.8412 13.7181 22.2721C13.0451 22.114 12.0181 22.0641 11.7331 22.6721C11.2144 22.6441 10.6974 22.59 10.1841 22.5101C9.75439 22.4763 9.336 22.3555 8.95438 22.155C8.57275 21.9546 8.23585 21.6787 7.96412 21.3441C7.3035 20.308 6.81548 19.1715 6.51912 17.9791C6.44708 17.7071 6.40516 17.4281 6.39412 17.1471C6.48212 16.6691 7.33312 16.4601 6.99412 15.7921C6.37612 15.7861 6.23712 16.3541 5.67012 16.4101C5.40304 16.4245 5.13624 16.3769 4.89059 16.2711C4.64495 16.1653 4.42711 16.004 4.25412 15.8001ZM17.0241 25.1811L16.9931 25.0501C16.9737 24.9715 16.9577 24.892 16.9451 24.8121C16.9261 24.6755 16.9237 24.5372 16.9381 24.4001C17.1066 24.2744 17.31 24.2035 17.5201 24.1991C17.6215 24.2132 17.7185 24.2494 17.8044 24.3052C17.8902 24.3609 17.9628 24.4348 18.017 24.5216C18.0712 24.6085 18.1057 24.7061 18.1181 24.8077C18.1305 24.9093 18.1204 25.0124 18.0886 25.1097C18.0568 25.207 18.0041 25.2961 17.9341 25.3708C17.8641 25.4456 17.7786 25.504 17.6836 25.5421C17.5886 25.5802 17.4864 25.5969 17.3842 25.5912C17.282 25.5855 17.1823 25.5575 17.0921 25.5091C17.074 25.4051 17.0526 25.3017 17.0281 25.1991L17.0241 25.1811ZM9.24212 22.7611C9.96988 23.0237 10.7374 23.159 11.5111 23.1611C11.5093 23.3661 11.4714 23.5692 11.3991 23.7611C11.3732 23.859 11.3594 23.9597 11.3581 24.0611C10.5907 23.9642 9.86449 23.6592 9.25812 23.1791C9.22869 23.1538 9.20479 23.1227 9.18792 23.0878C9.17105 23.0528 9.16157 23.0148 9.16007 22.976C9.15857 22.9373 9.16508 22.8986 9.1792 22.8625C9.19331 22.8264 9.21474 22.7935 9.24212 22.7661V22.7611ZM16.6091 23.6001C16.444 23.5553 16.2846 23.4915 16.1341 23.4101C15.9632 23.3174 15.8009 23.2096 15.6491 23.0881C15.6601 23.0451 15.7281 23.0641 15.7311 23.0121C15.7923 23.0391 15.8551 23.0625 15.9191 23.0821C16.0468 23.1209 16.1782 23.1463 16.3111 23.1581C16.4462 23.1696 16.5819 23.1709 16.7171 23.1621C17.4761 23.1161 18.2831 22.8041 18.9691 22.7431C18.5361 23.0261 18.1691 23.3791 17.7511 23.6811C17.6422 23.6869 17.5332 23.6899 17.4241 23.6901C17.1499 23.6985 16.8757 23.6699 16.6091 23.6051V23.6001ZM14.7371 27.3061C14.1695 27.6128 13.5463 27.8029 12.9041 27.8651C12.7461 27.8281 12.7041 27.6651 12.6511 27.4801C12.6261 27.3896 12.5964 27.3005 12.5621 27.2131C12.2862 26.6107 12.1028 25.9701 12.0181 25.3131C12.0181 25.2251 12.0091 25.1311 12.0051 25.0331C11.9661 24.0891 11.9741 22.8081 12.8951 22.9841C13.7354 23.1623 14.5462 23.4589 15.3031 23.8651C15.4971 23.9711 15.6501 24.0901 15.8281 24.1871C15.9216 24.2392 16.0201 24.2818 16.1221 24.3141C16.1802 24.3321 16.2393 24.3468 16.2991 24.3581C16.3653 24.3706 16.432 24.3796 16.4991 24.3851C16.4991 24.4631 16.4931 24.5421 16.4901 24.6211C16.2033 24.7581 15.8981 24.8527 15.5841 24.9021C15.4838 24.9276 15.3864 24.9631 15.2931 25.0081C15.4173 25.0135 15.5412 25.0255 15.6641 25.0441C15.9829 25.0915 16.2921 25.1894 16.5801 25.3341V25.3971L16.5591 25.9241C15.9775 26.4192 15.3682 26.8822 14.7361 27.3111L14.7371 27.3061ZM18.9821 25.7701C18.8728 25.7441 18.7655 25.7161 18.6601 25.6861C18.6561 25.3856 18.6678 25.0852 18.6951 24.7861C18.7563 24.744 18.8238 24.7119 18.8951 24.6911C19.1439 24.6349 19.3973 24.6014 19.6521 24.5911C19.574 24.5532 19.4927 24.5225 19.4091 24.4991C19.3652 24.4867 19.3208 24.4761 19.2761 24.4671C19.1853 24.4471 19.093 24.4344 19.0001 24.4291C18.8633 24.4228 18.7264 24.4356 18.5931 24.4671C18.5676 24.2723 18.5084 24.0835 18.4181 23.9091L18.4751 23.8861C19.0841 23.6181 20.3931 22.357 21.1401 22.7931C21.3262 22.965 21.4489 23.1947 21.4881 23.4451C21.6001 23.8967 21.667 24.3582 21.6881 24.8231C21.7069 25.1151 21.6823 25.4082 21.6151 25.6931C21.5831 25.83 21.5247 25.9595 21.4431 26.0741C20.6147 26.0583 19.7901 25.9578 18.9821 25.7741V25.7701Z" fill="#231F20"/>
<path d="M14.5301 16.8621C13.9141 16.5621 13.4741 16.7271 13.3941 16.8341C13.2421 17.0341 13.5571 18.1401 13.5571 18.1401L13.8571 18.2011C13.8001 16.9841 14.5301 16.8621 14.5301 16.8621Z" fill="#F7E4CD"/>
<path d="M18.3931 26.9611C18.3072 26.9612 18.2247 26.9945 18.1627 27.0539C18.1007 27.1133 18.064 27.1943 18.0601 27.2801H18.7261C18.7223 27.1943 18.6855 27.1133 18.6235 27.0539C18.5615 26.9945 18.479 26.9612 18.3931 26.9611Z" fill="#1D1919"/>
<path d="M12.6421 27.7451C12.6421 27.7045 12.626 27.6656 12.5973 27.6369C12.5686 27.6082 12.5297 27.5921 12.4891 27.5921H12.3501V27.7691C12.3501 27.8096 12.334 27.8485 12.3053 27.8772C12.2766 27.9059 12.2377 27.9221 12.1971 27.9221H1.83412C1.79354 27.9221 1.75463 27.9059 1.72593 27.8772C1.69724 27.8485 1.68112 27.8096 1.68112 27.7691V28.0001H12.6421V27.7451ZM23.9181 27.9221H15.4181C15.3775 27.9221 15.3386 27.9059 15.3099 27.8772C15.2812 27.8485 15.2651 27.8096 15.2651 27.7691V27.5921H14.4851C14.4445 27.5921 14.4056 27.6082 14.3769 27.6369C14.3482 27.6656 14.3321 27.7045 14.3321 27.7451V28.0001H24.0691V27.7691C24.0691 27.8093 24.0533 27.8479 24.025 27.8765C23.9968 27.9052 23.9583 27.9215 23.9181 27.9221Z" fill="#231F20"/>
<path d="M1.83412 27.9221H12.2001C12.2407 27.9221 12.2796 27.9059 12.3083 27.8772C12.337 27.8485 12.3531 27.8096 12.3531 27.7691V27.4341C12.3531 27.3935 12.337 27.3546 12.3083 27.3259C12.2796 27.2972 12.2407 27.2811 12.2001 27.2811H1.83412C1.79354 27.2811 1.75463 27.2972 1.72593 27.3259C1.69724 27.3546 1.68112 27.3935 1.68112 27.4341V27.7691C1.68112 27.8096 1.69724 27.8485 1.72593 27.8772C1.75463 27.9059 1.79354 27.9221 1.83412 27.9221ZM15.2661 27.7691C15.2661 27.8096 15.2812 27.8485 15.3099 27.8772C15.3386 27.9059 15.3785 27.9221 15.4191 27.9221H23.9191C23.9597 27.9221 23.9986 27.9059 24.0273 27.8772C24.056 27.8485 24.0721 27.8096 24.0721 27.7691V27.4341C24.0719 27.4085 24.0652 27.3834 24.0526 27.3612C24.04 27.339 24.0219 27.3203 24.0001 27.3071C23.9762 27.2907 23.9481 27.2817 23.9191 27.2811H15.4191C15.3785 27.2811 15.3396 27.2972 15.3109 27.3259C15.2822 27.3546 15.2661 27.3935 15.2661 27.4341V27.7691Z" fill="#231F20"/>
</svg>
