<svg width="547" height="476" viewBox="0 0 547 476" fill="none" xmlns="http://www.w3.org/2000/svg">
<g filter="url(#filter0_d_1342_847)">
<rect x="40" y="36" width="467" height="396" rx="32" fill="white"/>
</g>
<path d="M259.705 238V228.13H260.923L264.577 234.948L268.217 228.13H269.407V238H268.105V230.762L265.011 236.488H264.129L261.021 230.79V238H259.705ZM274.858 238L270.504 228.13H272.058L275.516 236.166L278.974 228.13H280.458L276.104 238H274.858ZM281.539 238V228.13H285.627C286.691 228.13 287.512 228.396 288.091 228.928C288.669 229.451 288.959 230.188 288.959 231.14C288.959 232.101 288.669 232.848 288.091 233.38C287.512 233.903 286.691 234.164 285.627 234.164H282.995V238H281.539ZM282.995 233.002H285.417C286.835 233.002 287.545 232.381 287.545 231.14C287.545 229.908 286.835 229.292 285.417 229.292H282.995V233.002Z" fill="#AAAED6"/>
<path d="M237.474 260.897C236.699 260.897 235.99 260.799 235.346 260.603C234.702 260.397 234.156 260.113 233.708 259.749L234.17 258.601C234.637 258.955 235.136 259.221 235.668 259.399C236.2 259.576 236.802 259.665 237.474 259.665C238.267 259.665 238.851 259.525 239.224 259.245C239.607 258.955 239.798 258.582 239.798 258.125C239.798 257.751 239.663 257.457 239.392 257.243C239.121 257.019 238.669 256.841 238.034 256.711L236.536 256.403C235.649 256.216 234.987 255.908 234.548 255.479C234.119 255.049 233.904 254.471 233.904 253.743C233.904 253.155 234.058 252.637 234.366 252.189C234.683 251.741 235.122 251.395 235.682 251.153C236.242 250.901 236.886 250.775 237.614 250.775C238.286 250.775 238.907 250.877 239.476 251.083C240.055 251.279 240.545 251.568 240.946 251.951L240.47 253.057C239.677 252.357 238.72 252.007 237.6 252.007C236.909 252.007 236.359 252.161 235.948 252.469C235.547 252.777 235.346 253.187 235.346 253.701C235.346 254.093 235.472 254.405 235.724 254.639C235.976 254.872 236.396 255.049 236.984 255.171L238.468 255.479C239.401 255.675 240.097 255.978 240.554 256.389C241.011 256.79 241.24 257.336 241.24 258.027C241.24 258.605 241.086 259.109 240.778 259.539C240.47 259.968 240.036 260.304 239.476 260.547C238.916 260.78 238.249 260.897 237.474 260.897ZM247.177 260.897C246.234 260.897 245.418 260.691 244.727 260.281C244.036 259.861 243.5 259.273 243.117 258.517C242.744 257.751 242.557 256.855 242.557 255.829C242.557 254.793 242.744 253.897 243.117 253.141C243.5 252.385 244.036 251.801 244.727 251.391C245.418 250.98 246.234 250.775 247.177 250.775C248.11 250.775 248.922 250.98 249.613 251.391C250.313 251.801 250.85 252.385 251.223 253.141C251.606 253.897 251.797 254.788 251.797 255.815C251.797 256.851 251.606 257.751 251.223 258.517C250.85 259.273 250.313 259.861 249.613 260.281C248.922 260.691 248.11 260.897 247.177 260.897ZM247.177 259.637C248.157 259.637 248.918 259.305 249.459 258.643C250.01 257.971 250.285 257.033 250.285 255.829C250.285 254.625 250.014 253.691 249.473 253.029C248.932 252.366 248.166 252.035 247.177 252.035C246.197 252.035 245.432 252.366 244.881 253.029C244.34 253.691 244.069 254.625 244.069 255.829C244.069 257.033 244.34 257.971 244.881 258.643C245.432 259.305 246.197 259.637 247.177 259.637ZM253.749 260.771V250.901H255.205V259.525H260.091V260.771H253.749ZM261.473 260.771V250.901H262.929V260.771H261.473ZM265.206 260.771V250.901H268.692C270.316 250.901 271.566 251.325 272.444 252.175C273.33 253.024 273.774 254.242 273.774 255.829C273.774 257.415 273.33 258.638 272.444 259.497C271.566 260.346 270.316 260.771 268.692 260.771H265.206ZM266.662 259.553H268.608C271.044 259.553 272.262 258.311 272.262 255.829C272.262 253.355 271.044 252.119 268.608 252.119H266.662V259.553ZM279.397 260.771V250.901H282.883C284.507 250.901 285.758 251.325 286.635 252.175C287.522 253.024 287.965 254.242 287.965 255.829C287.965 257.415 287.522 258.638 286.635 259.497C285.758 260.346 284.507 260.771 282.883 260.771H279.397ZM280.853 259.553H282.799C285.235 259.553 286.453 258.311 286.453 255.829C286.453 253.355 285.235 252.119 282.799 252.119H280.853V259.553ZM289.911 260.771V250.901H296.295V252.077H291.311V255.171H296.001V256.347H291.311V259.595H296.295V260.771H289.911ZM301.208 260.771L296.854 250.901H298.408L301.866 258.937L305.324 250.901H306.808L302.454 260.771H301.208ZM311.015 260.897C310.24 260.897 309.531 260.799 308.887 260.603C308.243 260.397 307.697 260.113 307.249 259.749L307.711 258.601C308.178 258.955 308.677 259.221 309.209 259.399C309.741 259.576 310.343 259.665 311.015 259.665C311.808 259.665 312.392 259.525 312.765 259.245C313.148 258.955 313.339 258.582 313.339 258.125C313.339 257.751 313.204 257.457 312.933 257.243C312.662 257.019 312.21 256.841 311.575 256.711L310.077 256.403C309.19 256.216 308.528 255.908 308.089 255.479C307.66 255.049 307.445 254.471 307.445 253.743C307.445 253.155 307.599 252.637 307.907 252.189C308.224 251.741 308.663 251.395 309.223 251.153C309.783 250.901 310.427 250.775 311.155 250.775C311.827 250.775 312.448 250.877 313.017 251.083C313.596 251.279 314.086 251.568 314.487 251.951L314.011 253.057C313.218 252.357 312.261 252.007 311.141 252.007C310.45 252.007 309.9 252.161 309.489 252.469C309.088 252.777 308.887 253.187 308.887 253.701C308.887 254.093 309.013 254.405 309.265 254.639C309.517 254.872 309.937 255.049 310.525 255.171L312.009 255.479C312.942 255.675 313.638 255.978 314.095 256.389C314.552 256.79 314.781 257.336 314.781 258.027C314.781 258.605 314.627 259.109 314.319 259.539C314.011 259.968 313.577 260.304 313.017 260.547C312.457 260.78 311.79 260.897 311.015 260.897Z" fill="#AAAED6"/>
<path d="M216.046 295.972V294.102C215.298 294.045 214.59 293.909 213.921 293.694C213.264 293.467 212.691 293.156 212.204 292.759L212.867 291.042C213.4 291.439 213.983 291.745 214.618 291.96C215.253 292.175 215.95 292.283 216.709 292.283C217.536 292.283 218.143 292.136 218.528 291.841C218.913 291.546 219.106 291.178 219.106 290.736C219.106 290.339 218.976 290.022 218.715 289.784C218.454 289.546 217.99 289.353 217.321 289.206L215.519 288.815C214.499 288.588 213.728 288.214 213.207 287.693C212.697 287.16 212.442 286.458 212.442 285.585C212.442 284.633 212.765 283.834 213.411 283.188C214.068 282.531 214.947 282.134 216.046 281.998V280.077H217.746V281.981C218.335 282.038 218.908 282.179 219.463 282.406C220.018 282.633 220.489 282.939 220.874 283.324L220.228 284.956C219.367 284.163 218.267 283.766 216.93 283.766C216.227 283.766 215.661 283.93 215.23 284.259C214.811 284.576 214.601 284.996 214.601 285.517C214.601 285.902 214.731 286.214 214.992 286.452C215.253 286.69 215.672 286.871 216.25 286.996L218.052 287.387C219.14 287.625 219.945 288.005 220.466 288.526C220.999 289.036 221.265 289.716 221.265 290.566C221.265 291.518 220.936 292.3 220.279 292.912C219.633 293.513 218.789 293.892 217.746 294.051V295.972H216.046ZM223.179 294.017V292.402L227.055 288.271C227.577 287.704 227.951 287.206 228.177 286.775C228.404 286.333 228.517 285.885 228.517 285.432C228.517 284.276 227.82 283.698 226.426 283.698C225.338 283.698 224.335 284.106 223.417 284.922L222.686 283.29C223.162 282.859 223.757 282.514 224.471 282.253C225.185 281.992 225.928 281.862 226.698 281.862C227.979 281.862 228.959 282.151 229.639 282.729C230.331 283.307 230.676 284.134 230.676 285.211C230.676 285.936 230.501 286.633 230.149 287.302C229.809 287.971 229.271 288.69 228.534 289.461L225.899 292.215H231.135V294.017H223.179ZM237.113 294.187C235.696 294.187 234.614 293.654 233.866 292.589C233.118 291.512 232.744 289.982 232.744 287.999C232.744 285.993 233.118 284.469 233.866 283.426C234.614 282.383 235.696 281.862 237.113 281.862C238.541 281.862 239.623 282.383 240.36 283.426C241.108 284.469 241.482 285.987 241.482 287.982C241.482 289.977 241.108 291.512 240.36 292.589C239.612 293.654 238.529 294.187 237.113 294.187ZM237.113 292.402C237.883 292.402 238.45 292.051 238.813 291.348C239.187 290.634 239.374 289.512 239.374 287.982C239.374 286.463 239.187 285.364 238.813 284.684C238.45 283.993 237.883 283.647 237.113 283.647C236.353 283.647 235.787 283.993 235.413 284.684C235.039 285.364 234.852 286.463 234.852 287.982C234.852 289.512 235.039 290.634 235.413 291.348C235.787 292.051 236.353 292.402 237.113 292.402ZM244.161 296.278L243.294 295.598C243.577 295.315 243.787 295.043 243.923 294.782C244.07 294.533 244.172 294.278 244.229 294.017H243.124V291.654H245.504V293.218C245.504 293.796 245.402 294.323 245.198 294.799C245.005 295.286 244.66 295.779 244.161 296.278ZM247.783 294.017V292.402L251.659 288.271C252.18 287.704 252.554 287.206 252.781 286.775C253.008 286.333 253.121 285.885 253.121 285.432C253.121 284.276 252.424 283.698 251.03 283.698C249.942 283.698 248.939 284.106 248.021 284.922L247.29 283.29C247.766 282.859 248.361 282.514 249.075 282.253C249.789 281.992 250.531 281.862 251.302 281.862C252.583 281.862 253.563 282.151 254.243 282.729C254.934 283.307 255.28 284.134 255.28 285.211C255.28 285.936 255.104 286.633 254.753 287.302C254.413 287.971 253.875 288.69 253.138 289.461L250.503 292.215H255.739V294.017H247.783ZM258.469 294.017V292.215H261.172V284.514L259.081 285.772L258.231 284.174L261.801 282.032H263.348V292.215H265.881V294.017H258.469ZM271.91 294.187C270.493 294.187 269.411 293.654 268.663 292.589C267.915 291.512 267.541 289.982 267.541 287.999C267.541 285.993 267.915 284.469 268.663 283.426C269.411 282.383 270.493 281.862 271.91 281.862C273.338 281.862 274.42 282.383 275.157 283.426C275.905 284.469 276.279 285.987 276.279 287.982C276.279 289.977 275.905 291.512 275.157 292.589C274.409 293.654 273.326 294.187 271.91 294.187ZM271.91 292.402C272.68 292.402 273.247 292.051 273.61 291.348C273.984 290.634 274.171 289.512 274.171 287.982C274.171 286.463 273.984 285.364 273.61 284.684C273.247 283.993 272.68 283.647 271.91 283.647C271.15 283.647 270.584 283.993 270.21 284.684C269.836 285.364 269.649 286.463 269.649 287.982C269.649 289.512 269.836 290.634 270.21 291.348C270.584 292.051 271.15 292.402 271.91 292.402ZM278.958 296.278L278.091 295.598C278.374 295.315 278.584 295.043 278.72 294.782C278.867 294.533 278.969 294.278 279.026 294.017H277.921V291.654H280.301V293.218C280.301 293.796 280.199 294.323 279.995 294.799C279.802 295.286 279.457 295.779 278.958 296.278ZM282.58 294.017V292.402L286.456 288.271C286.977 287.704 287.351 287.206 287.578 286.775C287.804 286.333 287.918 285.885 287.918 285.432C287.918 284.276 287.221 283.698 285.827 283.698C284.739 283.698 283.736 284.106 282.818 284.922L282.087 283.29C282.563 282.859 283.158 282.514 283.872 282.253C284.586 281.992 285.328 281.862 286.099 281.862C287.379 281.862 288.36 282.151 289.04 282.729C289.731 283.307 290.077 284.134 290.077 285.211C290.077 285.936 289.901 286.633 289.55 287.302C289.21 287.971 288.671 288.69 287.935 289.461L285.3 292.215H290.536V294.017H282.58ZM296.275 294.187C295.459 294.187 294.677 294.068 293.929 293.83C293.192 293.581 292.58 293.246 292.093 292.827L292.807 291.161C293.827 291.954 294.96 292.351 296.207 292.351C297.737 292.351 298.502 291.75 298.502 290.549C298.502 289.982 298.309 289.563 297.924 289.291C297.55 289.008 297 288.866 296.275 288.866H294.354V287.064H296.071C296.706 287.064 297.21 286.911 297.584 286.605C297.958 286.288 298.145 285.851 298.145 285.296C298.145 284.775 297.969 284.378 297.618 284.106C297.278 283.834 296.779 283.698 296.122 283.698C294.943 283.698 293.906 284.106 293.011 284.922L292.297 283.29C292.773 282.837 293.368 282.485 294.082 282.236C294.796 281.987 295.538 281.862 296.309 281.862C297.556 281.862 298.525 282.145 299.216 282.712C299.907 283.267 300.253 284.044 300.253 285.041C300.253 285.687 300.089 286.254 299.76 286.741C299.431 287.228 298.984 287.58 298.417 287.795C299.108 287.988 299.647 288.345 300.032 288.866C300.417 289.376 300.61 289.999 300.61 290.736C300.61 291.801 300.225 292.646 299.454 293.269C298.683 293.881 297.624 294.187 296.275 294.187ZM306.706 294.187C305.29 294.187 304.207 293.654 303.459 292.589C302.711 291.512 302.337 289.982 302.337 287.999C302.337 285.993 302.711 284.469 303.459 283.426C304.207 282.383 305.29 281.862 306.706 281.862C308.134 281.862 309.217 282.383 309.953 283.426C310.701 284.469 311.075 285.987 311.075 287.982C311.075 289.977 310.701 291.512 309.953 292.589C309.205 293.654 308.123 294.187 306.706 294.187ZM306.706 292.402C307.477 292.402 308.044 292.051 308.406 291.348C308.78 290.634 308.967 289.512 308.967 287.982C308.967 286.463 308.78 285.364 308.406 284.684C308.044 283.993 307.477 283.647 306.706 283.647C305.947 283.647 305.38 283.993 305.006 284.684C304.632 285.364 304.445 286.463 304.445 287.982C304.445 289.512 304.632 290.634 305.006 291.348C305.38 292.051 305.947 292.402 306.706 292.402ZM312.718 294.017V291.654H315.098V294.017H312.718ZM320.879 294.187C320.063 294.187 319.281 294.068 318.533 293.83C317.796 293.581 317.184 293.246 316.697 292.827L317.411 291.161C318.431 291.954 319.564 292.351 320.811 292.351C322.341 292.351 323.106 291.75 323.106 290.549C323.106 289.982 322.913 289.563 322.528 289.291C322.154 289.008 321.604 288.866 320.879 288.866H318.958V287.064H320.675C321.309 287.064 321.814 286.911 322.188 286.605C322.562 286.288 322.749 285.851 322.749 285.296C322.749 284.775 322.573 284.378 322.222 284.106C321.882 283.834 321.383 283.698 320.726 283.698C319.547 283.698 318.51 284.106 317.615 284.922L316.901 283.29C317.377 282.837 317.972 282.485 318.686 282.236C319.4 281.987 320.142 281.862 320.913 281.862C322.159 281.862 323.128 282.145 323.82 282.712C324.511 283.267 324.857 284.044 324.857 285.041C324.857 285.687 324.692 286.254 324.364 286.741C324.035 287.228 323.587 287.58 323.021 287.795C323.712 287.988 324.25 288.345 324.636 288.866C325.021 289.376 325.214 289.999 325.214 290.736C325.214 291.801 324.828 292.646 324.058 293.269C323.287 293.881 322.227 294.187 320.879 294.187ZM327.57 294.017V292.402L331.446 288.271C331.967 287.704 332.341 287.206 332.568 286.775C332.795 286.333 332.908 285.885 332.908 285.432C332.908 284.276 332.211 283.698 330.817 283.698C329.729 283.698 328.726 284.106 327.808 284.922L327.077 283.29C327.553 282.859 328.148 282.514 328.862 282.253C329.576 281.992 330.318 281.862 331.089 281.862C332.37 281.862 333.35 282.151 334.03 282.729C334.721 283.307 335.067 284.134 335.067 285.211C335.067 285.936 334.891 286.633 334.54 287.302C334.2 287.971 333.662 288.69 332.925 289.461L330.29 292.215H335.526V294.017H327.57Z" fill="#373B47"/>
<path d="M396.856 260.438C398.115 286.489 391.096 312.269 376.804 334.085L349.162 315.975C359.63 299.997 364.772 281.115 363.849 262.035L396.856 260.438Z" fill="#4BD7FF"/>
<path d="M295.905 144.954C321.553 149.686 345.045 162.415 363.013 181.319C380.981 200.222 392.504 224.329 395.93 250.183L363.171 254.524C360.662 235.587 352.222 217.931 339.062 204.085C325.901 190.24 308.695 180.917 289.91 177.451L295.905 144.954Z" fill="#5F6FFF"/>
<path d="M153.01 293.504C148.733 274.489 149.018 254.733 153.84 235.849C158.662 216.965 167.885 199.491 180.754 184.855C193.623 170.218 209.774 158.836 227.886 151.637C245.997 144.439 265.555 141.629 284.961 143.438L281.894 176.341C267.681 175.016 253.356 177.074 240.091 182.346C226.826 187.618 214.996 195.955 205.57 206.675C196.144 217.395 189.389 230.194 185.858 244.025C182.326 257.856 182.118 272.326 185.25 286.253L153.01 293.504Z" fill="#F367FF"/>
<path d="M171.958 336.701C164.581 326.045 158.928 314.295 155.205 301.882L186.858 292.389C189.584 301.481 193.725 310.087 199.128 317.891L171.958 336.701Z" fill="#9579FF"/>
<path d="M279.399 389.764C259.932 390.695 240.521 387.005 222.752 378.997C204.984 370.988 189.364 358.888 177.168 343.686L202.944 323.008C211.876 334.142 223.317 343.005 236.331 348.87C249.345 354.736 263.562 357.438 277.821 356.756L279.399 389.764Z" fill="#84FF90"/>
<path d="M372.208 340.627C362.069 354.112 349.274 365.376 334.613 373.724C319.952 382.073 303.736 387.329 286.965 389.169L283.362 356.321C295.646 354.973 307.523 351.123 318.261 345.009C328.999 338.894 338.37 330.644 345.797 320.767L372.208 340.627Z" fill="#FF6242"/>
<g filter="url(#filter1_d_1342_847)">
<rect x="142" y="67" width="262" height="49.9048" rx="24.9524" fill="#F4F7FF"/>
</g>
<path d="M170.934 95.8225V94.5505H172.842V89.1145L171.366 90.0025L170.766 88.8745L173.286 87.3625H174.378V94.5505H176.166V95.8225H170.934ZM178.609 95.8225V87.3625H179.893L182.893 92.8945L185.881 87.3625H187.141V95.8225H185.749V90.1225L183.325 94.5385H182.425L180.001 90.1465V95.8225H178.609Z" fill="black"/>
<path d="M218.987 95.9425C217.939 95.9425 217.127 95.5745 216.551 94.8385C215.983 94.1025 215.699 93.0705 215.699 91.7425C215.699 90.3105 216.019 89.2025 216.659 88.4185C217.307 87.6345 218.199 87.2425 219.335 87.2425C219.783 87.2425 220.227 87.3265 220.667 87.4945C221.107 87.6545 221.483 87.8865 221.795 88.1905L221.291 89.3425C220.995 89.0705 220.679 88.8705 220.343 88.7425C220.007 88.6065 219.663 88.5385 219.311 88.5385C218.615 88.5385 218.083 88.7825 217.715 89.2705C217.347 89.7585 217.163 90.4865 217.163 91.4545V91.8025C217.331 91.3625 217.603 91.0185 217.979 90.7705C218.355 90.5225 218.787 90.3985 219.275 90.3985C219.763 90.3985 220.195 90.5145 220.571 90.7465C220.947 90.9785 221.243 91.2985 221.459 91.7065C221.675 92.1145 221.783 92.5825 221.783 93.1105C221.783 93.6545 221.663 94.1425 221.423 94.5745C221.191 94.9985 220.863 95.3345 220.439 95.5825C220.023 95.8225 219.539 95.9425 218.987 95.9425ZM218.903 94.7185C219.335 94.7185 219.683 94.5785 219.947 94.2985C220.219 94.0105 220.355 93.6345 220.355 93.1705C220.355 92.7065 220.219 92.3305 219.947 92.0425C219.683 91.7545 219.335 91.6105 218.903 91.6105C218.471 91.6105 218.119 91.7545 217.847 92.0425C217.583 92.3305 217.451 92.7065 217.451 93.1705C217.451 93.6345 217.583 94.0105 217.847 94.2985C218.119 94.5785 218.471 94.7185 218.903 94.7185ZM224.059 95.8225V87.3625H225.343L228.343 92.8945L231.331 87.3625H232.591V95.8225H231.199V90.1225L228.775 94.5385H227.875L225.451 90.1465V95.8225H224.059Z" fill="black"/>
<path d="M261.831 95.8225V94.5505H263.739V89.1145L262.263 90.0025L261.663 88.8745L264.183 87.3625H265.275V94.5505H267.063V95.8225H261.831ZM271.499 95.8225V91.9345L268.247 87.3625H270.035L272.291 90.5665L274.559 87.3625H276.275L273.035 91.9465V95.8225H271.499Z" fill="black"/>
<rect x="303.3" y="77.6934" width="73.0748" height="28.517" rx="14.2585" fill="white"/>
<path d="M313.113 95.8225L316.525 88.2833H317.647L321.059 95.8225H319.669L318.92 94.0794H315.241L314.503 95.8225H313.113ZM317.07 89.7698L315.712 92.9886H318.449L317.091 89.7698H317.07ZM322.632 95.8225V88.2833H324.001V94.6569H327.616V95.8225H322.632ZM329.386 95.8225V88.2833H330.755V94.6569H334.369V95.8225H329.386ZM341.588 95.8225V89.4276H339V88.2833H345.545V89.4276H342.957V95.8225H341.588ZM347.161 95.8225V88.2833H348.529V95.8225H347.161ZM350.938 95.8225V88.2833H352.082L354.756 93.2132L357.419 88.2833H358.541V95.8225H357.301V90.7429L355.141 94.6783H354.339L352.179 90.7643V95.8225H350.938ZM360.949 95.8225V88.2833H365.965V89.3741H362.265V91.4487H365.73V92.5395H362.265V94.7317H365.965V95.8225H360.949Z" fill="#0E61FE"/>
<defs>
<filter id="filter0_d_1342_847" x="0" y="0" width="547" height="476" filterUnits="userSpaceOnUse" color-interpolation-filters="sRGB">
<feFlood flood-opacity="0" result="BackgroundImageFix"/>
<feColorMatrix in="SourceAlpha" type="matrix" values="0 0 0 0 0 0 0 0 0 0 0 0 0 0 0 0 0 0 127 0" result="hardAlpha"/>
<feOffset dy="4"/>
<feGaussianBlur stdDeviation="20"/>
<feComposite in2="hardAlpha" operator="out"/>
<feColorMatrix type="matrix" values="0 0 0 0 0 0 0 0 0 0 0 0 0 0 0 0 0 0 0.15 0"/>
<feBlend mode="normal" in2="BackgroundImageFix" result="effect1_dropShadow_1342_847"/>
<feBlend mode="normal" in="SourceGraphic" in2="effect1_dropShadow_1342_847" result="shape"/>
</filter>
<filter id="filter1_d_1342_847" x="122" y="51" width="302" height="89.9048" filterUnits="userSpaceOnUse" color-interpolation-filters="sRGB">
<feFlood flood-opacity="0" result="BackgroundImageFix"/>
<feColorMatrix in="SourceAlpha" type="matrix" values="0 0 0 0 0 0 0 0 0 0 0 0 0 0 0 0 0 0 127 0" result="hardAlpha"/>
<feOffset dy="4"/>
<feGaussianBlur stdDeviation="10"/>
<feComposite in2="hardAlpha" operator="out"/>
<feColorMatrix type="matrix" values="0 0 0 0 0 0 0 0 0 0 0 0 0 0 0 0 0 0 0.15 0"/>
<feBlend mode="normal" in2="BackgroundImageFix" result="effect1_dropShadow_1342_847"/>
<feBlend mode="normal" in="SourceGraphic" in2="effect1_dropShadow_1342_847" result="shape"/>
</filter>
</defs>
</svg>
