<svg width="631" height="563" viewBox="0 0 631 563" fill="none" xmlns="http://www.w3.org/2000/svg">
<g filter="url(#filter0_d_1342_846)">
<rect x="82" y="84" width="467" height="396" rx="32" fill="white"/>
</g>
<path d="M301.705 286V276.13H302.923L306.577 282.948L310.217 276.13H311.407V286H310.105V278.762L307.011 284.488H306.129L303.021 278.79V286H301.705ZM316.858 286L312.504 276.13H314.058L317.516 284.166L320.974 276.13H322.458L318.104 286H316.858ZM323.539 286V276.13H327.627C328.691 276.13 329.512 276.396 330.091 276.928C330.669 277.451 330.959 278.188 330.959 279.14C330.959 280.101 330.669 280.848 330.091 281.38C329.512 281.903 328.691 282.164 327.627 282.164H324.995V286H323.539ZM324.995 281.002H327.417C328.835 281.002 329.545 280.381 329.545 279.14C329.545 277.908 328.835 277.292 327.417 277.292H324.995V281.002Z" fill="#AAAED6"/>
<path d="M279.474 308.897C278.699 308.897 277.99 308.799 277.346 308.603C276.702 308.397 276.156 308.113 275.708 307.749L276.17 306.601C276.637 306.955 277.136 307.221 277.668 307.399C278.2 307.576 278.802 307.665 279.474 307.665C280.267 307.665 280.851 307.525 281.224 307.245C281.607 306.955 281.798 306.582 281.798 306.125C281.798 305.751 281.663 305.457 281.392 305.243C281.121 305.019 280.669 304.841 280.034 304.711L278.536 304.403C277.649 304.216 276.987 303.908 276.548 303.479C276.119 303.049 275.904 302.471 275.904 301.743C275.904 301.155 276.058 300.637 276.366 300.189C276.683 299.741 277.122 299.395 277.682 299.153C278.242 298.901 278.886 298.775 279.614 298.775C280.286 298.775 280.907 298.877 281.476 299.083C282.055 299.279 282.545 299.568 282.946 299.951L282.47 301.057C281.677 300.357 280.72 300.007 279.6 300.007C278.909 300.007 278.359 300.161 277.948 300.469C277.547 300.777 277.346 301.187 277.346 301.701C277.346 302.093 277.472 302.405 277.724 302.639C277.976 302.872 278.396 303.049 278.984 303.171L280.468 303.479C281.401 303.675 282.097 303.978 282.554 304.389C283.011 304.79 283.24 305.336 283.24 306.027C283.24 306.605 283.086 307.109 282.778 307.539C282.47 307.968 282.036 308.304 281.476 308.547C280.916 308.78 280.249 308.897 279.474 308.897ZM289.177 308.897C288.234 308.897 287.418 308.691 286.727 308.281C286.036 307.861 285.5 307.273 285.117 306.517C284.744 305.751 284.557 304.855 284.557 303.829C284.557 302.793 284.744 301.897 285.117 301.141C285.5 300.385 286.036 299.801 286.727 299.391C287.418 298.98 288.234 298.775 289.177 298.775C290.11 298.775 290.922 298.98 291.613 299.391C292.313 299.801 292.85 300.385 293.223 301.141C293.606 301.897 293.797 302.788 293.797 303.815C293.797 304.851 293.606 305.751 293.223 306.517C292.85 307.273 292.313 307.861 291.613 308.281C290.922 308.691 290.11 308.897 289.177 308.897ZM289.177 307.637C290.157 307.637 290.918 307.305 291.459 306.643C292.01 305.971 292.285 305.033 292.285 303.829C292.285 302.625 292.014 301.691 291.473 301.029C290.932 300.366 290.166 300.035 289.177 300.035C288.197 300.035 287.432 300.366 286.881 301.029C286.34 301.691 286.069 302.625 286.069 303.829C286.069 305.033 286.34 305.971 286.881 306.643C287.432 307.305 288.197 307.637 289.177 307.637ZM295.749 308.771V298.901H297.205V307.525H302.091V308.771H295.749ZM303.473 308.771V298.901H304.929V308.771H303.473ZM307.206 308.771V298.901H310.692C312.316 298.901 313.566 299.325 314.444 300.175C315.33 301.024 315.774 302.242 315.774 303.829C315.774 305.415 315.33 306.638 314.444 307.497C313.566 308.346 312.316 308.771 310.692 308.771H307.206ZM308.662 307.553H310.608C313.044 307.553 314.262 306.311 314.262 303.829C314.262 301.355 313.044 300.119 310.608 300.119H308.662V307.553ZM321.397 308.771V298.901H324.883C326.507 298.901 327.758 299.325 328.635 300.175C329.522 301.024 329.965 302.242 329.965 303.829C329.965 305.415 329.522 306.638 328.635 307.497C327.758 308.346 326.507 308.771 324.883 308.771H321.397ZM322.853 307.553H324.799C327.235 307.553 328.453 306.311 328.453 303.829C328.453 301.355 327.235 300.119 324.799 300.119H322.853V307.553ZM331.911 308.771V298.901H338.295V300.077H333.311V303.171H338.001V304.347H333.311V307.595H338.295V308.771H331.911ZM343.208 308.771L338.854 298.901H340.408L343.866 306.937L347.324 298.901H348.808L344.454 308.771H343.208ZM353.015 308.897C352.24 308.897 351.531 308.799 350.887 308.603C350.243 308.397 349.697 308.113 349.249 307.749L349.711 306.601C350.178 306.955 350.677 307.221 351.209 307.399C351.741 307.576 352.343 307.665 353.015 307.665C353.808 307.665 354.392 307.525 354.765 307.245C355.148 306.955 355.339 306.582 355.339 306.125C355.339 305.751 355.204 305.457 354.933 305.243C354.662 305.019 354.21 304.841 353.575 304.711L352.077 304.403C351.19 304.216 350.528 303.908 350.089 303.479C349.66 303.049 349.445 302.471 349.445 301.743C349.445 301.155 349.599 300.637 349.907 300.189C350.224 299.741 350.663 299.395 351.223 299.153C351.783 298.901 352.427 298.775 353.155 298.775C353.827 298.775 354.448 298.877 355.017 299.083C355.596 299.279 356.086 299.568 356.487 299.951L356.011 301.057C355.218 300.357 354.261 300.007 353.141 300.007C352.45 300.007 351.9 300.161 351.489 300.469C351.088 300.777 350.887 301.187 350.887 301.701C350.887 302.093 351.013 302.405 351.265 302.639C351.517 302.872 351.937 303.049 352.525 303.171L354.009 303.479C354.942 303.675 355.638 303.978 356.095 304.389C356.552 304.79 356.781 305.336 356.781 306.027C356.781 306.605 356.627 307.109 356.319 307.539C356.011 307.968 355.577 308.304 355.017 308.547C354.457 308.78 353.79 308.897 353.015 308.897Z" fill="#AAAED6"/>
<path d="M258.046 343.972V342.102C257.298 342.045 256.59 341.909 255.921 341.694C255.264 341.467 254.691 341.156 254.204 340.759L254.867 339.042C255.4 339.439 255.983 339.745 256.618 339.96C257.253 340.175 257.95 340.283 258.709 340.283C259.536 340.283 260.143 340.136 260.528 339.841C260.913 339.546 261.106 339.178 261.106 338.736C261.106 338.339 260.976 338.022 260.715 337.784C260.454 337.546 259.99 337.353 259.321 337.206L257.519 336.815C256.499 336.588 255.728 336.214 255.207 335.693C254.697 335.16 254.442 334.458 254.442 333.585C254.442 332.633 254.765 331.834 255.411 331.188C256.068 330.531 256.947 330.134 258.046 329.998V328.077H259.746V329.981C260.335 330.038 260.908 330.179 261.463 330.406C262.018 330.633 262.489 330.939 262.874 331.324L262.228 332.956C261.367 332.163 260.267 331.766 258.93 331.766C258.227 331.766 257.661 331.93 257.23 332.259C256.811 332.576 256.601 332.996 256.601 333.517C256.601 333.902 256.731 334.214 256.992 334.452C257.253 334.69 257.672 334.871 258.25 334.996L260.052 335.387C261.14 335.625 261.945 336.005 262.466 336.526C262.999 337.036 263.265 337.716 263.265 338.566C263.265 339.518 262.936 340.3 262.279 340.912C261.633 341.513 260.789 341.892 259.746 342.051V343.972H258.046ZM265.179 342.017V340.402L269.055 336.271C269.577 335.704 269.951 335.206 270.177 334.775C270.404 334.333 270.517 333.885 270.517 333.432C270.517 332.276 269.82 331.698 268.426 331.698C267.338 331.698 266.335 332.106 265.417 332.922L264.686 331.29C265.162 330.859 265.757 330.514 266.471 330.253C267.185 329.992 267.928 329.862 268.698 329.862C269.979 329.862 270.959 330.151 271.639 330.729C272.331 331.307 272.676 332.134 272.676 333.211C272.676 333.936 272.501 334.633 272.149 335.302C271.809 335.971 271.271 336.69 270.534 337.461L267.899 340.215H273.135V342.017H265.179ZM279.113 342.187C277.696 342.187 276.614 341.654 275.866 340.589C275.118 339.512 274.744 337.982 274.744 335.999C274.744 333.993 275.118 332.469 275.866 331.426C276.614 330.383 277.696 329.862 279.113 329.862C280.541 329.862 281.623 330.383 282.36 331.426C283.108 332.469 283.482 333.987 283.482 335.982C283.482 337.977 283.108 339.512 282.36 340.589C281.612 341.654 280.529 342.187 279.113 342.187ZM279.113 340.402C279.883 340.402 280.45 340.051 280.813 339.348C281.187 338.634 281.374 337.512 281.374 335.982C281.374 334.463 281.187 333.364 280.813 332.684C280.45 331.993 279.883 331.647 279.113 331.647C278.353 331.647 277.787 331.993 277.413 332.684C277.039 333.364 276.852 334.463 276.852 335.982C276.852 337.512 277.039 338.634 277.413 339.348C277.787 340.051 278.353 340.402 279.113 340.402ZM286.161 344.278L285.294 343.598C285.577 343.315 285.787 343.043 285.923 342.782C286.07 342.533 286.172 342.278 286.229 342.017H285.124V339.654H287.504V341.218C287.504 341.796 287.402 342.323 287.198 342.799C287.005 343.286 286.66 343.779 286.161 344.278ZM289.783 342.017V340.402L293.659 336.271C294.18 335.704 294.554 335.206 294.781 334.775C295.008 334.333 295.121 333.885 295.121 333.432C295.121 332.276 294.424 331.698 293.03 331.698C291.942 331.698 290.939 332.106 290.021 332.922L289.29 331.29C289.766 330.859 290.361 330.514 291.075 330.253C291.789 329.992 292.531 329.862 293.302 329.862C294.583 329.862 295.563 330.151 296.243 330.729C296.934 331.307 297.28 332.134 297.28 333.211C297.28 333.936 297.104 334.633 296.753 335.302C296.413 335.971 295.875 336.69 295.138 337.461L292.503 340.215H297.739V342.017H289.783ZM300.469 342.017V340.215H303.172V332.514L301.081 333.772L300.231 332.174L303.801 330.032H305.348V340.215H307.881V342.017H300.469ZM313.91 342.187C312.493 342.187 311.411 341.654 310.663 340.589C309.915 339.512 309.541 337.982 309.541 335.999C309.541 333.993 309.915 332.469 310.663 331.426C311.411 330.383 312.493 329.862 313.91 329.862C315.338 329.862 316.42 330.383 317.157 331.426C317.905 332.469 318.279 333.987 318.279 335.982C318.279 337.977 317.905 339.512 317.157 340.589C316.409 341.654 315.326 342.187 313.91 342.187ZM313.91 340.402C314.68 340.402 315.247 340.051 315.61 339.348C315.984 338.634 316.171 337.512 316.171 335.982C316.171 334.463 315.984 333.364 315.61 332.684C315.247 331.993 314.68 331.647 313.91 331.647C313.15 331.647 312.584 331.993 312.21 332.684C311.836 333.364 311.649 334.463 311.649 335.982C311.649 337.512 311.836 338.634 312.21 339.348C312.584 340.051 313.15 340.402 313.91 340.402ZM320.958 344.278L320.091 343.598C320.374 343.315 320.584 343.043 320.72 342.782C320.867 342.533 320.969 342.278 321.026 342.017H319.921V339.654H322.301V341.218C322.301 341.796 322.199 342.323 321.995 342.799C321.802 343.286 321.457 343.779 320.958 344.278ZM324.58 342.017V340.402L328.456 336.271C328.977 335.704 329.351 335.206 329.578 334.775C329.804 334.333 329.918 333.885 329.918 333.432C329.918 332.276 329.221 331.698 327.827 331.698C326.739 331.698 325.736 332.106 324.818 332.922L324.087 331.29C324.563 330.859 325.158 330.514 325.872 330.253C326.586 329.992 327.328 329.862 328.099 329.862C329.379 329.862 330.36 330.151 331.04 330.729C331.731 331.307 332.077 332.134 332.077 333.211C332.077 333.936 331.901 334.633 331.55 335.302C331.21 335.971 330.671 336.69 329.935 337.461L327.3 340.215H332.536V342.017H324.58ZM338.275 342.187C337.459 342.187 336.677 342.068 335.929 341.83C335.192 341.581 334.58 341.246 334.093 340.827L334.807 339.161C335.827 339.954 336.96 340.351 338.207 340.351C339.737 340.351 340.502 339.75 340.502 338.549C340.502 337.982 340.309 337.563 339.924 337.291C339.55 337.008 339 336.866 338.275 336.866H336.354V335.064H338.071C338.706 335.064 339.21 334.911 339.584 334.605C339.958 334.288 340.145 333.851 340.145 333.296C340.145 332.775 339.969 332.378 339.618 332.106C339.278 331.834 338.779 331.698 338.122 331.698C336.943 331.698 335.906 332.106 335.011 332.922L334.297 331.29C334.773 330.837 335.368 330.485 336.082 330.236C336.796 329.987 337.538 329.862 338.309 329.862C339.556 329.862 340.525 330.145 341.216 330.712C341.907 331.267 342.253 332.044 342.253 333.041C342.253 333.687 342.089 334.254 341.76 334.741C341.431 335.228 340.984 335.58 340.417 335.795C341.108 335.988 341.647 336.345 342.032 336.866C342.417 337.376 342.61 337.999 342.61 338.736C342.61 339.801 342.225 340.646 341.454 341.269C340.683 341.881 339.624 342.187 338.275 342.187ZM348.706 342.187C347.29 342.187 346.207 341.654 345.459 340.589C344.711 339.512 344.337 337.982 344.337 335.999C344.337 333.993 344.711 332.469 345.459 331.426C346.207 330.383 347.29 329.862 348.706 329.862C350.134 329.862 351.217 330.383 351.953 331.426C352.701 332.469 353.075 333.987 353.075 335.982C353.075 337.977 352.701 339.512 351.953 340.589C351.205 341.654 350.123 342.187 348.706 342.187ZM348.706 340.402C349.477 340.402 350.044 340.051 350.406 339.348C350.78 338.634 350.967 337.512 350.967 335.982C350.967 334.463 350.78 333.364 350.406 332.684C350.044 331.993 349.477 331.647 348.706 331.647C347.947 331.647 347.38 331.993 347.006 332.684C346.632 333.364 346.445 334.463 346.445 335.982C346.445 337.512 346.632 338.634 347.006 339.348C347.38 340.051 347.947 340.402 348.706 340.402ZM354.718 342.017V339.654H357.098V342.017H354.718ZM362.879 342.187C362.063 342.187 361.281 342.068 360.533 341.83C359.796 341.581 359.184 341.246 358.697 340.827L359.411 339.161C360.431 339.954 361.564 340.351 362.811 340.351C364.341 340.351 365.106 339.75 365.106 338.549C365.106 337.982 364.913 337.563 364.528 337.291C364.154 337.008 363.604 336.866 362.879 336.866H360.958V335.064H362.675C363.309 335.064 363.814 334.911 364.188 334.605C364.562 334.288 364.749 333.851 364.749 333.296C364.749 332.775 364.573 332.378 364.222 332.106C363.882 331.834 363.383 331.698 362.726 331.698C361.547 331.698 360.51 332.106 359.615 332.922L358.901 331.29C359.377 330.837 359.972 330.485 360.686 330.236C361.4 329.987 362.142 329.862 362.913 329.862C364.159 329.862 365.128 330.145 365.82 330.712C366.511 331.267 366.857 332.044 366.857 333.041C366.857 333.687 366.692 334.254 366.364 334.741C366.035 335.228 365.587 335.58 365.021 335.795C365.712 335.988 366.25 336.345 366.636 336.866C367.021 337.376 367.214 337.999 367.214 338.736C367.214 339.801 366.828 340.646 366.058 341.269C365.287 341.881 364.227 342.187 362.879 342.187ZM369.57 342.017V340.402L373.446 336.271C373.967 335.704 374.341 335.206 374.568 334.775C374.795 334.333 374.908 333.885 374.908 333.432C374.908 332.276 374.211 331.698 372.817 331.698C371.729 331.698 370.726 332.106 369.808 332.922L369.077 331.29C369.553 330.859 370.148 330.514 370.862 330.253C371.576 329.992 372.318 329.862 373.089 329.862C374.37 329.862 375.35 330.151 376.03 330.729C376.721 331.307 377.067 332.134 377.067 333.211C377.067 333.936 376.891 334.633 376.54 335.302C376.2 335.971 375.662 336.69 374.925 337.461L372.29 340.215H377.526V342.017H369.57Z" fill="#373B47"/>
<path d="M438.856 308.438C440.115 334.489 433.096 360.269 418.804 382.085L391.162 363.975C401.63 347.997 406.772 329.115 405.849 310.035L438.856 308.438Z" fill="#4BD7FF"/>
<path d="M337.905 192.954C363.553 197.686 387.045 210.415 405.013 229.319C422.981 248.222 434.504 272.329 437.93 298.183L405.171 302.524C402.662 283.587 394.222 265.931 381.062 252.085C367.901 238.24 350.695 228.917 331.91 225.451L337.905 192.954Z" fill="#5F6FFF"/>
<path d="M195.01 341.504C190.733 322.489 191.018 302.733 195.84 283.849C200.662 264.965 209.885 247.491 222.754 232.855C235.623 218.218 251.774 206.836 269.886 199.637C287.997 192.439 307.555 189.629 326.961 191.438L323.894 224.341C309.681 223.016 295.356 225.074 282.091 230.346C268.826 235.618 256.996 243.955 247.57 254.675C238.144 265.395 231.389 278.194 227.858 292.025C224.326 305.856 224.118 320.326 227.25 334.253L195.01 341.504Z" fill="#F367FF"/>
<path d="M213.958 384.701C206.581 374.045 200.928 362.295 197.205 349.882L228.858 340.389C231.584 349.481 235.725 358.087 241.128 365.891L213.958 384.701Z" fill="#9579FF"/>
<path d="M321.399 437.764C301.932 438.695 282.521 435.005 264.752 426.997C246.984 418.988 231.364 406.888 219.168 391.686L244.944 371.008C253.876 382.142 265.317 391.005 278.331 396.87C291.345 402.736 305.562 405.438 319.821 404.756L321.399 437.764Z" fill="#84FF90"/>
<path d="M414.208 388.627C404.069 402.112 391.274 413.376 376.613 421.724C361.952 430.073 345.736 435.329 328.965 437.169L325.362 404.321C337.646 402.973 349.523 399.123 360.261 393.009C370.999 386.894 380.37 378.644 387.797 368.767L414.208 388.627Z" fill="#FF6242"/>
<g filter="url(#filter1_d_1342_846)">
<rect x="184" y="115" width="262" height="49.9048" rx="24.9524" fill="#F4F7FF"/>
</g>
<path d="M212.934 143.823V142.551H214.842V137.115L213.366 138.003L212.766 136.875L215.286 135.363H216.378V142.551H218.166V143.823H212.934ZM220.609 143.823V135.363H221.893L224.893 140.895L227.881 135.363H229.141V143.823H227.749V138.123L225.325 142.539H224.425L222.001 138.147V143.823H220.609Z" fill="black"/>
<path d="M260.987 143.943C259.939 143.943 259.127 143.575 258.551 142.839C257.983 142.103 257.699 141.071 257.699 139.743C257.699 138.311 258.019 137.203 258.659 136.419C259.307 135.635 260.199 135.243 261.335 135.243C261.783 135.243 262.227 135.327 262.667 135.495C263.107 135.655 263.483 135.887 263.795 136.191L263.291 137.343C262.995 137.071 262.679 136.871 262.343 136.743C262.007 136.607 261.663 136.539 261.311 136.539C260.615 136.539 260.083 136.783 259.715 137.271C259.347 137.759 259.163 138.487 259.163 139.455V139.803C259.331 139.363 259.603 139.019 259.979 138.771C260.355 138.523 260.787 138.399 261.275 138.399C261.763 138.399 262.195 138.515 262.571 138.747C262.947 138.979 263.243 139.299 263.459 139.707C263.675 140.115 263.783 140.583 263.783 141.111C263.783 141.655 263.663 142.143 263.423 142.575C263.191 142.999 262.863 143.335 262.439 143.583C262.023 143.823 261.539 143.943 260.987 143.943ZM260.903 142.719C261.335 142.719 261.683 142.579 261.947 142.299C262.219 142.011 262.355 141.635 262.355 141.171C262.355 140.707 262.219 140.331 261.947 140.043C261.683 139.755 261.335 139.611 260.903 139.611C260.471 139.611 260.119 139.755 259.847 140.043C259.583 140.331 259.451 140.707 259.451 141.171C259.451 141.635 259.583 142.011 259.847 142.299C260.119 142.579 260.471 142.719 260.903 142.719ZM266.059 143.823V135.363H267.343L270.343 140.895L273.331 135.363H274.591V143.823H273.199V138.123L270.775 142.539H269.875L267.451 138.147V143.823H266.059Z" fill="black"/>
<path d="M303.831 143.823V142.551H305.739V137.115L304.263 138.003L303.663 136.875L306.183 135.363H307.275V142.551H309.063V143.823H303.831ZM313.499 143.823V139.935L310.247 135.363H312.035L314.291 138.567L316.559 135.363H318.275L315.035 139.947V143.823H313.499Z" fill="black"/>
<rect x="345.3" y="125.693" width="73.0748" height="28.517" rx="14.2585" fill="white"/>
<path d="M355.113 143.823L358.525 136.283H359.647L363.059 143.823H361.669L360.92 142.079H357.241L356.503 143.823H355.113ZM359.07 137.77L357.712 140.989H360.449L359.091 137.77H359.07ZM364.632 143.823V136.283H366.001V142.657H369.616V143.823H364.632ZM371.386 143.823V136.283H372.755V142.657H376.369V143.823H371.386ZM383.588 143.823V137.428H381V136.283H387.545V137.428H384.957V143.823H383.588ZM389.161 143.823V136.283H390.529V143.823H389.161ZM392.938 143.823V136.283H394.082L396.756 141.213L399.419 136.283H400.541V143.823H399.301V138.743L397.141 142.678H396.339L394.179 138.764V143.823H392.938ZM402.949 143.823V136.283H407.965V137.374H404.265V139.449H407.73V140.539H404.265V142.732H407.965V143.823H402.949Z" fill="#0E61FE"/>
<defs>
<filter id="filter0_d_1342_846" x="42" y="48" width="547" height="476" filterUnits="userSpaceOnUse" color-interpolation-filters="sRGB">
<feFlood flood-opacity="0" result="BackgroundImageFix"/>
<feColorMatrix in="SourceAlpha" type="matrix" values="0 0 0 0 0 0 0 0 0 0 0 0 0 0 0 0 0 0 127 0" result="hardAlpha"/>
<feOffset dy="4"/>
<feGaussianBlur stdDeviation="20"/>
<feComposite in2="hardAlpha" operator="out"/>
<feColorMatrix type="matrix" values="0 0 0 0 0 0 0 0 0 0 0 0 0 0 0 0 0 0 0.15 0"/>
<feBlend mode="normal" in2="BackgroundImageFix" result="effect1_dropShadow_1342_846"/>
<feBlend mode="normal" in="SourceGraphic" in2="effect1_dropShadow_1342_846" result="shape"/>
</filter>
<filter id="filter1_d_1342_846" x="164" y="99" width="302" height="89.9048" filterUnits="userSpaceOnUse" color-interpolation-filters="sRGB">
<feFlood flood-opacity="0" result="BackgroundImageFix"/>
<feColorMatrix in="SourceAlpha" type="matrix" values="0 0 0 0 0 0 0 0 0 0 0 0 0 0 0 0 0 0 127 0" result="hardAlpha"/>
<feOffset dy="4"/>
<feGaussianBlur stdDeviation="10"/>
<feComposite in2="hardAlpha" operator="out"/>
<feColorMatrix type="matrix" values="0 0 0 0 0 0 0 0 0 0 0 0 0 0 0 0 0 0 0.15 0"/>
<feBlend mode="normal" in2="BackgroundImageFix" result="effect1_dropShadow_1342_846"/>
<feBlend mode="normal" in="SourceGraphic" in2="effect1_dropShadow_1342_846" result="shape"/>
</filter>
</defs>
</svg>
