<svg width="98" height="26" viewBox="0 0 98 26" fill="none" xmlns="http://www.w3.org/2000/svg">
<path d="M72.4169 3.66562H69.0471C68.9544 3.66562 68.8792 3.7408 68.8792 3.83353V25.4024C68.8792 25.4951 68.9544 25.5703 69.0471 25.5703H72.4169C72.5097 25.5703 72.5848 25.4951 72.5848 25.4024V3.83353C72.5848 3.7408 72.5097 3.66562 72.4169 3.66562Z" fill="url(#paint0_linear_1299_578)"/>
<path d="M23.8661 3.94214V25.4056C23.8661 25.4982 23.9414 25.5735 24.034 25.5735H45.4974C45.59 25.5735 45.6653 25.4982 45.6653 25.4056V3.94214C45.6653 3.84954 45.59 3.77424 45.4974 3.77424H24.034C23.9414 3.77424 23.8661 3.84954 23.8661 3.94214ZM41.6992 21.888H27.4958C27.4032 21.888 27.3279 21.8126 27.3279 21.72V7.51669C27.3279 7.42409 27.4032 7.34878 27.4958 7.34878H41.6992C41.7918 7.34878 41.8671 7.42409 41.8671 7.51669V21.72C41.8671 21.8126 41.7918 21.888 41.6992 21.888Z" fill="url(#paint1_linear_1299_578)"/>
<path d="M68.0618 25.3012C68.1979 25.3949 68.1316 25.608 67.9664 25.6075L48.4163 25.574C48.3237 25.574 48.2484 25.4987 48.2484 25.4061V3.88907C48.2484 3.79647 48.3237 3.72116 48.4163 3.72116H51.7862C51.8787 3.72116 51.9541 3.79647 51.9541 3.88907V21.7763C51.9541 21.8689 52.0288 21.9437 52.1214 21.9442L63.2065 21.9922C63.2405 21.9922 63.2735 22.0028 63.3013 22.0217L68.0618 25.3012Z" fill="url(#paint2_linear_1299_578)"/>
<path d="M93.427 0.167905V3.60634C93.427 3.69894 93.3517 3.77425 93.2591 3.77425H75.4823C75.3897 3.77425 75.3144 3.84955 75.3144 3.94215V25.4056C75.3144 25.4982 75.3897 25.5735 75.4823 25.5735H96.9458C97.0384 25.5735 97.1137 25.4982 97.1137 25.4056L97.1326 0.167905C97.1326 0.0753062 97.0573 0 96.9647 0H93.5949C93.5023 0 93.427 0.0753062 93.427 0.167905ZM93.1475 21.8874H78.9442C78.8516 21.8874 78.7763 21.8121 78.7763 21.7195V7.51614C78.7763 7.42354 78.8516 7.34824 78.9442 7.34824H93.1475C93.2401 7.34824 93.3154 7.42354 93.3154 7.51614V21.7195C93.3154 21.8121 93.2401 21.8874 93.1475 21.8874Z" fill="url(#paint3_linear_1299_578)"/>
<path d="M19.4324 3.6832H0.167904C0.0753053 3.6832 0 3.7585 0 3.8511V23.6896C0 23.8246 0.15117 23.9044 0.262735 23.8285L17.4187 12.156C17.5302 12.0801 17.6808 12.1599 17.6814 12.2944L17.7115 21.7199C17.7115 21.8125 17.6368 21.8878 17.5442 21.8884L6.34973 21.9369C6.3157 21.9369 6.28279 21.9475 6.2549 21.9665L1.49442 25.2459C1.35831 25.3397 1.42469 25.5528 1.5898 25.5522L21.1957 25.5182C21.2883 25.5182 21.3636 25.4429 21.3636 25.3503V5.27021C21.3636 5.13466 21.2119 5.05489 21.1003 5.13187L3.92877 16.9522C3.81776 17.0286 3.66603 16.9494 3.66547 16.8144L3.61973 7.44629C3.61973 7.35313 3.69448 7.27783 3.78708 7.27727L14.721 7.24268C14.7545 7.24268 14.7874 7.23208 14.8153 7.21312L19.5284 3.98888C19.6645 3.89573 19.5986 3.68208 19.4335 3.68208L19.4324 3.6832Z" fill="url(#paint4_linear_1299_578)"/>
<defs>
<linearGradient id="paint0_linear_1299_578" x1="3.93811e-07" y1="12.3926" x2="97" y2="12.3926" gradientUnits="userSpaceOnUse">
<stop stop-color="#515151"/>
<stop offset="1" stop-color="#0E61FE"/>
</linearGradient>
<linearGradient id="paint1_linear_1299_578" x1="3.93811e-07" y1="12.3926" x2="97" y2="12.3926" gradientUnits="userSpaceOnUse">
<stop stop-color="#515151"/>
<stop offset="1" stop-color="#0E61FE"/>
</linearGradient>
<linearGradient id="paint2_linear_1299_578" x1="3.93811e-07" y1="12.3926" x2="97" y2="12.3926" gradientUnits="userSpaceOnUse">
<stop stop-color="#515151"/>
<stop offset="1" stop-color="#0E61FE"/>
</linearGradient>
<linearGradient id="paint3_linear_1299_578" x1="3.93811e-07" y1="12.3926" x2="97" y2="12.3926" gradientUnits="userSpaceOnUse">
<stop stop-color="#515151"/>
<stop offset="1" stop-color="#0E61FE"/>
</linearGradient>
<linearGradient id="paint4_linear_1299_578" x1="3.93811e-07" y1="12.3926" x2="97" y2="12.3926" gradientUnits="userSpaceOnUse">
<stop stop-color="#515151"/>
<stop offset="1" stop-color="#0E61FE"/>
</linearGradient>
</defs>
</svg>
