<svg width="36" height="36" viewBox="0 0 36 36" fill="none" xmlns="http://www.w3.org/2000/svg">
<path d="M18 0C8.1 0 0 8.1 0 18C0 27.9 8.1 36 18 36C27.9 36 36 27.9 36 18C36 8.1 27.9 0 18 0ZM25.38 27C25.038 27 24.768 26.82 24.39 26.514L15.102 19.008L11.988 26.82H9.306L17.172 7.902C17.37 7.398 17.802 7.146 18.306 7.146C18.81 7.146 19.206 7.398 19.422 7.902L26.586 25.146C26.658 25.344 26.712 25.542 26.712 25.668C26.694 26.424 26.1 27 25.38 27ZM18.306 10.998L22.968 22.5L15.93 16.956L18.306 10.998Z" fill="black"/>
</svg>
