<svg width="26" height="29" viewBox="0 0 26 29" fill="none" xmlns="http://www.w3.org/2000/svg">
<path d="M4.43612 12.2138C4.48601 12.1694 4.54107 12.1311 4.60012 12.0998C4.53928 12.1281 4.4838 12.1666 4.43612 12.2138ZM7.41212 16.2528C7.47212 16.6738 7.65212 20.4168 10.1781 22.5028C10.6914 22.5828 11.2084 22.6369 11.7271 22.6648C12.0071 22.0648 13.0391 22.1108 13.7121 22.2648C12.8684 21.834 12.1265 21.2277 11.5361 20.4868C10.7503 19.8006 10.2295 18.8609 10.0641 17.8308C11.4121 19.7008 12.5261 21.3308 14.9771 22.1568C16.8321 22.7788 18.9981 21.8718 20.4231 20.8708C20.9723 20.3943 21.4342 19.8258 21.7881 19.1908C23.404 16.6194 24.1556 13.5987 23.9331 10.5698C23.9787 9.40023 23.8092 8.23222 23.4331 7.12381C22.9801 6.21581 21.4491 5.40381 20.5531 6.22381C20.5383 6.1427 20.533 6.06015 20.5371 5.97781C20.3941 6.11181 20.3071 6.20981 20.3071 6.20981C20.2328 6.0578 20.1913 5.89189 20.1851 5.72281C20.1979 5.32903 20.36 4.95486 20.6386 4.67627C20.9172 4.39768 21.2913 4.23556 21.6851 4.22281C21.2589 3.64244 20.7621 3.1174 20.2061 2.65981C18.256 1.99343 16.1528 1.91622 14.1591 2.43781C12.7771 2.7349 11.4976 3.39023 10.4488 4.33804C9.40008 5.28585 8.61906 6.49281 8.18412 7.83781C7.99342 8.58033 7.86365 9.33717 7.79612 10.1008C7.76512 10.9848 8.21212 11.7558 8.24612 12.7178C8.00712 13.1118 7.27712 13.1608 6.77212 13.1338C6.73484 12.9433 6.68947 12.7545 6.63612 12.5678C6.23837 12.346 5.81301 12.1779 5.37112 12.0678C5.75866 12.2263 6.075 12.5209 6.26078 12.8961C6.44656 13.2714 6.489 13.7015 6.38012 14.1058C6.00712 13.8928 5.91812 12.9558 5.48012 12.9288C4.85412 12.8908 4.96812 14.1448 4.97112 14.8788C4.75439 14.5563 4.62324 14.184 4.59 13.7969C4.55676 13.4097 4.62253 13.0205 4.78112 12.6658C4.49712 12.5268 4.33712 12.7268 4.18112 12.8828C3.95912 13.9188 3.63412 14.7558 4.24312 15.8028C4.41689 16.0047 4.63484 16.1639 4.88006 16.2679C5.12528 16.372 5.39118 16.4181 5.65712 16.4028C6.22412 16.3468 6.36312 15.7788 6.98112 15.7848C7.09514 15.8029 7.19972 15.859 7.27793 15.9439C7.35615 16.0289 7.40342 16.1377 7.41212 16.2528ZM13.8611 18.1998L13.5611 18.1388C13.5611 18.1388 13.2471 17.0388 13.3981 16.8328C13.4781 16.7258 13.9181 16.5648 14.5341 16.8608C14.5301 16.8618 13.8001 16.9838 13.8611 18.1998ZM19.5671 19.5408C18.4554 19.9178 17.2497 19.9129 16.1411 19.5268C15.6196 19.1447 15.1828 18.6589 14.8581 18.0998C14.7031 17.8998 13.9311 17.3918 14.8461 17.3908C15.5631 19.1908 18.0261 18.9828 20.1031 18.9338C20.0074 19.1967 19.816 19.4129 19.5671 19.5408ZM19.8671 17.9408C19.82 17.588 19.82 17.2306 19.8671 16.8778C20.9194 16.6722 21.9236 16.2702 22.8271 15.6928C22.6021 16.3124 22.203 16.8539 21.6777 17.2523C21.1525 17.6507 20.5235 17.8891 19.8661 17.9388L19.8671 17.9408ZM22.6231 9.86781C22.4401 9.92881 21.2531 10.6298 21.3451 9.74581C21.3916 9.48543 21.5137 9.24448 21.6961 9.05298C21.8786 8.86147 22.1133 8.72787 22.3711 8.66881C22.3623 8.53562 22.3623 8.402 22.3711 8.26881H22.4501C22.7829 9.06041 23.1747 9.8259 23.6221 10.5588C23.3051 11.2968 21.2221 11.9488 21.2561 10.6248C21.7061 10.4248 22.4831 10.5848 22.8821 10.3338C22.7881 10.0768 22.6821 9.83381 22.5821 9.57781L22.6231 9.86781ZM17.4361 14.6178C17.454 14.6499 17.4694 14.6833 17.4821 14.7178C17.5731 14.2108 17.7411 13.6178 18.0301 13.7048C18.1706 13.744 18.2949 13.827 18.3848 13.9418C18.4748 14.0565 18.5257 14.1971 18.5301 14.3428C18.1933 14.5608 17.8761 14.8077 17.5821 15.0808C17.6471 15.3808 17.7261 15.6808 18.1051 15.7488C19.2111 15.9378 20.4981 15.0718 21.2941 14.7698C21.7871 13.9378 21.2511 13.6318 20.8071 13.0968C19.8971 11.9968 18.6771 10.6408 18.7211 8.99681C19.0891 8.72981 19.1211 9.40381 19.1731 9.52681C19.8484 10.8053 20.7049 11.9794 21.7161 13.0128C21.9301 13.2468 22.2831 13.4718 22.3221 13.6268C22.4351 14.0778 22.0281 14.6178 22.0751 14.9168C20.808 15.9144 19.219 16.4126 17.6091 16.3168C17.383 16.0999 17.2412 15.8097 17.2092 15.4979C17.1771 15.1862 17.2568 14.8732 17.4341 14.6148L17.4361 14.6178ZM19.3941 16.9388C19.4576 17.2887 19.4831 17.6444 19.4701 17.9998C17.6591 18.0898 15.5181 17.6418 15.0431 16.3708C16.4356 16.8698 17.9194 17.0625 19.3931 16.9358L19.3941 16.9388ZM15.1381 8.29081C15.3705 8.94588 15.6999 9.56239 16.1151 10.1198C16.3431 10.3418 16.7851 10.6118 16.5661 11.2288C16.4111 11.4677 16.1873 11.6539 15.9241 11.7628C15.1341 11.9958 13.2931 11.8108 13.9161 10.8258C14.5691 10.8558 15.4481 11.2498 15.9361 10.7758C15.8229 10.5957 15.7155 10.4119 15.6141 10.2248C15.1141 10.5408 13.7401 10.5548 13.7401 9.74581C13.7401 8.89381 15.0791 8.71181 15.0791 8.71181L15.0891 8.73581C15.0743 8.58476 15.0907 8.43229 15.1371 8.28781L15.1381 8.29081ZM11.9141 5.36281C13.1091 4.54781 13.7141 5.01281 14.0141 5.55081C14.0915 5.58135 14.1612 5.62852 14.2184 5.68898C14.2755 5.74944 14.3187 5.82172 14.3448 5.9007C14.371 5.97969 14.3794 6.06345 14.3696 6.14606C14.3598 6.22868 14.332 6.30813 14.2881 6.37881C12.6301 5.99281 11.8061 7.07281 11.3031 8.19281C11.1741 8.42681 11.1671 8.26081 11.0931 8.05681C11.0643 8.01579 11.0436 7.96962 11.0321 7.92081C11.0072 7.87642 10.9762 7.8357 10.9401 7.79981C10.7001 7.55281 10.5751 6.27581 11.9141 5.36281Z" fill="#F0D6B7"/>
<path d="M3.28312 27.2798H12.0361C11.9961 27.1448 11.9571 27.0118 11.9181 26.8858C11.7061 26.2507 11.5469 25.5991 11.4421 24.9378C10.369 24.4727 9.33642 23.9192 8.35512 23.2828C8.26882 23.2032 8.1886 23.1173 8.11512 23.0258L2.84912 25.3788C2.84912 25.3788 3.03812 26.1328 3.28312 27.2798Z" fill="#335061"/>
<path d="M6.43312 4.99981C6.58501 4.95311 6.74165 4.92359 6.90012 4.91181C7.14757 4.94589 7.39777 4.95561 7.64712 4.94081C8.14112 4.81781 8.55912 3.70981 8.93212 3.29681C9.23163 3.02144 9.54575 2.76239 9.87312 2.52081C8.50771 2.99105 7.31119 3.85331 6.43312 4.99981ZM4.17712 10.5858C4.49298 10.4188 4.84551 10.3334 5.20277 10.3371C5.56002 10.3408 5.9107 10.4336 6.22302 10.6071C6.53534 10.7806 6.79943 11.0293 6.99136 11.3306C7.18328 11.6319 7.29697 11.9764 7.32212 12.3328C8.01612 12.3148 7.58112 11.4668 7.45612 10.9198C7.08712 9.31181 7.94312 7.57981 7.64812 6.05881C3.78212 6.63681 4.00012 9.60581 4.17712 10.5858Z" fill="#6D6B6D"/>
<path d="M10.2491 1.85081C8.42912 2.36681 6.09712 3.68881 5.34912 5.32381C5.7182 5.24367 6.0806 5.13535 6.43312 4.99981C7.31119 3.85331 8.50771 2.99105 9.87312 2.52081C9.92992 2.46924 9.98305 2.41378 10.0321 2.35481C10.2241 2.26181 10.5081 2.26881 10.5191 1.97981C10.4361 1.89081 10.3481 1.82281 10.2491 1.85081ZM4.50012 6.98481C3.70012 7.86981 3.86412 9.52681 3.96212 10.7058C4.03259 10.6619 4.10536 10.6219 4.18012 10.5858C4.00012 9.60681 3.78612 6.63681 7.65112 6.05881C7.61892 5.89049 7.57139 5.72547 7.50912 5.56581C6.3593 5.62774 5.27934 6.13703 4.50012 6.98481Z" fill="#DCD9D8"/>
<path d="M7.41212 16.2528C7.40397 16.1393 7.35827 16.0316 7.28223 15.9469C7.2062 15.8622 7.10413 15.8052 6.99212 15.7848C7.32712 16.4528 6.47612 16.6628 6.39212 17.1398C6.40316 17.4209 6.44508 17.6999 6.51712 17.9718C6.81348 19.1643 7.3015 20.3007 7.96212 21.3368C8.23385 21.6714 8.57075 21.9473 8.95238 22.1478C9.334 22.3482 9.75239 22.469 10.1821 22.5028C7.65212 20.4178 7.47212 16.6738 7.41212 16.2528ZM18.5251 14.3378C18.5207 14.1921 18.4698 14.0515 18.3798 13.9368C18.2899 13.822 18.1656 13.739 18.0251 13.6998C17.7361 13.6178 17.5681 14.2058 17.4771 14.7128C17.52 14.831 17.5534 14.9524 17.5771 15.0758C17.8711 14.8027 18.1883 14.5558 18.5251 14.3378ZM21.3441 9.74381C21.2521 10.6278 22.4441 9.92681 22.6221 9.86581L22.5791 9.57981C22.4655 9.28722 22.3951 8.97967 22.3701 8.66681C22.1123 8.72587 21.8776 8.85947 21.6951 9.05098C21.5127 9.24249 21.3906 9.48343 21.3441 9.74381ZM13.7391 9.74381C13.7391 10.5528 15.1101 10.5388 15.6131 10.2228C15.3422 9.76569 15.1638 9.25976 15.0881 8.73381L15.0781 8.70981C15.0781 8.70981 13.7391 8.89181 13.7391 9.74381ZM4.19212 12.8848C4.15434 12.9254 4.11245 12.9619 4.06712 12.9938C4.09112 12.6971 4.2227 12.4193 4.43712 12.2128C4.48457 12.1661 4.53971 12.1279 4.60012 12.0998C4.72126 12.041 4.85323 12.0078 4.98778 12.0023C5.12234 11.9968 5.25658 12.0191 5.38212 12.0678C5.82401 12.1779 6.24938 12.346 6.64712 12.5678C6.45412 11.9038 6.12312 11.3048 5.43912 11.2298C5.16427 11.2072 4.88768 11.2406 4.62618 11.3282C4.36467 11.4158 4.1237 11.5557 3.91793 11.7393C3.71215 11.9229 3.54586 12.1464 3.42917 12.3963C3.31247 12.6462 3.24782 12.9172 3.23912 13.1928C3.23936 14.1582 3.60153 15.0884 4.25412 15.7998C3.64412 14.7578 3.97012 13.9208 4.19212 12.8848ZM14.1651 2.44281C16.1588 1.92122 18.262 1.99843 20.2121 2.66481C20.0568 2.54359 19.8931 2.43364 19.7221 2.33581C17.8331 1.26981 14.6361 0.468807 12.6221 1.46981C11.0011 2.27781 8.80912 3.61581 8.06212 5.31081C8.36895 6.12075 8.412 7.00694 8.18512 7.84281C8.62049 6.49718 9.40227 5.28981 10.4519 4.34195C11.5016 3.39409 12.7822 2.73911 14.1651 2.44281ZM20.1881 5.72781C20.1943 5.89689 20.2358 6.0628 20.3101 6.21481C20.3101 6.21481 20.3971 6.11481 20.5401 5.98281C20.5711 5.24881 21.4051 4.83081 22.3721 5.11681C22.1501 4.83081 21.9251 4.52781 21.6911 4.22781C21.2968 4.23981 20.9219 4.40161 20.6427 4.68027C20.3635 4.95894 20.2009 5.33353 20.1881 5.72781ZM11.0921 8.05781C11.1661 8.25781 11.1741 8.42781 11.3021 8.19381C11.2177 8.17607 11.1428 8.12761 11.0921 8.05781Z" fill="#F7E4CD"/>
<path d="M11.0321 7.92181C11.0032 7.66352 11.0425 7.40216 11.1461 7.16381C11.3477 6.66627 11.6873 6.23672 12.125 5.92578C12.5626 5.61484 13.0799 5.43547 13.6161 5.40881C13.7572 5.4312 13.8928 5.47969 14.0161 5.55181C13.7161 5.01381 13.1161 4.55181 11.9161 5.36381C10.5781 6.27681 10.6991 7.55381 10.9431 7.79781C10.9784 7.83481 11.0083 7.87654 11.0321 7.92181Z" fill="#F7E4CD"/>
<path d="M2.84912 25.3788L8.11512 23.0258C7.72912 22.5778 7.03612 21.7258 6.91512 21.7688C4.89393 22.6673 3.00618 23.84 1.30512 25.2538C1.61136 25.9141 1.88175 26.5904 2.11512 27.2798H3.28312C3.14852 26.6439 3.00384 26.0101 2.84912 25.3788Z" fill="#49728B"/>
<path d="M24.0001 27.3068C24.2177 26.6306 24.4007 25.9437 24.5481 25.2488C24.5841 25.0678 24.6541 24.7738 24.7041 24.4928L21.8181 22.3488C22.3742 23.5808 22.421 24.9826 21.9481 26.2488C22.0481 26.6208 22.4021 26.7638 22.5481 27.0988C22.5141 27.1588 22.4801 27.2178 22.4481 27.2778H23.9241C23.9517 27.2802 23.978 27.2903 24.0001 27.3068ZM20.6171 21.9458C20.7751 21.8628 20.9532 21.8261 21.1311 21.8398L20.8931 21.6628C20.7887 21.7442 20.6958 21.8394 20.6171 21.9458Z" fill="#335061"/>
<path d="M24.7561 23.8788C24.6821 23.3418 23.9561 22.9438 23.5841 22.6128C22.9001 21.9998 22.4721 21.4598 21.7611 20.8868C21.5072 21.1829 21.216 21.4439 20.8931 21.6628L21.1301 21.8398C21.2769 21.8639 21.4157 21.9228 21.535 22.0115C21.6544 22.1002 21.7508 22.2162 21.8161 22.3498L24.7001 24.4928C24.7458 24.2915 24.7646 24.085 24.7561 23.8788Z" fill="#49728B"/>
<path d="M17.5721 27.1998C17.5729 27.2254 17.5759 27.2508 17.5811 27.2758H18.0601C18.0601 27.1875 18.0952 27.1028 18.1577 27.0403C18.2201 26.9779 18.3048 26.9428 18.3931 26.9428C18.4814 26.9428 18.5661 26.9779 18.6286 27.0403C18.691 27.1028 18.7261 27.1875 18.7261 27.2758H19.5001V27.2458C19.1066 27.0352 18.7064 26.8375 18.3001 26.6528C17.8761 26.4748 17.5721 27.1998 17.5721 27.1998Z" fill="white"/>
<path d="M17.5721 27.1998C17.5721 27.1998 17.8721 26.4698 18.3021 26.6518C18.6241 26.7898 19.2231 27.1008 19.5021 27.2448C19.5121 27.0248 19.5221 26.8048 19.5361 26.5848C18.9181 26.6238 18.5751 26.0258 18.1421 25.9798C17.7641 25.9388 17.4421 26.4148 16.9521 26.2088C16.8391 26.3328 16.7371 26.4678 16.6221 26.5898C16.8002 26.807 16.9635 27.0359 17.1111 27.2748H17.5871C17.5799 27.2503 17.5749 27.2252 17.5721 27.1998Z" fill="#DCD9D8"/>
<path d="M11.5111 23.1688C10.7374 23.1667 9.96988 23.0314 9.24212 22.7688C9.21348 22.7964 9.19101 22.8298 9.1762 22.8668C9.16138 22.9037 9.15455 22.9434 9.15616 22.9831C9.15776 23.0229 9.16777 23.0619 9.18551 23.0975C9.20326 23.1331 9.22834 23.1646 9.25912 23.1898C9.94064 23.4853 10.6615 23.68 11.3991 23.7678C11.4712 23.5762 11.5091 23.3735 11.5111 23.1688Z" fill="white"/>
<path d="M11.3571 24.0688C11.3584 23.9675 11.3722 23.8667 11.3981 23.7688C10.6605 23.681 9.93964 23.4863 9.25812 23.1908C9.86465 23.6694 10.5905 23.973 11.3571 24.0688Z" fill="#DCD9D8"/>
<path d="M21.6131 25.6928C21.6803 25.408 21.7049 25.1148 21.6861 24.8228C21.665 24.358 21.5981 23.8964 21.4861 23.4448C21.1494 23.404 20.8083 23.4206 20.4771 23.4938C20.1771 23.5548 19.8681 23.6158 19.8081 23.9808C19.7481 24.3458 19.9301 24.5288 19.7471 24.8328C19.5641 25.1368 19.2601 24.9548 18.9561 25.1328C18.7491 25.2568 18.8801 25.5778 18.9851 25.7708C19.7924 25.9544 20.6164 26.0549 21.4441 26.0708C21.5243 25.9569 21.5817 25.8285 21.6131 25.6928ZM12.5621 27.2188L12.6091 27.3468C12.6231 27.3868 12.6381 27.4398 12.6511 27.4858L12.6421 27.3688L12.5621 27.2188Z" fill="#D33833"/>
<path d="M16.5631 25.9248L16.5841 25.3978C16.2663 25.496 15.9231 25.4695 15.6241 25.3238C14.6871 24.8128 15.5741 24.9638 15.2421 24.2858C14.8624 24.084 14.4463 23.9599 14.0181 23.9208C12.7901 23.9208 12.3181 23.6738 12.4501 25.0898C12.5191 25.8498 12.5811 26.6088 12.6411 27.3698C12.7411 27.5578 12.8311 27.7268 12.9031 27.8698C13.5453 27.8077 14.1685 27.6176 14.7361 27.3108C15.3699 26.8824 15.9798 26.4197 16.5631 25.9248ZM17.0271 25.1998C17.0481 25.2888 17.0701 25.3888 17.0911 25.5098C17.1813 25.5582 17.281 25.5863 17.3832 25.592C17.4854 25.5977 17.5876 25.5809 17.6826 25.5428C17.7776 25.5048 17.8631 25.4463 17.9331 25.3716C18.0031 25.2969 18.0558 25.2078 18.0876 25.1105C18.1194 25.0132 18.1295 24.9101 18.1171 24.8085C18.1047 24.7069 18.0702 24.6092 18.016 24.5224C17.9618 24.4356 17.8892 24.3617 17.8034 24.3059C17.7175 24.2502 17.6205 24.214 17.5191 24.1998C17.5524 24.397 17.5228 24.5997 17.4345 24.7792C17.3462 24.9587 17.2037 25.1058 17.0271 25.1998Z" fill="#D33833"/>
<path d="M18.9531 25.1368C19.2531 24.9538 19.5621 25.1368 19.7441 24.8368C19.9261 24.5368 19.7441 24.3498 19.8051 23.9848C19.8661 23.6198 20.1701 23.5588 20.4741 23.4978C20.8053 23.4246 21.1464 23.408 21.4831 23.4488C21.4439 23.1985 21.3212 22.9688 21.1351 22.7968C20.3881 22.3608 19.0791 23.6218 18.4701 23.8898L18.4131 23.9128C18.5034 24.0873 18.5626 24.2761 18.5881 24.4708C18.7228 24.4375 18.8615 24.4234 19.0001 24.4288C19.0928 24.4325 19.1851 24.4436 19.2761 24.4618C19.3211 24.4708 19.3651 24.4818 19.4091 24.4938C19.4927 24.5172 19.574 24.548 19.6521 24.5858C19.3973 24.5961 19.1439 24.6296 18.8951 24.6858C18.8238 24.7067 18.7563 24.7387 18.6951 24.7808C18.6678 25.08 18.6561 25.3804 18.6601 25.6808C18.7655 25.7108 18.8728 25.7388 18.9821 25.7648C18.8771 25.5818 18.7461 25.2608 18.9531 25.1368ZM12.6511 27.4858C12.7021 27.6688 12.7461 27.8328 12.9041 27.8698C12.8321 27.7258 12.7411 27.5568 12.6421 27.3698L12.6511 27.4858ZM12.4501 25.0898C12.3211 23.6738 12.7901 23.9208 14.0181 23.9208C14.4463 23.9599 14.8624 24.084 15.2421 24.2858C15.5741 24.9638 14.6871 24.8128 15.6241 25.3238C15.9231 25.4695 16.2663 25.495 16.5841 25.3968V25.3338C16.2961 25.1892 15.9869 25.0913 15.6681 25.0438C15.5452 25.0252 15.4213 25.0132 15.2971 25.0078C15.3904 24.9629 15.4878 24.9274 15.5881 24.9018C15.9021 24.8525 16.2073 24.7578 16.4941 24.6208C16.4941 24.5418 16.5001 24.4628 16.5031 24.3848C16.436 24.3794 16.3693 24.3704 16.3031 24.3578C16.2433 24.3466 16.1842 24.3319 16.1261 24.3138C16.0241 24.2815 15.9256 24.239 15.8321 24.1868C15.6541 24.0868 15.5011 23.9708 15.3071 23.8648C14.5502 23.4587 13.7394 23.1621 12.8991 22.9838C11.9781 22.8078 11.9701 24.0888 12.0091 25.0328C12.0091 25.1328 12.0171 25.2248 12.0221 25.3128C12.1068 25.9699 12.2902 26.6104 12.5661 27.2128L12.6451 27.3628C12.5821 26.6088 12.5191 25.8498 12.4501 25.0898ZM17.5201 24.1998C17.31 24.2042 17.1066 24.2742 16.9381 24.3998C16.9237 24.5369 16.9261 24.6753 16.9451 24.8118C16.9561 24.8908 16.9731 24.9668 16.9931 25.0498L17.0241 25.1808V25.1978C17.2011 25.1046 17.3442 24.958 17.4332 24.7789C17.5222 24.5998 17.5526 24.3972 17.5201 24.1998Z" fill="#EF3D3A"/>
<path d="M11.1461 7.16381C11.0425 7.40216 11.0032 7.66352 11.0321 7.92181C11.0436 7.97062 11.0643 8.01579 11.0931 8.05681C11.1438 8.12661 11.2187 8.17607 11.3031 8.19381C11.8031 7.07381 12.6301 5.99381 14.2881 6.37981C14.332 6.30913 14.3598 6.22868 14.3696 6.14606C14.3794 6.06345 14.371 5.97969 14.3448 5.9007C14.3187 5.82172 14.2755 5.74944 14.2184 5.68898C14.1612 5.62852 14.0915 5.58135 14.0141 5.55081C13.8908 5.47869 13.7552 5.4312 13.6141 5.40881C13.0783 5.43585 12.5622 5.61487 12.125 5.92578C11.6873 6.23672 11.3477 6.66627 11.1461 7.16381ZM21.2521 10.6268C21.2201 11.9508 23.3011 11.2988 23.6181 10.5608C23.1707 9.8279 22.7789 9.06241 22.4461 8.27081H22.3671C22.3583 8.404 22.3583 8.53762 22.3671 8.67081C22.3921 8.98367 22.4625 9.29122 22.5761 9.58381C22.6711 9.83981 22.7811 10.0838 22.8761 10.3398C22.4791 10.5868 21.7001 10.4298 21.2521 10.6268ZM15.9341 10.7728C15.4461 11.2468 14.5671 10.8528 13.9141 10.8228C13.2911 11.8078 15.1321 11.9928 15.9221 11.7598C16.1853 11.6509 16.4091 11.4647 16.5641 11.2258C16.7831 10.6088 16.3411 10.3388 16.1131 10.1168C15.6979 9.55939 15.3695 8.94288 15.1371 8.28781C15.0907 8.43127 15.0731 8.58269 15.0871 8.73281C15.1628 9.25876 15.3412 9.76469 15.6121 10.2218C15.7261 10.4318 15.8391 10.6208 15.9341 10.7728ZM17.6051 16.3148C19.215 16.4106 20.804 15.9124 22.0711 14.9148C22.0241 14.6148 22.4311 14.0748 22.3181 13.6248C22.2791 13.4698 21.9261 13.2448 21.7121 13.0108C20.7009 11.9774 19.8444 10.8032 19.1691 9.52481C19.1161 9.40181 19.0841 8.72481 18.7171 8.99481C18.6731 10.6368 19.8931 11.9948 20.8031 13.0948C21.2471 13.6298 21.7831 13.9358 21.2901 14.7678C20.4901 15.0678 19.2071 15.9368 18.1011 15.7468C17.7221 15.6818 17.6431 15.3818 17.5781 15.0788C17.5544 14.9554 17.521 14.834 17.4781 14.7158C17.4654 14.6813 17.45 14.6479 17.4321 14.6158C17.2554 14.8737 17.1758 15.1859 17.2075 15.497C17.2391 15.808 17.38 16.0978 17.6051 16.3148ZM4.60012 12.0998C4.54297 12.1305 4.48961 12.1677 4.44112 12.2108C4.2267 12.4173 4.09512 12.6951 4.07112 12.9918C4.11645 12.9599 4.15834 12.9234 4.19612 12.8828C4.34912 12.7268 4.50912 12.5258 4.79612 12.6658C4.63753 13.0205 4.57176 13.4097 4.605 13.7969C4.63824 14.184 4.76939 14.5563 4.98612 14.8788C4.98612 14.1458 4.86912 12.8918 5.49512 12.9288C5.93312 12.9558 6.02212 13.8928 6.39512 14.1058C6.50295 13.7008 6.45909 13.2703 6.2718 12.8954C6.08452 12.5205 5.7667 12.2269 5.37812 12.0698C5.25328 12.0213 5.11983 11.999 4.98601 12.0041C4.85219 12.0093 4.72085 12.0419 4.60012 12.0998ZM19.8681 16.8748C19.821 17.2276 19.821 17.585 19.8681 17.9378C20.526 17.888 21.1555 17.6493 21.681 17.2504C22.2064 16.8514 22.6055 16.3091 22.8301 15.6888C21.9261 16.2667 20.9212 16.6691 19.8681 16.8748ZM19.4701 17.9998C19.4831 17.6427 19.4573 17.2853 19.3931 16.9338C17.9196 17.0614 16.4358 16.8687 15.0431 16.3708C15.5181 17.6428 17.6591 18.0918 19.4701 17.9998ZM14.8461 17.3898C13.9311 17.3898 14.7031 17.9008 14.8581 18.0998C15.1828 18.6589 15.6196 19.1447 16.1411 19.5268C17.2497 19.9129 18.4564 19.9178 19.5681 19.5408C19.8172 19.4126 20.0086 19.1951 20.1041 18.9318C18.0261 18.9818 15.5631 19.1888 14.8461 17.3898Z" fill="#231F20"/>
<path d="M21.9601 27.2798C21.724 26.9028 21.3502 26.6326 20.9181 26.5268C20.6073 26.4641 20.2844 26.5063 20.0001 26.6468C19.9921 26.8468 19.9821 27.0618 19.9691 27.2788L21.9601 27.2798Z" fill="#81B0C4"/>
<path d="M18.9711 22.7488C18.2851 22.8098 17.4781 23.1218 16.7191 23.1678C16.6501 23.1678 16.5811 23.1728 16.5131 23.1728C16.4451 23.1728 16.3771 23.1728 16.3131 23.1628C16.1802 23.1511 16.0488 23.1266 15.9211 23.0878C15.8571 23.0683 15.7943 23.0449 15.7331 23.0178C15.7331 23.0698 15.6621 23.0508 15.6511 23.0938C15.8026 23.2157 15.965 23.3235 16.1361 23.4158C16.2866 23.4972 16.446 23.561 16.6111 23.6058C16.8778 23.6724 17.1523 23.7027 17.4271 23.6958C17.5271 23.6958 17.6391 23.6958 17.7541 23.6868C18.1691 23.3838 18.5371 23.0308 18.9711 22.7488Z" fill="#F0D6B7"/>
<path d="M16.0861 27.0478L15.7351 27.2808H16.2621C16.2048 27.2015 16.1461 27.1238 16.0861 27.0478Z" fill="#81B0C4"/>
<path d="M1.68112 27.7688V27.4338C1.68112 27.3932 1.69724 27.3543 1.72593 27.3256C1.75463 27.2969 1.79354 27.2808 1.83412 27.2808H2.11712C1.88375 26.5914 1.61336 25.9151 1.30712 25.2548C3.00818 23.841 4.89593 22.6683 6.91712 21.7698C7.03512 21.7228 7.72812 22.5788 8.11712 23.0268C8.1906 23.1183 8.27082 23.2042 8.35712 23.2838C9.33842 23.9202 10.371 24.4737 11.4441 24.9388C11.5489 25.6001 11.7081 26.2517 11.9201 26.8868C11.9591 27.0128 11.9981 27.1468 12.0381 27.2808H12.2001C12.2407 27.2808 12.2796 27.2969 12.3083 27.3256C12.337 27.3543 12.3531 27.3932 12.3531 27.4338V27.5918H12.4921C12.5327 27.5918 12.5716 27.6079 12.6003 27.6366C12.629 27.6653 12.6451 27.7042 12.6451 27.7448V27.9998H14.3361V27.7448C14.3361 27.7042 14.3522 27.6653 14.3809 27.6366C14.4096 27.6079 14.4485 27.5918 14.4891 27.5918H15.2691V27.4338C15.2691 27.3932 15.2852 27.3543 15.3139 27.3256C15.3426 27.2969 15.3815 27.2808 15.4221 27.2808H15.7391L16.0901 27.0478C16.1501 27.1238 16.2088 27.2015 16.2661 27.2808H17.1091C16.9615 27.0419 16.7982 26.813 16.6201 26.5958C16.7351 26.4738 16.8371 26.3398 16.9501 26.2148C17.4421 26.4208 17.7621 25.9448 18.1401 25.9858C18.5731 26.0318 18.9161 26.6298 19.5341 26.5908C19.5201 26.8108 19.5101 27.0308 19.5001 27.2508V27.2808H19.9741C19.9861 27.0638 19.9971 26.8518 20.0051 26.6488C20.2894 26.5083 20.6123 26.4661 20.9231 26.5288C21.3552 26.6346 21.729 26.9048 21.9651 27.2818H22.4461C22.4801 27.2218 22.5151 27.1628 22.5461 27.1028C22.4031 26.7678 22.0511 26.6258 21.9461 26.2528C22.419 24.9866 22.3722 23.5848 21.8161 22.3528C21.7508 22.2192 21.6544 22.1032 21.535 22.0145C21.4157 21.9258 21.2769 21.8669 21.1301 21.8428C20.9522 21.8291 20.7741 21.8658 20.6161 21.9488C20.6945 21.8424 20.787 21.7472 20.8911 21.6658C21.214 21.4469 21.5062 21.1859 21.7601 20.8898C22.4721 21.4628 22.9011 22.0018 23.5841 22.6148C23.9541 22.9468 24.6841 23.3448 24.7561 23.8808C24.7653 24.087 24.7471 24.2934 24.7021 24.4948C24.6511 24.7758 24.5821 25.0698 24.5461 25.2508C24.3992 25.945 24.217 26.6312 24.0001 27.3068C24.0219 27.3201 24.04 27.3387 24.0526 27.361C24.0652 27.3832 24.0719 27.4083 24.0721 27.4338V27.9998H24.4401C24.6981 27.1918 24.9511 26.3648 25.2061 25.5108C25.4967 24.8168 25.6587 24.0758 25.6841 23.3238C25.6061 22.7068 24.6441 22.0588 24.1371 21.5698C23.8561 21.2988 22.5441 20.3028 22.4681 19.9298C22.3921 19.5568 23.0031 18.7518 23.1991 18.3438C23.4542 17.7656 23.6619 17.1676 23.8201 16.5558C24.8521 12.9288 24.9571 7.94481 23.4811 4.96381C22.6691 3.63894 21.6179 2.47653 20.3811 1.53581C18.0811 -0.206193 13.8181 -0.399193 11.0421 0.622807C10.2824 0.87 9.54618 1.18424 8.84212 1.56181C7.02412 2.62781 5.09412 3.34181 4.55512 5.48981C3.22712 6.08981 2.82612 7.78981 2.89312 9.75781C2.9834 10.1608 3.03331 10.5719 3.04212 10.9848C3.00512 11.1688 2.75612 11.4038 2.70612 11.5228C2.45339 12.2844 2.37689 13.0934 2.48239 13.8889C2.58788 14.6843 2.87262 15.4454 3.31512 16.1148C3.56044 16.4804 3.87803 16.7919 4.24831 17.0301C4.61859 17.2683 5.03372 17.4281 5.46812 17.4998C5.50921 18.0805 5.66094 18.6481 5.91512 19.1718C6.08512 19.5448 6.72012 20.2148 6.48612 20.6908C6.03101 21.0752 5.5286 21.3999 4.99112 21.6568C3.83312 22.3518 2.99112 22.7768 1.92512 23.5468C1.23312 24.0468 0.15212 24.1088 0.32512 25.2568C0.532128 26.1132 0.802198 26.9532 1.13312 27.7698C1.15812 27.8478 1.18612 27.9248 1.21312 28.0018H1.68312L1.68112 27.7688ZM10.0321 2.35481C9.98305 2.41378 9.92992 2.46924 9.87312 2.52081C9.54575 2.76239 9.23163 3.02144 8.93212 3.29681C8.55912 3.70981 8.14212 4.81781 7.64712 4.94081C7.39777 4.95561 7.14757 4.94589 6.90012 4.91181C6.74165 4.92359 6.58501 4.95311 6.43312 4.99981C6.08063 5.13569 5.71823 5.24434 5.34912 5.32481C6.09712 3.68981 8.42912 2.36681 10.2491 1.85081C10.3491 1.82281 10.4371 1.89181 10.5201 1.98081C10.5091 2.26781 10.2241 2.26181 10.0321 2.35481ZM7.64712 6.05481C7.94712 7.57581 7.08612 9.30881 7.45512 10.9158C7.58012 11.4618 8.01512 12.3098 7.32112 12.3288C7.29597 11.9724 7.18228 11.6279 6.99036 11.3266C6.79843 11.0253 6.53434 10.7766 6.22202 10.6031C5.9097 10.4296 5.55902 10.3368 5.20177 10.3331C4.84451 10.3294 4.49198 10.4148 4.17612 10.5818C4.10136 10.6179 4.02859 10.6579 3.95812 10.7018C3.85812 9.52281 3.69212 7.86581 4.49612 6.98081C5.27534 6.13303 6.3553 5.62373 7.50512 5.56181C7.56762 5.72276 7.61616 5.88913 7.64812 6.05881L7.64712 6.05481ZM4.25412 15.7998C3.60061 15.0912 3.23602 14.1637 3.23212 13.1998C3.24082 12.9242 3.30547 12.6532 3.42217 12.4033C3.53886 12.1534 3.70515 11.9299 3.91093 11.7463C4.1167 11.5627 4.35767 11.4228 4.61918 11.3352C4.88068 11.2476 5.15727 11.2142 5.43212 11.2368C6.11612 11.3118 6.44612 11.9108 6.64012 12.5748C6.69412 12.7618 6.74012 12.9538 6.77612 13.1408C7.28112 13.1678 8.01112 13.1188 8.25012 12.7248C8.21612 11.7628 7.76912 10.9918 7.80012 10.1078C7.86765 9.34417 7.99742 8.58733 8.18812 7.84481C8.415 7.00894 8.37195 6.12275 8.06512 5.31281C8.81212 3.61781 11.0041 2.28081 12.6251 1.47181C14.6341 0.471807 17.8321 1.27181 19.7251 2.33781C19.8961 2.43564 20.0598 2.54559 20.2151 2.66681C20.7711 3.1244 21.2679 3.64944 21.6941 4.22981C21.9281 4.52981 22.1531 4.82981 22.3751 5.11881C21.4081 4.83181 20.5751 5.25081 20.5431 5.98481C20.539 6.06715 20.5443 6.1497 20.5591 6.23081C21.4591 5.40981 22.9861 6.22181 23.4391 7.13081C23.8152 8.23922 23.9847 9.40723 23.9391 10.5768C24.1616 13.6057 23.41 16.6264 21.7941 19.1978C21.4402 19.8328 20.9783 20.4013 20.4291 20.8778C19.0041 21.8778 16.8381 22.7858 14.9831 22.1638C12.5321 21.3408 11.4181 19.7078 10.0701 17.8378C10.2355 18.8679 10.7563 19.8076 11.5421 20.4938C12.1325 21.2347 12.8744 21.841 13.7181 22.2718C13.0451 22.1138 12.0181 22.0638 11.7331 22.6718C11.2144 22.6439 10.6974 22.5898 10.1841 22.5098C9.75439 22.476 9.336 22.3552 8.95438 22.1548C8.57275 21.9543 8.23585 21.6784 7.96412 21.3438C7.3035 20.3077 6.81548 19.1713 6.51912 17.9788C6.44708 17.7069 6.40516 17.4279 6.39412 17.1468C6.48212 16.6688 7.33312 16.4598 6.99412 15.7918C6.37612 15.7858 6.23712 16.3538 5.67012 16.4098C5.40304 16.4242 5.13624 16.3767 4.89059 16.2708C4.64495 16.165 4.42711 16.0038 4.25412 15.7998ZM17.0241 25.1808L16.9931 25.0498C16.9737 24.9712 16.9577 24.8918 16.9451 24.8118C16.9261 24.6753 16.9237 24.5369 16.9381 24.3998C17.1066 24.2742 17.31 24.2032 17.5201 24.1988C17.6215 24.213 17.7185 24.2492 17.8044 24.3049C17.8902 24.3607 17.9628 24.4346 18.017 24.5214C18.0712 24.6082 18.1057 24.7059 18.1181 24.8075C18.1305 24.9091 18.1204 25.0122 18.0886 25.1095C18.0568 25.2068 18.0041 25.2959 17.9341 25.3706C17.8641 25.4453 17.7786 25.5038 17.6836 25.5418C17.5886 25.5799 17.4864 25.5967 17.3842 25.591C17.282 25.5853 17.1823 25.5572 17.0921 25.5088C17.074 25.4048 17.0526 25.3015 17.0281 25.1988L17.0241 25.1808ZM9.24212 22.7608C9.96988 23.0234 10.7374 23.1587 11.5111 23.1608C11.5093 23.3658 11.4714 23.5689 11.3991 23.7608C11.3732 23.8587 11.3594 23.9595 11.3581 24.0608C10.5907 23.964 9.86449 23.659 9.25812 23.1788C9.22869 23.1535 9.20479 23.1225 9.18792 23.0875C9.17105 23.0526 9.16157 23.0146 9.16007 22.9758C9.15857 22.937 9.16508 22.8984 9.1792 22.8622C9.19331 22.8261 9.21474 22.7933 9.24212 22.7658V22.7608ZM16.6091 23.5998C16.444 23.555 16.2846 23.4912 16.1341 23.4098C15.9632 23.3172 15.8009 23.2094 15.6491 23.0878C15.6601 23.0448 15.7281 23.0638 15.7311 23.0118C15.7923 23.0389 15.8551 23.0623 15.9191 23.0818C16.0468 23.1206 16.1782 23.1461 16.3111 23.1578C16.4462 23.1693 16.5819 23.1706 16.7171 23.1618C17.4761 23.1158 18.2831 22.8038 18.9691 22.7428C18.5361 23.0258 18.1691 23.3788 17.7511 23.6808C17.6422 23.6866 17.5332 23.6896 17.4241 23.6898C17.1499 23.6982 16.8757 23.6696 16.6091 23.6048V23.5998ZM14.7371 27.3058C14.1695 27.6126 13.5463 27.8027 12.9041 27.8648C12.7461 27.8278 12.7041 27.6648 12.6511 27.4798C12.6261 27.3893 12.5964 27.3002 12.5621 27.2128C12.2862 26.6104 12.1028 25.9699 12.0181 25.3128C12.0181 25.2248 12.0091 25.1308 12.0051 25.0328C11.9661 24.0888 11.9741 22.8078 12.8951 22.9838C13.7354 23.1621 14.5462 23.4587 15.3031 23.8648C15.4971 23.9708 15.6501 24.0898 15.8281 24.1868C15.9216 24.239 16.0201 24.2815 16.1221 24.3138C16.1802 24.3319 16.2393 24.3466 16.2991 24.3578C16.3653 24.3704 16.432 24.3794 16.4991 24.3848C16.4991 24.4628 16.4931 24.5418 16.4901 24.6208C16.2033 24.7578 15.8981 24.8525 15.5841 24.9018C15.4838 24.9274 15.3864 24.9629 15.2931 25.0078C15.4173 25.0132 15.5412 25.0252 15.6641 25.0438C15.9829 25.0913 16.2921 25.1892 16.5801 25.3338V25.3968L16.5591 25.9238C15.9775 26.4189 15.3682 26.8819 14.7361 27.3108L14.7371 27.3058ZM18.9821 25.7698C18.8728 25.7438 18.7655 25.7158 18.6601 25.6858C18.6561 25.3854 18.6678 25.085 18.6951 24.7858C18.7563 24.7437 18.8238 24.7117 18.8951 24.6908C19.1439 24.6346 19.3973 24.6011 19.6521 24.5908C19.574 24.553 19.4927 24.5222 19.4091 24.4988C19.3652 24.4865 19.3208 24.4758 19.2761 24.4668C19.1853 24.4469 19.093 24.4342 19.0001 24.4288C18.8633 24.4225 18.7264 24.4353 18.5931 24.4668C18.5676 24.2721 18.5084 24.0833 18.4181 23.9088L18.4751 23.8858C19.0841 23.6178 20.3931 22.3568 21.1401 22.7928C21.3262 22.9647 21.4489 23.1945 21.4881 23.4448C21.6001 23.8964 21.667 24.358 21.6881 24.8228C21.7069 25.1148 21.6823 25.408 21.6151 25.6928C21.5831 25.8298 21.5247 25.9592 21.4431 26.0738C20.6147 26.0581 19.7901 25.9575 18.9821 25.7738V25.7698Z" fill="#231F20"/>
<path d="M14.5301 16.8618C13.9141 16.5618 13.4741 16.7268 13.3941 16.8338C13.2421 17.0338 13.5571 18.1398 13.5571 18.1398L13.8571 18.2008C13.8001 16.9838 14.5301 16.8618 14.5301 16.8618Z" fill="#F7E4CD"/>
<path d="M18.3931 26.9608C18.3072 26.961 18.2247 26.9942 18.1627 27.0536C18.1007 27.113 18.064 27.194 18.0601 27.2798H18.7261C18.7223 27.194 18.6855 27.113 18.6235 27.0536C18.5615 26.9942 18.479 26.961 18.3931 26.9608Z" fill="#1D1919"/>
<path d="M12.6421 27.7448C12.6421 27.7042 12.626 27.6653 12.5973 27.6366C12.5686 27.6079 12.5297 27.5918 12.4891 27.5918H12.3501V27.7688C12.3501 27.8094 12.334 27.8483 12.3053 27.877C12.2766 27.9057 12.2377 27.9218 12.1971 27.9218H1.83412C1.79354 27.9218 1.75463 27.9057 1.72593 27.877C1.69724 27.8483 1.68112 27.8094 1.68112 27.7688V27.9998H12.6421V27.7448ZM23.9181 27.9218H15.4181C15.3775 27.9218 15.3386 27.9057 15.3099 27.877C15.2812 27.8483 15.2651 27.8094 15.2651 27.7688V27.5918H14.4851C14.4445 27.5918 14.4056 27.6079 14.3769 27.6366C14.3482 27.6653 14.3321 27.7042 14.3321 27.7448V27.9998H24.0691V27.7688C24.0691 27.809 24.0533 27.8477 24.025 27.8763C23.9968 27.9049 23.9583 27.9213 23.9181 27.9218Z" fill="#231F20"/>
<path d="M1.83412 27.9218H12.2001C12.2407 27.9218 12.2796 27.9057 12.3083 27.877C12.337 27.8483 12.3531 27.8094 12.3531 27.7688V27.4338C12.3531 27.3932 12.337 27.3543 12.3083 27.3256C12.2796 27.2969 12.2407 27.2808 12.2001 27.2808H1.83412C1.79354 27.2808 1.75463 27.2969 1.72593 27.3256C1.69724 27.3543 1.68112 27.3932 1.68112 27.4338V27.7688C1.68112 27.8094 1.69724 27.8483 1.72593 27.877C1.75463 27.9057 1.79354 27.9218 1.83412 27.9218ZM15.2661 27.7688C15.2661 27.8094 15.2812 27.8483 15.3099 27.877C15.3386 27.9057 15.3785 27.9218 15.4191 27.9218H23.9191C23.9597 27.9218 23.9986 27.9057 24.0273 27.877C24.056 27.8483 24.0721 27.8094 24.0721 27.7688V27.4338C24.0719 27.4083 24.0652 27.3832 24.0526 27.361C24.04 27.3387 24.0219 27.3201 24.0001 27.3068C23.9762 27.2905 23.9481 27.2814 23.9191 27.2808H15.4191C15.3785 27.2808 15.3396 27.2969 15.3109 27.3256C15.2822 27.3543 15.2661 27.3932 15.2661 27.4338V27.7688Z" fill="#231F20"/>
</svg>
