<svg width="59" height="59" viewBox="0 0 59 59" fill="none" xmlns="http://www.w3.org/2000/svg">
<circle cx="29.5" cy="29.5" r="29.5" fill="white"/>
<path d="M42.2881 14.0016H15.2358C15.1058 14.0016 15 14.1118 15 14.2473V43.2747C15 43.4722 15.2123 43.5889 15.3689 43.4779L39.4603 26.3989C39.617 26.2879 39.8285 26.4046 39.8292 26.6013L39.8715 40.3927C39.8715 40.5282 39.7666 40.6384 39.6365 40.6392L23.9167 40.7102C23.8689 40.7102 23.8227 40.7257 23.7835 40.7535L17.0985 45.5519C16.9074 45.689 17.0006 46.0008 17.2325 46L44.7642 45.9502C44.8943 45.9502 45 45.84 45 45.7045V16.3237C45 16.1254 44.7869 16.0087 44.6303 16.1213L20.5162 33.4166C20.3603 33.5284 20.1473 33.4125 20.1465 33.215L20.0823 19.5077C20.0823 19.3714 20.1872 19.2612 20.3172 19.2604L35.6713 19.2098C35.7183 19.2098 35.7645 19.1943 35.8037 19.1666L42.4221 14.4489C42.6132 14.3126 42.5208 14 42.2889 14L42.2881 14.0016Z" fill="#5C5C5C"/>
</svg>
