<svg width="50" height="50" viewBox="0 0 50 50" fill="none" xmlns="http://www.w3.org/2000/svg">
<circle cx="25" cy="25" r="24.5" fill="#262626" stroke="#AFAFAF"/>
<path d="M31.2399 14.1626C30.1891 14.0512 29.133 13.9969 28.0764 14.0001C24.5732 14.0001 22.3962 16.2314 22.3962 19.8231V22.2616H19.4535C19.3153 22.2616 19.1828 22.3165 19.0852 22.4141C18.9875 22.5118 18.9326 22.6443 18.9326 22.7824V26.7928C18.9326 26.931 18.9875 27.0635 19.0852 27.1611C19.1828 27.2588 19.3153 27.3137 19.4535 27.3137H22.3962V35.3553C22.3962 35.4935 22.451 35.626 22.5487 35.7236C22.6464 35.8213 22.7789 35.8762 22.917 35.8762H27.0607C27.1989 35.8762 27.3314 35.8213 27.429 35.7236C27.5267 35.626 27.5816 35.4935 27.5816 35.3553V27.3137H30.5149C30.6414 27.3137 30.7635 27.2678 30.8586 27.1844C30.9536 27.101 31.0151 26.9859 31.0316 26.8606L31.5493 22.8501C31.5589 22.7766 31.5528 22.7019 31.5312 22.631C31.5096 22.56 31.4732 22.4945 31.4243 22.4388C31.3754 22.3831 31.3151 22.3385 31.2476 22.3079C31.18 22.2773 31.1068 22.2616 31.0326 22.2616H27.5816V20.221C27.5816 19.2106 27.7847 18.7887 29.0482 18.7887H31.1722C31.3103 18.7887 31.4428 18.7338 31.5405 18.6361C31.6382 18.5385 31.693 18.406 31.693 18.2678V14.6793C31.6931 14.5529 31.6472 14.4307 31.5638 14.3356C31.4804 14.2406 31.3653 14.1791 31.2399 14.1626ZM30.6514 17.746L29.0472 17.747C26.8003 17.747 26.5399 19.1595 26.5399 20.221V22.7835C26.5399 22.9214 26.5946 23.0537 26.6921 23.1514C26.7895 23.249 26.9217 23.304 27.0597 23.3043H30.441L30.0566 26.2731H27.0607C26.9226 26.2731 26.7901 26.3279 26.6925 26.4256C26.5948 26.5233 26.5399 26.6558 26.5399 26.7939V34.8335H23.4378V26.7939C23.4378 26.6558 23.383 26.5233 23.2853 26.4256C23.1876 26.3279 23.0551 26.2731 22.917 26.2731H19.9753V23.3043H22.917C23.0551 23.3043 23.1876 23.2494 23.2853 23.1518C23.383 23.0541 23.4378 22.9216 23.4378 22.7835V19.8231C23.4378 16.8293 25.1722 15.0418 28.0764 15.0418C29.1274 15.0418 30.0764 15.0991 30.6514 15.1491V17.746Z" fill="white"/>
</svg>
