<svg width="50" height="50" viewBox="0 0 50 50" fill="none" xmlns="http://www.w3.org/2000/svg">
<circle cx="25" cy="25" r="24.5" fill="#262626" stroke="#AFAFAF"/>
<path d="M29.1661 19.7917C29.1661 19.5155 29.2758 19.2505 29.4712 19.0552C29.6665 18.8598 29.9315 18.7501 30.2078 18.7501C30.484 18.7501 30.749 18.8598 30.9443 19.0552C31.1397 19.2505 31.2494 19.5155 31.2494 19.7917C31.2494 20.068 31.1397 20.3329 30.9443 20.5283C30.749 20.7236 30.484 20.8334 30.2078 20.8334C29.9315 20.8334 29.6665 20.7236 29.4712 20.5283C29.2758 20.3329 29.1661 20.068 29.1661 19.7917Z" fill="white"/>
<path fill-rule="evenodd" clip-rule="evenodd" d="M24.9994 20.0521C23.6872 20.0521 22.4286 20.5734 21.5007 21.5014C20.5728 22.4293 20.0515 23.6878 20.0515 25.0001C20.0515 26.3123 20.5728 27.5708 21.5007 28.4988C22.4286 29.4267 23.6872 29.948 24.9994 29.948C26.3117 29.948 27.5702 29.4267 28.4981 28.4988C29.426 27.5708 29.9473 26.3123 29.9473 25.0001C29.9473 23.6878 29.426 22.4293 28.4981 21.5014C27.5702 20.5734 26.3117 20.0521 24.9994 20.0521ZM21.614 25.0001C21.614 24.1022 21.9707 23.2411 22.6056 22.6062C23.2405 21.9713 24.1016 21.6146 24.9994 21.6146C25.8973 21.6146 26.7584 21.9713 27.3933 22.6062C28.0282 23.2411 28.3848 24.1022 28.3848 25.0001C28.3848 25.8979 28.0282 26.759 27.3933 27.3939C26.7584 28.0288 25.8973 28.3855 24.9994 28.3855C24.1016 28.3855 23.2405 28.0288 22.6056 27.3939C21.9707 26.759 21.614 25.8979 21.614 25.0001Z" fill="white"/>
<path fill-rule="evenodd" clip-rule="evenodd" d="M30.4765 15.4511C26.8363 15.0476 23.1626 15.0476 19.5223 15.4511C17.4265 15.6855 15.7338 17.3365 15.488 19.4428C15.0561 23.135 15.0561 26.8651 15.488 30.5573C15.7338 32.6636 17.4255 34.3146 19.5223 34.549C23.1626 34.9521 26.8362 34.9521 30.4765 34.549C32.5723 34.3146 34.2651 32.6636 34.5109 30.5573C34.9428 26.8651 34.9428 23.135 34.5109 19.4428C34.2651 17.3365 32.5734 15.6855 30.4765 15.4511ZM19.6953 17.0032C23.2206 16.6124 26.7783 16.6124 30.3036 17.0032C31.689 17.1594 32.7984 18.2521 32.9598 19.6251C33.3775 23.1962 33.3775 26.8039 32.9598 30.3751C32.8763 31.047 32.5687 31.6711 32.0868 32.1467C31.6048 32.6222 30.9766 32.9214 30.3036 32.9959C26.7783 33.3867 23.2206 33.3867 19.6953 32.9959C19.0223 32.9214 18.3941 32.6222 17.9121 32.1467C17.4301 31.6711 17.1225 31.047 17.039 30.3751C16.6214 26.8039 16.6214 23.1962 17.039 19.6251C17.1225 18.9531 17.4301 18.329 17.9121 17.8534C18.3941 17.3779 19.0223 17.0777 19.6953 17.0032Z" fill="white"/>
</svg>
