<svg width="50" height="50" viewBox="0 0 50 50" fill="none" xmlns="http://www.w3.org/2000/svg">
<circle cx="25" cy="25" r="24.5" fill="#262626" stroke="#AFAFAF"/>
<path d="M20.313 21.8754H16.1463C16.0082 21.8754 15.8757 21.9303 15.778 22.0279C15.6804 22.1256 15.6255 22.2581 15.6255 22.3962V34.8962C15.6255 35.0344 15.6804 35.1668 15.778 35.2645C15.8757 35.3622 16.0082 35.4171 16.1463 35.4171H20.313C20.4511 35.4171 20.5836 35.3622 20.6813 35.2645C20.7789 35.1668 20.8338 35.0344 20.8338 34.8962V22.3962C20.8338 22.2581 20.7789 22.1256 20.6813 22.0279C20.5836 21.9303 20.4511 21.8754 20.313 21.8754ZM19.7922 34.3754H16.6672V22.9171H19.7922V34.3754ZM31.2505 21.8754C30.1203 21.8754 29.0213 22.2483 28.1255 22.9369V22.3962C28.1255 22.2581 28.0706 22.1256 27.9729 22.0279C27.8753 21.9303 27.7428 21.8754 27.6047 21.8754H23.438C23.2999 21.8754 23.1674 21.9303 23.0697 22.0279C22.972 22.1256 22.9172 22.2581 22.9172 22.3962V34.8962C22.9172 35.0344 22.972 35.1668 23.0697 35.2645C23.1674 35.3622 23.2999 35.4171 23.438 35.4171H27.6047C27.7428 35.4171 27.8753 35.3622 27.9729 35.2645C28.0706 35.1668 28.1255 35.0344 28.1255 34.8962V29.1671C28.1255 28.7527 28.2901 28.3552 28.5831 28.0622C28.8762 27.7692 29.2736 27.6046 29.688 27.6046C30.1024 27.6046 30.4998 27.7692 30.7928 28.0622C31.0859 28.3552 31.2505 28.7527 31.2505 29.1671V34.8962C31.2505 35.0344 31.3054 35.1668 31.403 35.2645C31.5007 35.3622 31.6332 35.4171 31.7713 35.4171H35.938C36.0761 35.4171 36.2086 35.3622 36.3063 35.2645C36.4039 35.1668 36.4588 35.0344 36.4588 34.8962V27.0837C36.4572 25.7029 35.9079 24.3791 34.9315 23.4027C33.9551 22.4263 32.6313 21.8771 31.2505 21.8754ZM35.4172 34.3754H32.2922V29.1671C32.2922 28.4764 32.0178 27.814 31.5294 27.3256C31.041 26.8373 30.3787 26.5629 29.688 26.5629C28.9973 26.5629 28.3349 26.8373 27.8466 27.3256C27.3582 27.814 27.0838 28.4764 27.0838 29.1671V34.3754H23.9588V22.9171H27.0838V24.1702C27.0838 24.2781 27.1173 24.3833 27.1796 24.4713C27.242 24.5593 27.3301 24.6259 27.4319 24.6616C27.5336 24.6974 27.644 24.7007 27.7477 24.6711C27.8514 24.6415 27.9434 24.5804 28.0109 24.4962C28.5458 23.8182 29.279 23.324 30.1082 23.0825C30.9374 22.841 31.8213 22.8643 32.6366 23.1492C33.452 23.434 34.1581 23.9662 34.6565 24.6715C35.1549 25.3768 35.4208 26.2201 35.4172 27.0837V34.3754ZM18.613 14.5858C18.4906 14.5772 18.3678 14.5765 18.2453 14.5837C17.8555 14.5572 17.4643 14.611 17.0961 14.7418C16.728 14.8726 16.3906 15.0776 16.1048 15.3441C15.8191 15.6106 15.5911 15.9329 15.435 16.2911C15.2789 16.6493 15.198 17.0357 15.1974 17.4264C15.1941 17.8131 15.2704 18.1963 15.4213 18.5522C15.5723 18.9082 15.7948 19.2294 16.075 19.4958C16.3552 19.7622 16.6871 19.9683 17.0503 20.1011C17.4134 20.234 17.7999 20.2908 18.1859 20.2681H18.2151C18.5882 20.2942 18.9628 20.2466 19.3175 20.128C19.6722 20.0093 20 19.822 20.2823 19.5766C20.5646 19.3313 20.7958 19.0327 20.9628 18.698C21.1297 18.3633 21.229 17.999 21.2552 17.6259C21.2813 17.2528 21.2337 16.8782 21.115 16.5235C20.9964 16.1688 20.8091 15.841 20.5637 15.5587C20.3184 15.2764 20.0198 15.0451 19.6851 14.8782C19.3504 14.7113 18.9861 14.6119 18.613 14.5858ZM18.5765 19.2296C18.4562 19.2405 18.3352 19.2395 18.2151 19.2264H18.1859C17.9352 19.2453 17.6833 19.2117 17.4464 19.1277C17.2094 19.0437 16.9925 18.9112 16.8096 18.7388C16.6267 18.5663 16.4818 18.3575 16.3841 18.1259C16.2864 17.8942 16.2381 17.6448 16.2423 17.3934C16.2464 17.142 16.3029 16.8943 16.4082 16.666C16.5135 16.4377 16.6652 16.2338 16.8537 16.0674C17.0422 15.9011 17.2633 15.7758 17.5029 15.6997C17.7425 15.6236 17.9953 15.5983 18.2453 15.6254C18.7232 15.5815 19.199 15.7292 19.5681 16.0361C19.9371 16.343 20.1691 16.7839 20.213 17.2619C20.2569 17.7398 20.1092 18.2156 19.8023 18.5846C19.4954 18.9536 19.0545 19.1856 18.5765 19.2296Z" fill="white"/>
</svg>
