<svg width="162" height="43" viewBox="0 0 162 43" fill="none" xmlns="http://www.w3.org/2000/svg">
<rect width="162" height="43" fill="#6298FF"/>
<path d="M36.389 27.153C35.4483 27.153 34.587 27.034 33.805 26.796C33.023 26.5467 32.36 26.201 31.816 25.759L32.377 24.365C32.9437 24.7957 33.55 25.1187 34.196 25.334C34.842 25.5493 35.573 25.657 36.389 25.657C37.3523 25.657 38.0607 25.487 38.514 25.147C38.9787 24.7957 39.211 24.3423 39.211 23.787C39.211 23.3337 39.0467 22.9767 38.718 22.716C38.3893 22.444 37.8397 22.2287 37.069 22.07L35.25 21.696C34.1733 21.4693 33.3687 21.0953 32.836 20.574C32.3147 20.0527 32.054 19.35 32.054 18.466C32.054 17.752 32.241 17.123 32.615 16.579C33.0003 16.035 33.533 15.6157 34.213 15.321C34.893 15.015 35.675 14.862 36.559 14.862C37.375 14.862 38.1287 14.9867 38.82 15.236C39.5227 15.474 40.1177 15.8253 40.605 16.29L40.027 17.633C39.0637 16.783 37.902 16.358 36.542 16.358C35.7033 16.358 35.0347 16.545 34.536 16.919C34.0487 17.293 33.805 17.7917 33.805 18.415C33.805 18.891 33.958 19.2707 34.264 19.554C34.57 19.8373 35.08 20.0527 35.794 20.2L37.596 20.574C38.7293 20.812 39.5737 21.1803 40.129 21.679C40.6843 22.1663 40.962 22.8293 40.962 23.668C40.962 24.3707 40.775 24.9827 40.401 25.504C40.027 26.0253 39.5 26.4333 38.82 26.728C38.14 27.0113 37.3297 27.153 36.389 27.153ZM48.1712 27.153C47.0265 27.153 46.0349 26.9037 45.1962 26.405C44.3575 25.895 43.7059 25.181 43.2412 24.263C42.7879 23.3337 42.5612 22.2457 42.5612 20.999C42.5612 19.741 42.7879 18.653 43.2412 17.735C43.7059 16.817 44.3575 16.1087 45.1962 15.61C46.0349 15.1113 47.0265 14.862 48.1712 14.862C49.3045 14.862 50.2905 15.1113 51.1292 15.61C51.9792 16.1087 52.6309 16.817 53.0842 17.735C53.5489 18.653 53.7812 19.7353 53.7812 20.982C53.7812 22.24 53.5489 23.3337 53.0842 24.263C52.6309 25.181 51.9792 25.895 51.1292 26.405C50.2905 26.9037 49.3045 27.153 48.1712 27.153ZM48.1712 25.623C49.3612 25.623 50.2849 25.2207 50.9422 24.416C51.6109 23.6 51.9452 22.461 51.9452 20.999C51.9452 19.537 51.6165 18.4037 50.9592 17.599C50.3019 16.7943 49.3725 16.392 48.1712 16.392C46.9812 16.392 46.0519 16.7943 45.3832 17.599C44.7259 18.4037 44.3972 19.537 44.3972 20.999C44.3972 22.461 44.7259 23.6 45.3832 24.416C46.0519 25.2207 46.9812 25.623 48.1712 25.623ZM56.1508 27V15.015H57.9188V25.487H63.8518V27H56.1508ZM65.5307 27V15.015H67.2987V27H65.5307ZM70.0629 27V15.015H74.2959C76.2679 15.015 77.7866 15.5307 78.8519 16.562C79.9286 17.5933 80.4669 19.0723 80.4669 20.999C80.4669 22.9257 79.9286 24.4103 78.8519 25.453C77.7866 26.4843 76.2679 27 74.2959 27H70.0629ZM71.8309 25.521H74.1939C77.1519 25.521 78.6309 24.0137 78.6309 20.999C78.6309 17.9957 77.1519 16.494 74.1939 16.494H71.8309V25.521ZM87.2954 27V15.015H91.5284C93.5004 15.015 95.019 15.5307 96.0844 16.562C97.161 17.5933 97.6994 19.0723 97.6994 20.999C97.6994 22.9257 97.161 24.4103 96.0844 25.453C95.019 26.4843 93.5004 27 91.5284 27H87.2954ZM89.0634 25.521H91.4264C94.3844 25.521 95.8634 24.0137 95.8634 20.999C95.8634 17.9957 94.3844 16.494 91.4264 16.494H89.0634V25.521ZM100.062 27V15.015H107.814V16.443H101.762V20.2H107.457V21.628H101.762V25.572H107.814V27H100.062ZM113.781 27L108.494 15.015H110.381L114.58 24.773L118.779 15.015H120.581L115.294 27H113.781ZM125.689 27.153C124.748 27.153 123.887 27.034 123.105 26.796C122.323 26.5467 121.66 26.201 121.116 25.759L121.677 24.365C122.243 24.7957 122.85 25.1187 123.496 25.334C124.142 25.5493 124.873 25.657 125.689 25.657C126.652 25.657 127.36 25.487 127.814 25.147C128.278 24.7957 128.511 24.3423 128.511 23.787C128.511 23.3337 128.346 22.9767 128.018 22.716C127.689 22.444 127.139 22.2287 126.369 22.07L124.55 21.696C123.473 21.4693 122.668 21.0953 122.136 20.574C121.614 20.0527 121.354 19.35 121.354 18.466C121.354 17.752 121.541 17.123 121.915 16.579C122.3 16.035 122.833 15.6157 123.513 15.321C124.193 15.015 124.975 14.862 125.859 14.862C126.675 14.862 127.428 14.9867 128.12 15.236C128.822 15.474 129.417 15.8253 129.905 16.29L129.327 17.633C128.363 16.783 127.202 16.358 125.842 16.358C125.003 16.358 124.334 16.545 123.836 16.919C123.348 17.293 123.105 17.7917 123.105 18.415C123.105 18.891 123.258 19.2707 123.564 19.554C123.87 19.8373 124.38 20.0527 125.094 20.2L126.896 20.574C128.029 20.812 128.873 21.1803 129.429 21.679C129.984 22.1663 130.262 22.8293 130.262 23.668C130.262 24.3707 130.075 24.9827 129.701 25.504C129.327 26.0253 128.8 26.4333 128.12 26.728C127.44 27.0113 126.629 27.153 125.689 27.153Z" fill="white"/>
</svg>
