<svg width="74" height="74" viewBox="0 0 74 74" fill="none" xmlns="http://www.w3.org/2000/svg">
<circle cx="37" cy="37" r="35.5" fill="#262626" stroke="#6298FF" stroke-width="3"/>
<path d="M48.2881 21.0016H21.2358C21.1058 21.0016 21 21.1118 21 21.2473V50.2747C21 50.4722 21.2123 50.5889 21.3689 50.4779L45.4603 33.3989C45.617 33.2879 45.8285 33.4046 45.8292 33.6013L45.8715 47.3927C45.8715 47.5282 45.7666 47.6384 45.6365 47.6392L29.9167 47.7102C29.8689 47.7102 29.8227 47.7257 29.7835 47.7535L23.0985 52.5519C22.9074 52.689 23.0006 53.0008 23.2325 53L50.7642 52.9502C50.8943 52.9502 51 52.84 51 52.7045V23.3237C51 23.1254 50.7869 23.0087 50.6303 23.1213L26.5162 40.4166C26.3603 40.5284 26.1473 40.4125 26.1465 40.215L26.0823 26.5077C26.0823 26.3714 26.1872 26.2612 26.3172 26.2604L41.6713 26.2098C41.7183 26.2098 41.7645 26.1943 41.8037 26.1666L48.4221 21.4489C48.6132 21.3126 48.5208 21 48.2889 21L48.2881 21.0016Z" fill="white"/>
<rect x="53" y="49" width="4" height="4" fill="#6298FF"/>
</svg>
