<svg width="90" height="76" viewBox="0 0 90 76" fill="none" xmlns="http://www.w3.org/2000/svg">
<path d="M-13 24.6667C-13 22.0893 -10.9039 20 -8.31818 20C-5.73249 20 -3.63636 22.0893 -3.63636 24.6667C-3.63636 27.244 -5.73249 29.3333 -8.31818 29.3333C-10.9039 29.3333 -13 27.244 -13 24.6667Z" fill="url(#paint0_linear_437_3033)"/>
<path d="M2.60606 24.6667C2.60606 22.0893 4.70218 20 7.28788 20C9.87358 20 11.9697 22.0893 11.9697 24.6667C11.9697 27.244 9.87358 29.3333 7.28788 29.3333C4.70218 29.3333 2.60606 27.244 2.60606 24.6667Z" fill="url(#paint1_linear_437_3033)"/>
<path d="M18.2121 24.6667C18.2121 22.0893 20.3082 20 22.8939 20C25.4796 20 27.5758 22.0893 27.5758 24.6667C27.5758 27.244 25.4796 29.3333 22.8939 29.3333C20.3082 29.3333 18.2121 27.244 18.2121 24.6667Z" fill="url(#paint2_linear_437_3033)"/>
<path d="M33.8182 24.6667C33.8182 22.0893 35.9143 20 38.5 20C41.0857 20 43.1818 22.0893 43.1818 24.6667C43.1818 27.244 41.0857 29.3333 38.5 29.3333C35.9143 29.3333 33.8182 27.244 33.8182 24.6667Z" fill="url(#paint3_linear_437_3033)"/>
<path d="M49.4242 24.6667C49.4242 22.0893 51.5204 20 54.1061 20C56.6918 20 58.7879 22.0893 58.7879 24.6667C58.7879 27.244 56.6918 29.3333 54.1061 29.3333C51.5204 29.3333 49.4242 27.244 49.4242 24.6667Z" fill="url(#paint4_linear_437_3033)"/>
<path d="M65.0303 24.6667C65.0303 22.0893 67.1264 20 69.7121 20C72.2978 20 74.3939 22.0893 74.3939 24.6667C74.3939 27.244 72.2978 29.3333 69.7121 29.3333C67.1264 29.3333 65.0303 27.244 65.0303 24.6667Z" fill="url(#paint5_linear_437_3033)"/>
<path d="M80.6364 24.6667C80.6364 22.0893 82.7325 20 85.3182 20C87.9039 20 90 22.0893 90 24.6667C90 27.244 87.9039 29.3333 85.3182 29.3333C82.7325 29.3333 80.6364 27.244 80.6364 24.6667Z" fill="url(#paint6_linear_437_3033)"/>
<path d="M-13 10.6667C-13 8.08933 -10.9039 6 -8.31818 6C-5.73248 6 -3.63636 8.08933 -3.63636 10.6667C-3.63636 13.244 -5.73249 15.3333 -8.31818 15.3333C-10.9039 15.3333 -13 13.244 -13 10.6667Z" fill="url(#paint7_linear_437_3033)"/>
<path d="M2.60606 10.6667C2.60606 8.08933 4.70219 6 7.28788 6C9.87358 6 11.9697 8.08933 11.9697 10.6667C11.9697 13.244 9.87358 15.3333 7.28788 15.3333C4.70218 15.3333 2.60606 13.244 2.60606 10.6667Z" fill="url(#paint8_linear_437_3033)"/>
<path d="M18.2121 10.6667C18.2121 8.08933 20.3082 6 22.8939 6C25.4796 6 27.5758 8.08933 27.5758 10.6667C27.5758 13.244 25.4796 15.3333 22.8939 15.3333C20.3082 15.3333 18.2121 13.244 18.2121 10.6667Z" fill="url(#paint9_linear_437_3033)"/>
<path d="M33.8182 10.6667C33.8182 8.08934 35.9143 6 38.5 6C41.0857 6 43.1818 8.08934 43.1818 10.6667C43.1818 13.244 41.0857 15.3333 38.5 15.3333C35.9143 15.3333 33.8182 13.244 33.8182 10.6667Z" fill="url(#paint10_linear_437_3033)"/>
<path d="M49.4242 10.6667C49.4242 8.08934 51.5204 6 54.1061 6C56.6918 6 58.7879 8.08934 58.7879 10.6667C58.7879 13.244 56.6918 15.3333 54.1061 15.3333C51.5204 15.3333 49.4242 13.244 49.4242 10.6667Z" fill="url(#paint11_linear_437_3033)"/>
<path d="M65.0303 10.6667C65.0303 8.08934 67.1264 6.00001 69.7121 6.00001C72.2978 6.00001 74.3939 8.08934 74.3939 10.6667C74.3939 13.244 72.2978 15.3333 69.7121 15.3333C67.1264 15.3333 65.0303 13.244 65.0303 10.6667Z" fill="url(#paint12_linear_437_3033)"/>
<path d="M80.6364 10.6667C80.6364 8.08934 82.7325 6.00001 85.3182 6.00001C87.9039 6.00001 90 8.08934 90 10.6667C90 13.244 87.9039 15.3333 85.3182 15.3333C82.7325 15.3333 80.6364 13.244 80.6364 10.6667Z" fill="url(#paint13_linear_437_3033)"/>
<path d="M-13 -3.33334C-13 -5.91067 -10.9039 -8 -8.31818 -8C-5.73248 -8 -3.63636 -5.91067 -3.63636 -3.33334C-3.63636 -0.756005 -5.73248 1.33333 -8.31818 1.33333C-10.9039 1.33333 -13 -0.756006 -13 -3.33334Z" fill="url(#paint14_linear_437_3033)"/>
<path d="M2.60606 -3.33334C2.60606 -5.91067 4.70219 -8 7.28788 -8C9.87358 -8 11.9697 -5.91067 11.9697 -3.33334C11.9697 -0.756004 9.87358 1.33333 7.28788 1.33333C4.70219 1.33333 2.60606 -0.756004 2.60606 -3.33334Z" fill="url(#paint15_linear_437_3033)"/>
<path d="M18.2121 -3.33333C18.2121 -5.91067 20.3083 -8 22.8939 -8C25.4796 -8 27.5758 -5.91067 27.5758 -3.33333C27.5758 -0.756002 25.4796 1.33333 22.8939 1.33333C20.3082 1.33333 18.2121 -0.756003 18.2121 -3.33333Z" fill="url(#paint16_linear_437_3033)"/>
<path d="M33.8182 -3.33333C33.8182 -5.91066 35.9143 -8 38.5 -8C41.0857 -8 43.1818 -5.91066 43.1818 -3.33333C43.1818 -0.756001 41.0857 1.33333 38.5 1.33333C35.9143 1.33333 33.8182 -0.756002 33.8182 -3.33333Z" fill="url(#paint17_linear_437_3033)"/>
<path d="M49.4242 -3.33333C49.4242 -5.91066 51.5204 -8 54.1061 -8C56.6918 -8 58.7879 -5.91066 58.7879 -3.33333C58.7879 -0.755999 56.6918 1.33333 54.1061 1.33333C51.5204 1.33333 49.4242 -0.756 49.4242 -3.33333Z" fill="url(#paint18_linear_437_3033)"/>
<path d="M65.0303 -3.33333C65.0303 -5.91066 67.1264 -7.99999 69.7121 -7.99999C72.2978 -7.99999 74.3939 -5.91066 74.3939 -3.33333C74.3939 -0.755998 72.2978 1.33333 69.7121 1.33333C67.1264 1.33333 65.0303 -0.755999 65.0303 -3.33333Z" fill="url(#paint19_linear_437_3033)"/>
<path d="M80.6364 -3.33333C80.6364 -5.91066 82.7325 -7.99999 85.3182 -7.99999C87.9039 -7.99999 90 -5.91066 90 -3.33333C90 -0.755997 87.9039 1.33334 85.3182 1.33334C82.7325 1.33334 80.6364 -0.755998 80.6364 -3.33333Z" fill="url(#paint20_linear_437_3033)"/>
<path d="M-13 40.2222C-13 37.6449 -10.9039 35.5555 -8.31818 35.5555C-5.73249 35.5555 -3.63636 37.6449 -3.63636 40.2222C-3.63636 42.7995 -5.73249 44.8889 -8.31818 44.8889C-10.9039 44.8889 -13 42.7995 -13 40.2222Z" fill="url(#paint21_linear_437_3033)"/>
<path d="M2.60606 40.2222C2.60606 37.6449 4.70218 35.5555 7.28788 35.5556C9.87358 35.5556 11.9697 37.6449 11.9697 40.2222C11.9697 42.7995 9.87358 44.8889 7.28788 44.8889C4.70218 44.8889 2.60606 42.7995 2.60606 40.2222Z" fill="url(#paint22_linear_437_3033)"/>
<path d="M18.2121 40.2222C18.2121 37.6449 20.3082 35.5556 22.8939 35.5556C25.4796 35.5556 27.5758 37.6449 27.5758 40.2222C27.5758 42.7995 25.4796 44.8889 22.8939 44.8889C20.3082 44.8889 18.2121 42.7995 18.2121 40.2222Z" fill="url(#paint23_linear_437_3033)"/>
<path d="M33.8182 40.2222C33.8182 37.6449 35.9143 35.5556 38.5 35.5556C41.0857 35.5556 43.1818 37.6449 43.1818 40.2222C43.1818 42.7995 41.0857 44.8889 38.5 44.8889C35.9143 44.8889 33.8182 42.7995 33.8182 40.2222Z" fill="url(#paint24_linear_437_3033)"/>
<path d="M49.4242 40.2222C49.4242 37.6449 51.5204 35.5556 54.1061 35.5556C56.6918 35.5556 58.7879 37.6449 58.7879 40.2222C58.7879 42.7996 56.6918 44.8889 54.1061 44.8889C51.5204 44.8889 49.4242 42.7995 49.4242 40.2222Z" fill="url(#paint25_linear_437_3033)"/>
<path d="M65.0303 40.2222C65.0303 37.6449 67.1264 35.5556 69.7121 35.5556C72.2978 35.5556 74.3939 37.6449 74.3939 40.2222C74.3939 42.7996 72.2978 44.8889 69.7121 44.8889C67.1264 44.8889 65.0303 42.7996 65.0303 40.2222Z" fill="url(#paint26_linear_437_3033)"/>
<path d="M80.6364 40.2222C80.6364 37.6449 82.7325 35.5556 85.3182 35.5556C87.9039 35.5556 90 37.6449 90 40.2222C90 42.7996 87.9039 44.8889 85.3182 44.8889C82.7325 44.8889 80.6364 42.7996 80.6364 40.2222Z" fill="url(#paint27_linear_437_3033)"/>
<path d="M-13 55.7778C-13 53.2004 -10.9039 51.1111 -8.31818 51.1111C-5.73249 51.1111 -3.63637 53.2004 -3.63637 55.7778C-3.63637 58.3551 -5.73249 60.4444 -8.31818 60.4444C-10.9039 60.4444 -13 58.3551 -13 55.7778Z" fill="url(#paint28_linear_437_3033)"/>
<path d="M2.60606 55.7778C2.60606 53.2004 4.70218 51.1111 7.28787 51.1111C9.87358 51.1111 11.9697 53.2004 11.9697 55.7778C11.9697 58.3551 9.87357 60.4444 7.28787 60.4444C4.70218 60.4444 2.60606 58.3551 2.60606 55.7778Z" fill="url(#paint29_linear_437_3033)"/>
<path d="M18.2121 55.7778C18.2121 53.2004 20.3082 51.1111 22.8939 51.1111C25.4796 51.1111 27.5758 53.2004 27.5758 55.7778C27.5758 58.3551 25.4796 60.4444 22.8939 60.4444C20.3082 60.4444 18.2121 58.3551 18.2121 55.7778Z" fill="url(#paint30_linear_437_3033)"/>
<path d="M33.8182 55.7778C33.8182 53.2004 35.9143 51.1111 38.5 51.1111C41.0857 51.1111 43.1818 53.2004 43.1818 55.7778C43.1818 58.3551 41.0857 60.4444 38.5 60.4444C35.9143 60.4444 33.8182 58.3551 33.8182 55.7778Z" fill="url(#paint31_linear_437_3033)"/>
<path d="M49.4242 55.7778C49.4242 53.2004 51.5204 51.1111 54.1061 51.1111C56.6918 51.1111 58.7879 53.2004 58.7879 55.7778C58.7879 58.3551 56.6918 60.4444 54.1061 60.4444C51.5204 60.4444 49.4242 58.3551 49.4242 55.7778Z" fill="url(#paint32_linear_437_3033)"/>
<path d="M65.0303 55.7778C65.0303 53.2004 67.1264 51.1111 69.7121 51.1111C72.2978 51.1111 74.3939 53.2004 74.3939 55.7778C74.3939 58.3551 72.2978 60.4444 69.7121 60.4444C67.1264 60.4444 65.0303 58.3551 65.0303 55.7778Z" fill="url(#paint33_linear_437_3033)"/>
<path d="M80.6364 55.7778C80.6364 53.2005 82.7325 51.1111 85.3182 51.1111C87.9039 51.1111 90 53.2005 90 55.7778C90 58.3551 87.9039 60.4444 85.3182 60.4444C82.7325 60.4444 80.6364 58.3551 80.6364 55.7778Z" fill="url(#paint34_linear_437_3033)"/>
<path d="M-13 71.3333C-13 68.756 -10.9039 66.6667 -8.31818 66.6667C-5.73249 66.6667 -3.63637 68.756 -3.63637 71.3333C-3.63637 73.9107 -5.73249 76 -8.31818 76C-10.9039 76 -13 73.9107 -13 71.3333Z" fill="url(#paint35_linear_437_3033)"/>
<path d="M2.60606 71.3333C2.60606 68.756 4.70218 66.6667 7.28787 66.6667C9.87357 66.6667 11.9697 68.756 11.9697 71.3333C11.9697 73.9107 9.87357 76 7.28787 76C4.70218 76 2.60606 73.9107 2.60606 71.3333Z" fill="url(#paint36_linear_437_3033)"/>
<path d="M18.2121 71.3333C18.2121 68.756 20.3082 66.6667 22.8939 66.6667C25.4796 66.6667 27.5758 68.756 27.5758 71.3333C27.5758 73.9107 25.4796 76 22.8939 76C20.3082 76 18.2121 73.9107 18.2121 71.3333Z" fill="url(#paint37_linear_437_3033)"/>
<path d="M33.8182 71.3333C33.8182 68.756 35.9143 66.6667 38.5 66.6667C41.0857 66.6667 43.1818 68.756 43.1818 71.3333C43.1818 73.9107 41.0857 76 38.5 76C35.9143 76 33.8182 73.9107 33.8182 71.3333Z" fill="url(#paint38_linear_437_3033)"/>
<path d="M49.4242 71.3333C49.4242 68.756 51.5204 66.6667 54.1061 66.6667C56.6918 66.6667 58.7879 68.756 58.7879 71.3333C58.7879 73.9107 56.6918 76 54.1061 76C51.5204 76 49.4242 73.9107 49.4242 71.3333Z" fill="url(#paint39_linear_437_3033)"/>
<path d="M65.0303 71.3333C65.0303 68.756 67.1264 66.6667 69.7121 66.6667C72.2978 66.6667 74.3939 68.756 74.3939 71.3333C74.3939 73.9107 72.2978 76 69.7121 76C67.1264 76 65.0303 73.9107 65.0303 71.3333Z" fill="url(#paint40_linear_437_3033)"/>
<path d="M80.6364 71.3333C80.6364 68.756 82.7325 66.6667 85.3182 66.6667C87.9039 66.6667 90 68.756 90 71.3333C90 73.9107 87.9039 76 85.3182 76C82.7325 76 80.6364 73.9107 80.6364 71.3333Z" fill="url(#paint41_linear_437_3033)"/>
<defs>
<linearGradient id="paint0_linear_437_3033" x1="90" y1="76" x2="-12.7321" y2="-8.32643" gradientUnits="userSpaceOnUse">
<stop stop-color="white"/>
<stop offset="1" stop-color="white" stop-opacity="0"/>
</linearGradient>
<linearGradient id="paint1_linear_437_3033" x1="90" y1="76" x2="-12.7321" y2="-8.32643" gradientUnits="userSpaceOnUse">
<stop stop-color="white"/>
<stop offset="1" stop-color="white" stop-opacity="0"/>
</linearGradient>
<linearGradient id="paint2_linear_437_3033" x1="90" y1="76" x2="-12.7321" y2="-8.32643" gradientUnits="userSpaceOnUse">
<stop stop-color="white"/>
<stop offset="1" stop-color="white" stop-opacity="0"/>
</linearGradient>
<linearGradient id="paint3_linear_437_3033" x1="90" y1="76" x2="-12.7321" y2="-8.32643" gradientUnits="userSpaceOnUse">
<stop stop-color="white"/>
<stop offset="1" stop-color="white" stop-opacity="0"/>
</linearGradient>
<linearGradient id="paint4_linear_437_3033" x1="90" y1="76" x2="-12.7321" y2="-8.32643" gradientUnits="userSpaceOnUse">
<stop stop-color="white"/>
<stop offset="1" stop-color="white" stop-opacity="0"/>
</linearGradient>
<linearGradient id="paint5_linear_437_3033" x1="90" y1="76" x2="-12.7321" y2="-8.32643" gradientUnits="userSpaceOnUse">
<stop stop-color="white"/>
<stop offset="1" stop-color="white" stop-opacity="0"/>
</linearGradient>
<linearGradient id="paint6_linear_437_3033" x1="90" y1="76" x2="-12.7321" y2="-8.32643" gradientUnits="userSpaceOnUse">
<stop stop-color="white"/>
<stop offset="1" stop-color="white" stop-opacity="0"/>
</linearGradient>
<linearGradient id="paint7_linear_437_3033" x1="90" y1="76" x2="-12.7321" y2="-8.32643" gradientUnits="userSpaceOnUse">
<stop stop-color="white"/>
<stop offset="1" stop-color="white" stop-opacity="0"/>
</linearGradient>
<linearGradient id="paint8_linear_437_3033" x1="90" y1="76" x2="-12.7321" y2="-8.32643" gradientUnits="userSpaceOnUse">
<stop stop-color="white"/>
<stop offset="1" stop-color="white" stop-opacity="0"/>
</linearGradient>
<linearGradient id="paint9_linear_437_3033" x1="90" y1="76" x2="-12.7321" y2="-8.32643" gradientUnits="userSpaceOnUse">
<stop stop-color="white"/>
<stop offset="1" stop-color="white" stop-opacity="0"/>
</linearGradient>
<linearGradient id="paint10_linear_437_3033" x1="90" y1="76" x2="-12.7321" y2="-8.32643" gradientUnits="userSpaceOnUse">
<stop stop-color="white"/>
<stop offset="1" stop-color="white" stop-opacity="0"/>
</linearGradient>
<linearGradient id="paint11_linear_437_3033" x1="90" y1="76" x2="-12.7321" y2="-8.32643" gradientUnits="userSpaceOnUse">
<stop stop-color="white"/>
<stop offset="1" stop-color="white" stop-opacity="0"/>
</linearGradient>
<linearGradient id="paint12_linear_437_3033" x1="90" y1="76" x2="-12.7321" y2="-8.32643" gradientUnits="userSpaceOnUse">
<stop stop-color="white"/>
<stop offset="1" stop-color="white" stop-opacity="0"/>
</linearGradient>
<linearGradient id="paint13_linear_437_3033" x1="90" y1="76" x2="-12.7321" y2="-8.32643" gradientUnits="userSpaceOnUse">
<stop stop-color="white"/>
<stop offset="1" stop-color="white" stop-opacity="0"/>
</linearGradient>
<linearGradient id="paint14_linear_437_3033" x1="90" y1="76" x2="-12.7321" y2="-8.32643" gradientUnits="userSpaceOnUse">
<stop stop-color="white"/>
<stop offset="1" stop-color="white" stop-opacity="0"/>
</linearGradient>
<linearGradient id="paint15_linear_437_3033" x1="90" y1="76" x2="-12.7321" y2="-8.32643" gradientUnits="userSpaceOnUse">
<stop stop-color="white"/>
<stop offset="1" stop-color="white" stop-opacity="0"/>
</linearGradient>
<linearGradient id="paint16_linear_437_3033" x1="90" y1="76" x2="-12.7321" y2="-8.32643" gradientUnits="userSpaceOnUse">
<stop stop-color="white"/>
<stop offset="1" stop-color="white" stop-opacity="0"/>
</linearGradient>
<linearGradient id="paint17_linear_437_3033" x1="90" y1="76" x2="-12.7321" y2="-8.32643" gradientUnits="userSpaceOnUse">
<stop stop-color="white"/>
<stop offset="1" stop-color="white" stop-opacity="0"/>
</linearGradient>
<linearGradient id="paint18_linear_437_3033" x1="90" y1="76" x2="-12.7321" y2="-8.32643" gradientUnits="userSpaceOnUse">
<stop stop-color="white"/>
<stop offset="1" stop-color="white" stop-opacity="0"/>
</linearGradient>
<linearGradient id="paint19_linear_437_3033" x1="90" y1="76" x2="-12.7321" y2="-8.32643" gradientUnits="userSpaceOnUse">
<stop stop-color="white"/>
<stop offset="1" stop-color="white" stop-opacity="0"/>
</linearGradient>
<linearGradient id="paint20_linear_437_3033" x1="90" y1="76" x2="-12.7321" y2="-8.32643" gradientUnits="userSpaceOnUse">
<stop stop-color="white"/>
<stop offset="1" stop-color="white" stop-opacity="0"/>
</linearGradient>
<linearGradient id="paint21_linear_437_3033" x1="90" y1="76" x2="-12.7321" y2="-8.32643" gradientUnits="userSpaceOnUse">
<stop stop-color="white"/>
<stop offset="1" stop-color="white" stop-opacity="0"/>
</linearGradient>
<linearGradient id="paint22_linear_437_3033" x1="90" y1="76" x2="-12.7321" y2="-8.32643" gradientUnits="userSpaceOnUse">
<stop stop-color="white"/>
<stop offset="1" stop-color="white" stop-opacity="0"/>
</linearGradient>
<linearGradient id="paint23_linear_437_3033" x1="90" y1="76" x2="-12.7321" y2="-8.32643" gradientUnits="userSpaceOnUse">
<stop stop-color="white"/>
<stop offset="1" stop-color="white" stop-opacity="0"/>
</linearGradient>
<linearGradient id="paint24_linear_437_3033" x1="90" y1="76" x2="-12.7321" y2="-8.32643" gradientUnits="userSpaceOnUse">
<stop stop-color="white"/>
<stop offset="1" stop-color="white" stop-opacity="0"/>
</linearGradient>
<linearGradient id="paint25_linear_437_3033" x1="90" y1="76" x2="-12.7321" y2="-8.32643" gradientUnits="userSpaceOnUse">
<stop stop-color="white"/>
<stop offset="1" stop-color="white" stop-opacity="0"/>
</linearGradient>
<linearGradient id="paint26_linear_437_3033" x1="90" y1="76" x2="-12.7321" y2="-8.32643" gradientUnits="userSpaceOnUse">
<stop stop-color="white"/>
<stop offset="1" stop-color="white" stop-opacity="0"/>
</linearGradient>
<linearGradient id="paint27_linear_437_3033" x1="90" y1="76" x2="-12.7321" y2="-8.32643" gradientUnits="userSpaceOnUse">
<stop stop-color="white"/>
<stop offset="1" stop-color="white" stop-opacity="0"/>
</linearGradient>
<linearGradient id="paint28_linear_437_3033" x1="90" y1="76" x2="-12.7321" y2="-8.32643" gradientUnits="userSpaceOnUse">
<stop stop-color="white"/>
<stop offset="1" stop-color="white" stop-opacity="0"/>
</linearGradient>
<linearGradient id="paint29_linear_437_3033" x1="90" y1="76" x2="-12.7321" y2="-8.32643" gradientUnits="userSpaceOnUse">
<stop stop-color="white"/>
<stop offset="1" stop-color="white" stop-opacity="0"/>
</linearGradient>
<linearGradient id="paint30_linear_437_3033" x1="90" y1="76" x2="-12.7321" y2="-8.32643" gradientUnits="userSpaceOnUse">
<stop stop-color="white"/>
<stop offset="1" stop-color="white" stop-opacity="0"/>
</linearGradient>
<linearGradient id="paint31_linear_437_3033" x1="90" y1="76" x2="-12.7321" y2="-8.32643" gradientUnits="userSpaceOnUse">
<stop stop-color="white"/>
<stop offset="1" stop-color="white" stop-opacity="0"/>
</linearGradient>
<linearGradient id="paint32_linear_437_3033" x1="90" y1="76" x2="-12.7321" y2="-8.32643" gradientUnits="userSpaceOnUse">
<stop stop-color="white"/>
<stop offset="1" stop-color="white" stop-opacity="0"/>
</linearGradient>
<linearGradient id="paint33_linear_437_3033" x1="90" y1="76" x2="-12.7321" y2="-8.32643" gradientUnits="userSpaceOnUse">
<stop stop-color="white"/>
<stop offset="1" stop-color="white" stop-opacity="0"/>
</linearGradient>
<linearGradient id="paint34_linear_437_3033" x1="90" y1="76" x2="-12.7321" y2="-8.32643" gradientUnits="userSpaceOnUse">
<stop stop-color="white"/>
<stop offset="1" stop-color="white" stop-opacity="0"/>
</linearGradient>
<linearGradient id="paint35_linear_437_3033" x1="90" y1="76" x2="-12.7321" y2="-8.32643" gradientUnits="userSpaceOnUse">
<stop stop-color="white"/>
<stop offset="1" stop-color="white" stop-opacity="0"/>
</linearGradient>
<linearGradient id="paint36_linear_437_3033" x1="90" y1="76" x2="-12.7321" y2="-8.32643" gradientUnits="userSpaceOnUse">
<stop stop-color="white"/>
<stop offset="1" stop-color="white" stop-opacity="0"/>
</linearGradient>
<linearGradient id="paint37_linear_437_3033" x1="90" y1="76" x2="-12.7321" y2="-8.32643" gradientUnits="userSpaceOnUse">
<stop stop-color="white"/>
<stop offset="1" stop-color="white" stop-opacity="0"/>
</linearGradient>
<linearGradient id="paint38_linear_437_3033" x1="90" y1="76" x2="-12.7321" y2="-8.32643" gradientUnits="userSpaceOnUse">
<stop stop-color="white"/>
<stop offset="1" stop-color="white" stop-opacity="0"/>
</linearGradient>
<linearGradient id="paint39_linear_437_3033" x1="90" y1="76" x2="-12.7321" y2="-8.32643" gradientUnits="userSpaceOnUse">
<stop stop-color="white"/>
<stop offset="1" stop-color="white" stop-opacity="0"/>
</linearGradient>
<linearGradient id="paint40_linear_437_3033" x1="90" y1="76" x2="-12.7321" y2="-8.32643" gradientUnits="userSpaceOnUse">
<stop stop-color="white"/>
<stop offset="1" stop-color="white" stop-opacity="0"/>
</linearGradient>
<linearGradient id="paint41_linear_437_3033" x1="90" y1="76" x2="-12.7321" y2="-8.32643" gradientUnits="userSpaceOnUse">
<stop stop-color="white"/>
<stop offset="1" stop-color="white" stop-opacity="0"/>
</linearGradient>
</defs>
</svg>
