<svg width="37" height="40" viewBox="0 0 37 40" fill="none" xmlns="http://www.w3.org/2000/svg">
<path d="M36.1321 16.1635C36.1321 20.1991 28.264 23.4712 18.566 23.4712C8.86812 23.4712 1 20.1991 1 16.1635M36.1321 24.0192C36.1321 28.0549 28.264 31.3269 18.566 31.3269C8.86812 31.3269 1 28.0549 1 24.0192M1 8.23827V31.7617C1 35.759 8.86812 39 18.566 39C28.264 39 36.1321 35.759 36.1321 31.7617V8.23827M36.1321 8.30769C36.1321 12.3436 28.2675 15.6154 18.566 15.6154C8.86458 15.6154 1 12.3436 1 8.30769C1 4.27176 8.86458 1 18.566 1C28.2675 1 36.1321 4.27176 36.1321 8.30769Z" stroke="#0E61FE" stroke-miterlimit="10" stroke-linecap="round"/>
</svg>
