<svg width="45" height="45" viewBox="0 0 45 45" fill="none" xmlns="http://www.w3.org/2000/svg">
<path d="M40.1321 19.1635C40.1321 23.1991 32.264 26.4712 22.566 26.4712C12.8681 26.4712 5 23.1991 5 19.1635M40.1321 27.0192C40.1321 31.0549 32.264 34.3269 22.566 34.3269C12.8681 34.3269 5 31.0549 5 27.0192M5 11.2383V34.7617C5 38.759 12.8681 42 22.566 42C32.264 42 40.1321 38.759 40.1321 34.7617V11.2383M40.1321 11.3077C40.1321 15.3436 32.2675 18.6154 22.566 18.6154C12.8646 18.6154 5 15.3436 5 11.3077C5 7.27176 12.8646 4 22.566 4C32.2675 4 40.1321 7.27176 40.1321 11.3077Z" stroke="#0E61FE" stroke-miterlimit="10" stroke-linecap="round"/>
</svg>
