<svg width="40" height="40" viewBox="0 0 40 40" fill="none" xmlns="http://www.w3.org/2000/svg">
<path d="M36 27V12L23.5 4.969M36 27C34.3431 27 33 28.3431 33 30C33 31.6569 34.3431 33 36 33C37.6569 33 39 31.6569 39 30C39 28.3431 37.6569 27 36 27ZM16.5 4.969L4 12V27M4 27C2.34315 27 1 28.3431 1 30C1 31.6569 2.34315 33 4 33C5.65685 33 7 31.6569 7 30C7 28.3431 5.65685 27 4 27ZM7 31.688L20 39L33 31.687M20 14V7M20 14L14 17.5V24.5L20 28L26 24.5V17.5L20 14ZM20 7C21.6569 7 23 5.65685 23 4C23 2.34315 21.6569 1 20 1C18.3431 1 17 2.34315 17 4C17 5.65685 18.3431 7 20 7ZM26 24L33 28M14 24L7 28" stroke="#0E61FE" stroke-linecap="round" stroke-linejoin="round"/>
</svg>
