<svg width="45" height="45" viewBox="0 0 45 45" fill="none" xmlns="http://www.w3.org/2000/svg">
<path d="M44.6155 14.6982L22.8411 3.08516C22.7361 3.02925 22.619 3 22.5 3C22.381 3 22.2639 3.02925 22.1589 3.08516L0.384454 14.6982C0.268328 14.7601 0.171211 14.8524 0.103492 14.9652C0.0357729 15.078 0 15.2071 0 15.3387C0 15.4703 0.0357729 15.5994 0.103492 15.7122C0.171211 15.8251 0.268328 15.9174 0.384454 15.9792L5.80628 18.8716V28.0931C5.80213 28.6276 5.99605 29.1447 6.35064 29.5447C8.64603 32.1014 13.7902 36.3909 22.5 36.3909C26.3105 36.3909 29.4315 35.5708 31.9356 34.4331V41.468C31.9356 41.6605 32.0121 41.8451 32.1482 41.9812C32.2843 42.1174 32.4689 42.1938 32.6614 42.1938C32.8539 42.1938 33.0385 42.1174 33.1746 41.9812C33.3107 41.8451 33.3872 41.6605 33.3872 41.468V33.6982C35.36 32.6144 37.1384 31.2095 38.6494 29.5411C39.0036 29.1409 39.1975 28.6239 39.1937 28.0894V18.8716L44.6155 15.9792C44.7317 15.9174 44.8288 15.8251 44.8965 15.7122C44.9642 15.5994 45 15.4703 45 15.3387C45 15.2071 44.9642 15.078 44.8965 14.9652C44.8288 14.8524 44.7317 14.7601 44.6155 14.6982ZM22.5 34.9357C14.3654 34.9357 9.57144 30.9437 7.43936 28.5703C7.32191 28.4392 7.25725 28.2691 7.25791 28.0931V19.6446L22.1589 27.5923C22.2639 27.6482 22.381 27.6774 22.5 27.6774C22.619 27.6774 22.7361 27.6482 22.8411 27.5923L31.9356 22.742V32.8181C29.5005 34.0284 26.3813 34.9357 22.5 34.9357ZM37.7421 28.0931C37.7418 28.2695 37.6773 28.4398 37.5606 28.5721C36.3436 29.9172 34.9378 31.0785 33.3872 32.0197V21.9672L37.7421 19.6446V28.0931ZM33.2801 20.3795C33.2125 20.2692 33.1167 20.179 33.0025 20.1182L22.8411 14.6982C22.6716 14.6116 22.4749 14.5951 22.2933 14.6522C22.1117 14.7092 21.9598 14.8354 21.8704 15.0034C21.7809 15.1714 21.761 15.3678 21.8149 15.5503C21.8689 15.7329 21.9924 15.8869 22.1589 15.9792L31.8449 21.1452L22.5 26.1298L2.26794 15.3387L22.5 4.54768L42.7321 15.3387L33.2801 20.3795Z" fill="#0E61FE"/>
</svg>
