<svg width="47" height="47" viewBox="0 0 47 47" fill="none" xmlns="http://www.w3.org/2000/svg">
<path d="M17.4957 1V7.13636M29.7684 1V7.13636M17.4957 39.8636V46M29.7684 39.8636V46M39.9957 17.3636H46.1321M39.9957 27.5909H46.1321M1.13208 17.3636H7.26844M1.13208 27.5909H7.26844M11.3594 7.13636H35.9048C38.1642 7.13636 39.9957 8.96793 39.9957 11.2273V35.7727C39.9957 38.0321 38.1642 39.8636 35.9048 39.8636H11.3594C9.10001 39.8636 7.26844 38.0321 7.26844 35.7727V11.2273C7.26844 8.96793 9.10001 7.13636 11.3594 7.13636ZM17.4957 17.3636H29.7684V29.6364H17.4957V17.3636Z" stroke="#0E61FE" stroke-linecap="round" stroke-linejoin="round"/>
</svg>
