<svg width="45" height="45" viewBox="0 0 45 45" fill="none" xmlns="http://www.w3.org/2000/svg">
<path d="M12.0115 15.515C12.977 15.515 13.8141 15.1709 14.4935 14.4915C15.1728 13.8121 15.5164 12.9756 15.515 12.0111M12.0115 15.515C11.0469 15.5164 10.2104 15.1728 9.53106 14.4935C8.85174 13.8142 8.50764 12.9772 8.50752 12.0118M12.0115 15.515C12.0114 15.515 12.0113 15.515 12.0113 15.515V15.015L12.0115 15.515ZM8.50752 12.0118C8.50604 11.0471 8.84965 10.2105 9.52906 9.53105C10.2084 8.85173 11.0453 8.50763 12.0108 8.50751M8.50752 12.0118C8.50752 12.0116 8.50752 12.0114 8.50752 12.0113H9.00752L8.50752 12.0121C8.50752 12.012 8.50752 12.0119 8.50752 12.0118ZM12.0108 8.50751C12.9755 8.50603 13.8121 8.84964 14.4915 9.52905C15.1709 10.2085 15.515 11.0455 15.515 12.0111M12.0108 8.50751C12.0109 8.50751 12.0111 8.50751 12.0113 8.50751V9.00751L12.0105 8.50751C12.0106 8.50751 12.0107 8.50751 12.0108 8.50751ZM15.515 12.0111C15.515 12.0111 15.515 12.0112 15.515 12.0113H15.015L15.515 12.0105C15.515 12.0107 15.515 12.0109 15.515 12.0111ZM3.50001 21.3241V21.3229V7.00501C3.50001 6.03742 3.83899 5.22108 4.53104 4.52903C5.22307 3.83699 6.03855 3.49883 7.00441 3.5H7.00502H21.3229C21.8245 3.5 22.2903 3.59578 22.7256 3.78497C23.1717 3.97888 23.5525 4.23593 23.8729 4.55501C23.8732 4.55524 23.8734 4.55547 23.8736 4.5557L41.4945 22.2266L41.495 22.2271C42.1657 22.8978 42.5 23.7125 42.5 24.7031C42.5 25.6938 42.1657 26.5075 41.4953 27.1768L41.495 27.1771L27.1771 41.495C26.5079 42.1642 25.6859 42.5 24.6771 42.5C23.6683 42.5 22.8463 42.1642 22.1771 41.495L4.55507 23.873C4.23456 23.5525 3.97687 23.1717 3.78297 22.7256C3.59395 22.2907 3.49883 21.8253 3.50001 21.3241Z" stroke="#0E61FE"/>
</svg>
