<svg width="46" height="45" viewBox="0 0 46 45" fill="none" xmlns="http://www.w3.org/2000/svg">
<path d="M39.1321 30V15L26.6321 7.969M39.1321 30C37.4752 30 36.1321 31.3431 36.1321 33C36.1321 34.6569 37.4752 36 39.1321 36C40.7889 36 42.1321 34.6569 42.1321 33C42.1321 31.3431 40.7889 30 39.1321 30ZM19.6321 7.969L7.13208 15V30M7.13208 30C5.47523 30 4.13208 31.3431 4.13208 33C4.13208 34.6569 5.47523 36 7.13208 36C8.78893 36 10.1321 34.6569 10.1321 33C10.1321 31.3431 8.78893 30 7.13208 30ZM10.1321 34.688L23.1321 42L36.1321 34.687M23.1321 17V10M23.1321 17L17.1321 20.5V27.5L23.1321 31L29.1321 27.5V20.5L23.1321 17ZM23.1321 10C24.7889 10 26.1321 8.65685 26.1321 7C26.1321 5.34315 24.7889 4 23.1321 4C21.4752 4 20.1321 5.34315 20.1321 7C20.1321 8.65685 21.4752 10 23.1321 10ZM29.1321 27L36.1321 31M17.1321 27L10.1321 31" stroke="#0E61FE" stroke-linecap="round" stroke-linejoin="round"/>
</svg>
