<svg width="46" height="45" viewBox="0 0 46 45" fill="none" xmlns="http://www.w3.org/2000/svg">
<path d="M35.7955 37.0097H38.4262V20.6263C38.2404 19.1899 37.5852 13.2208 36.9593 10.1829C36.8915 9.46674 36.6821 8.77084 36.3432 8.135C35.6805 7.24661 34.769 6.57149 33.7223 6.19385C31.8718 5.35639 29.9189 4.76255 27.9133 4.42739C26.2178 4.13668 24.4998 3.99378 22.7791 4.00034C21.0487 3.99208 19.3208 4.13498 17.6156 4.42739C15.61 4.76255 13.6572 5.35639 11.8066 6.19385C10.7599 6.57149 9.84842 7.24661 9.18576 8.135C8.84681 8.77084 8.63745 9.46674 8.56965 10.1829C7.94377 13.2597 7.28855 19.1899 7.13208 20.6263V37.0097H9.76274M35.7955 37.0097V39.6206C35.8158 39.9254 35.7728 40.2312 35.6692 40.5189C35.5656 40.8067 35.4036 41.0702 35.1932 41.2933C34.9828 41.5163 34.7285 41.6941 34.4461 41.8157C34.1636 41.9373 33.859 42 33.5512 42C33.2433 42 32.9387 41.9373 32.6563 41.8157C32.3738 41.6941 32.1195 41.5163 31.9091 41.2933C31.6987 41.0702 31.5367 40.8067 31.4331 40.5189C31.3295 40.2312 31.2865 39.9254 31.3068 39.6206V37.0097H14.2515V39.6206C14.2718 39.9254 14.2288 40.2312 14.1252 40.5189C14.0216 40.8067 13.8596 41.0702 13.6492 41.2933C13.4388 41.5163 13.1845 41.6941 12.902 41.8157C12.6196 41.9373 12.315 42 12.0071 42C11.6993 42 11.3947 41.9373 11.1122 41.8157C10.8298 41.6941 10.5755 41.5163 10.3651 41.2933C10.1547 41.0702 9.99266 40.8067 9.88905 40.5189C9.78544 40.2312 9.74245 39.9254 9.76274 39.6206V37.0097M35.7955 37.0097H9.76274M14.5938 7.86324H30.9058M12.4716 10.6488C12.1461 10.6596 11.835 10.7845 11.5933 11.0012C11.3517 11.2179 11.1951 11.5126 11.1514 11.8329L9.90943 20.7816C9.85847 21.1349 9.94855 21.4939 10.1605 21.7822C10.3724 22.0705 10.6894 22.2652 11.0438 22.3249H34.2797C34.6413 22.325 34.9888 22.1851 35.2481 21.935C35.5074 21.6849 35.6582 21.3442 35.6684 20.9855C35.6732 20.9241 35.6732 20.8624 35.6684 20.801L34.4264 11.8523C34.3814 11.5239 34.2178 11.2228 33.966 11.005C33.7142 10.7872 33.3913 10.6675 33.0573 10.6682H12.5205L12.4716 10.6488ZM12.0218 27.5951C11.5548 27.5932 11.0978 27.729 10.7087 27.9853C10.3197 28.2415 10.0161 28.6068 9.83646 29.0346C9.65687 29.4624 9.60937 29.9335 9.7 30.3881C9.79063 30.8428 10.0153 31.2604 10.3455 31.5882C10.6757 31.9159 11.0965 32.1388 11.5546 32.2288C12.0127 32.3187 12.4874 32.2716 12.9185 32.0934C13.3495 31.9151 13.7175 31.6138 13.9757 31.2277C14.234 30.8415 14.3708 30.3879 14.3688 29.9245C14.3688 29.3067 14.1216 28.7142 13.6814 28.2774C13.2412 27.8405 12.6443 27.5951 12.0218 27.5951ZM33.5365 27.5951C33.0699 27.5951 32.6139 27.7325 32.2261 27.99C31.8383 28.2474 31.5362 28.6133 31.3581 29.0413C31.18 29.4693 31.1339 29.9401 31.2257 30.3941C31.3174 30.8481 31.5429 31.2649 31.8734 31.5916C32.204 31.9183 32.6249 32.1404 33.0827 32.2295C33.5405 32.3187 34.0147 32.271 34.4452 32.0924C34.8757 31.9139 35.2431 31.6126 35.5009 31.2266C35.7587 30.8407 35.8953 30.3875 35.8933 29.9245C35.8946 29.6174 35.8345 29.3131 35.7164 29.0293C35.5983 28.7455 35.4246 28.4877 35.2053 28.271C34.9861 28.0543 34.7257 27.883 34.4392 27.767C34.1527 27.6509 33.8459 27.5925 33.5365 27.5951Z" stroke="#0E61FE" stroke-linecap="round" stroke-linejoin="round"/>
</svg>
