<svg width="45" height="45" viewBox="0 0 45 45" fill="none" xmlns="http://www.w3.org/2000/svg">
<path d="M42.9694 39.0508C42.9694 34.3166 42.0369 29.6287 40.2252 25.2548C38.4135 20.8809 35.758 16.9067 32.4103 13.559C29.0627 10.2114 25.0885 7.55593 20.7146 5.74421C16.3407 3.93248 11.6528 3 6.91857 3M7.67093 17.9219C10.3468 17.9219 12.9965 18.449 15.4687 19.473C17.9409 20.497 20.1872 21.9979 22.0793 23.8901C23.9715 25.7822 25.4724 28.0285 26.4964 30.5007C27.5204 32.9729 28.0475 35.6226 28.0475 38.2985M12.4046 38.2977C12.4046 40.8947 10.2993 43 7.70228 43C5.10528 43 3 40.8947 3 38.2977C3 35.7007 5.10528 33.5954 7.70228 33.5954C10.2993 33.5954 12.4046 35.7007 12.4046 38.2977Z" stroke="#0E61FE" stroke-linecap="round" stroke-linejoin="round"/>
</svg>
