<svg width="45" height="45" viewBox="0 0 45 45" fill="none" xmlns="http://www.w3.org/2000/svg">
<path d="M9.29653 8.80527C11.7721 6.33632 14.8594 4.56926 18.2425 3.68493L18.7704 3.55397L18.9341 3.52421L18.9445 3.52299C19.7819 3.42434 20.6256 3.64547 21.3068 4.1421L21.6014 3.73808L21.3068 4.1421C21.9851 4.63661 22.4524 5.36793 22.6163 6.19069L22.6614 6.49216L22.6697 6.66538V20.8132V20.8133C22.6698 21.4313 22.8968 22.0277 23.3075 22.4895C23.7183 22.9512 24.2842 23.2462 24.898 23.3185L24.9123 23.3202L24.9266 23.321L25.1634 23.3352L25.1783 23.3361H25.1932H38.953C39.8938 23.3361 40.796 23.7097 41.4612 24.3747C42.1263 25.0395 42.4999 25.9413 42.5 26.8815C42.4999 26.9973 42.4867 27.1128 42.4604 27.2256L42.4603 27.226C41.6705 30.6324 39.9893 33.7678 37.5887 36.311C35.1882 38.8543 32.1545 40.714 28.7985 41.6998C25.4425 42.6856 21.8846 42.762 18.4894 41.9211C15.0941 41.0803 11.9834 39.3524 9.47582 36.9145C6.96825 34.4766 5.15392 31.4163 4.21861 28.0469C3.2833 24.6775 3.26061 21.1202 4.15287 17.7392C5.04512 14.3582 6.82026 11.2749 9.29653 8.80527ZM27.7167 5.64196V5.64192C27.7167 5.39836 27.7751 5.15834 27.8871 4.94201C27.9991 4.72568 28.1614 4.53934 28.3603 4.39865L28.0716 3.99042L28.3603 4.39865C28.5593 4.25795 28.7891 4.16701 29.0305 4.13347C29.2719 4.09993 29.5178 4.12477 29.7476 4.2059L29.748 4.20603C32.5318 5.18633 35.0602 6.77833 37.147 8.86481C39.2338 10.9513 40.8259 13.4791 41.806 16.2621C41.8868 16.4916 41.9114 16.7372 41.8777 16.9783C41.844 17.2193 41.7531 17.4488 41.6124 17.6474C41.4717 17.8461 41.2854 18.0082 41.0691 18.12C40.8529 18.2319 40.6129 18.2903 40.3695 18.2904C40.3694 18.2904 40.3694 18.2904 40.3693 18.2904H29.2402C28.8361 18.2904 28.4486 18.1299 28.1629 17.8443C27.8772 17.5587 27.7167 17.1714 27.7167 16.7676V5.64196Z" stroke="#0E61FE"/>
</svg>
