<svg width="45" height="45" viewBox="0 0 45 45" fill="none" xmlns="http://www.w3.org/2000/svg">
<path d="M23.3535 12.2463C23.1583 12.0511 22.8417 12.0511 22.6464 12.2463L19.4645 15.4283C19.2692 15.6236 19.2692 15.9402 19.4645 16.1354C19.6597 16.3307 19.9763 16.3307 20.1716 16.1354L23 13.307L25.8284 16.1354C26.0237 16.3307 26.3403 16.3307 26.5355 16.1354C26.7308 15.9402 26.7308 15.6236 26.5355 15.4283L23.3535 12.2463ZM42.5 23C42.5 33.7696 33.7696 42.5 23 42.5V43.5C34.3218 43.5 43.5 34.3218 43.5 23H42.5ZM23 42.5C12.2304 42.5 3.5 33.7696 3.5 23H2.5C2.5 34.3218 11.6782 43.5 23 43.5V42.5ZM3.5 23C3.5 12.2304 12.2304 3.5 23 3.5V2.5C11.6782 2.5 2.5 11.6782 2.5 23H3.5ZM23 3.5C33.7696 3.5 42.5 12.2304 42.5 23H43.5C43.5 11.6782 34.3218 2.5 23 2.5V3.5ZM23.5 29.3999V12.5999H22.5V29.3999H23.5ZM10.2 32.5999L35 32.5999V31.5999L10.2 31.5999V32.5999Z" fill="#0E61FE"/>
</svg>
