<svg width="45" height="45" viewBox="0 0 45 45" fill="none" xmlns="http://www.w3.org/2000/svg">
<path d="M0.500001 28.1502V28.15C0.500001 25.6617 1.26368 23.4542 2.79613 21.5095C4.32483 19.5695 6.31924 18.331 8.80001 17.7885L9.09427 17.7241L9.17492 17.4339C9.99742 14.4744 11.6373 12.0851 14.105 10.2513C16.5741 8.41654 19.3669 7.5 22.5 7.5C26.3618 7.5 29.6191 8.81015 32.302 11.4335C34.9845 14.0564 36.3195 17.2353 36.3182 20.9998L36.318 21.4465L36.7619 21.4968C38.9961 21.7501 40.8352 22.6865 42.3033 24.3112C43.7727 25.9373 44.5013 27.826 44.5 29.9997V30C44.5 32.3652 43.6592 34.3617 41.9648 36.0185C40.2699 37.6757 38.2234 38.5013 35.7957 38.5H35.7955H11.25C8.27345 38.5 5.74701 37.4976 3.64255 35.4884C1.54159 33.4825 0.498699 31.0465 0.500001 28.1502Z" stroke="#0E61FE"/>
</svg>
