<svg width="47" height="47" viewBox="0 0 47 47" fill="none" xmlns="http://www.w3.org/2000/svg">
<path d="M17.3636 1V7.13636M29.6364 1V7.13636M17.3636 39.8636V46M29.6364 39.8636V46M39.8636 17.3636H46M39.8636 27.5909H46M1 17.3636H7.13636M1 27.5909H7.13636M11.2273 7.13636H35.7727C38.0321 7.13636 39.8636 8.96793 39.8636 11.2273V35.7727C39.8636 38.0321 38.0321 39.8636 35.7727 39.8636H11.2273C8.96793 39.8636 7.13636 38.0321 7.13636 35.7727V11.2273C7.13636 8.96793 8.96793 7.13636 11.2273 7.13636ZM17.3636 17.3636H29.6364V29.6364H17.3636V17.3636Z" stroke="#0E61FE" stroke-linecap="round" stroke-linejoin="round"/>
</svg>
