<svg width="33" height="40" viewBox="0 0 33 40" fill="none" xmlns="http://www.w3.org/2000/svg">
<path d="M29.6635 34.0097H32.2941V17.6263C32.1083 16.1899 31.4531 10.2208 30.8272 7.18292C30.7594 6.46674 30.5501 5.77084 30.2111 5.135C29.5484 4.24661 28.6369 3.57149 27.5902 3.19385C25.7397 2.35639 23.7868 1.76255 21.7812 1.42739C20.0857 1.13668 18.3677 0.993784 16.6471 1.00034C14.9166 0.99208 13.1887 1.13498 11.4835 1.42739C9.47794 1.76255 7.52508 2.35639 5.67456 3.19385C4.62786 3.57149 3.71634 4.24661 3.05368 5.135C2.71473 5.77084 2.50537 6.46674 2.43757 7.18292C1.81169 10.2597 1.15647 16.1899 1 17.6263V34.0097H3.63066M29.6635 34.0097V36.6206C29.6837 36.9254 29.6408 37.2312 29.5371 37.5189C29.4335 37.8067 29.2715 38.0702 29.0611 38.2933C28.8507 38.5163 28.5964 38.6941 28.314 38.8157C28.0315 38.9373 27.7269 39 27.4191 39C27.1112 39 26.8066 38.9373 26.5242 38.8157C26.2417 38.6941 25.9874 38.5163 25.777 38.2933C25.5666 38.0702 25.4046 37.8067 25.301 37.5189C25.1974 37.2312 25.1544 36.9254 25.1747 36.6206V34.0097H8.11941V36.6206C8.1397 36.9254 8.09671 37.2312 7.9931 37.5189C7.88949 37.8067 7.72748 38.0702 7.51708 38.2933C7.30668 38.5163 7.05238 38.6941 6.76994 38.8157C6.48749 38.9373 6.1829 39 5.87504 39C5.56717 39 5.26259 38.9373 4.98014 38.8157C4.69769 38.6941 4.44339 38.5163 4.23299 38.2933C4.0226 38.0702 3.86058 37.8067 3.75697 37.5189C3.65336 37.2312 3.61037 36.9254 3.63066 36.6206V34.0097M29.6635 34.0097H3.63066M8.46169 4.86324H24.7738M6.33956 7.6488C6.01404 7.65963 5.70289 7.78447 5.46124 8.00121C5.21959 8.21794 5.06304 8.51258 5.01934 8.8329L3.77735 17.7816C3.72639 18.1349 3.81647 18.4939 4.02838 18.7822C4.24029 19.0705 4.55728 19.2652 4.91176 19.3249H28.1476C28.5093 19.325 28.8567 19.1851 29.116 18.935C29.3753 18.6849 29.5261 18.3442 29.5363 17.9855C29.5411 17.9241 29.5411 17.8624 29.5363 17.801L28.2943 8.85232C28.2493 8.52385 28.0857 8.22277 27.8339 8.00499C27.5821 7.78721 27.2592 7.66754 26.9252 7.66821H6.38846L6.33956 7.6488ZM5.88971 24.5951C5.42274 24.5932 4.96572 24.729 4.57665 24.9853C4.18757 25.2415 3.88398 25.6068 3.70438 26.0346C3.52479 26.4624 3.47729 26.9335 3.56792 27.3881C3.65855 27.8428 3.88321 28.2604 4.21341 28.5882C4.54361 28.9159 4.96445 29.1388 5.42254 29.2288C5.88063 29.3187 6.35532 29.2716 6.78638 29.0934C7.21743 28.9151 7.58542 28.6138 7.84364 28.2277C8.10187 27.8415 8.2387 27.3879 8.23676 26.9245C8.23676 26.3067 7.98949 25.7142 7.54933 25.2774C7.10917 24.8405 6.51218 24.5951 5.88971 24.5951ZM27.4044 24.5951C26.9379 24.5951 26.4818 24.7325 26.094 24.99C25.7062 25.2474 25.4042 25.6133 25.2261 26.0413C25.048 26.4693 25.0019 26.9401 25.0936 27.3941C25.1853 27.8481 25.4108 28.2649 25.7414 28.5916C26.072 28.9183 26.4928 29.1404 26.9506 29.2295C27.4085 29.3187 27.8827 29.271 28.3131 29.0924C28.7436 28.9139 29.111 28.6126 29.3688 28.2266C29.6266 27.8407 29.7632 27.3875 29.7612 26.9245C29.7626 26.6174 29.7024 26.3131 29.5843 26.0293C29.4662 25.7455 29.2925 25.4877 29.0733 25.271C28.854 25.0543 28.5936 24.883 28.3071 24.767C28.0207 24.6509 27.7138 24.5925 27.4044 24.5951Z" stroke="#0E61FE" stroke-linecap="round" stroke-linejoin="round"/>
</svg>
